<?xml version="1.0" encoding="UTF-8"?>
<svg id="Layer_1" data-name="Layer 1" xmlns="http://www.w3.org/2000/svg" xmlns:xlink="http://www.w3.org/1999/xlink" viewBox="0 0 250 180">
  <defs>
    <style>
      .cls-1 {
        fill: url(#linear-gradient-2);
      }

      .cls-2 {
        fill: #fff;
      }

      .cls-3 {
        fill: url(#linear-gradient-17);
      }

      .cls-4 {
        fill: url(#linear-gradient-15);
      }

      .cls-5 {
        fill: url(#linear-gradient-18);
      }

      .cls-6 {
        fill: url(#linear-gradient-28);
      }

      .cls-7 {
        fill: url(#linear-gradient-14);
      }

      .cls-8 {
        fill: url(#linear-gradient-20);
      }

      .cls-9 {
        fill: url(#linear-gradient-6);
      }

      .cls-10 {
        fill: url(#linear-gradient-32);
      }

      .cls-11 {
        fill: url(#linear-gradient-11);
      }

      .cls-12 {
        fill: url(#linear-gradient-10);
      }

      .cls-13 {
        fill: url(#linear-gradient-16);
      }

      .cls-14 {
        fill: url(#linear-gradient-31);
      }

      .cls-15 {
        fill: url(#linear-gradient-21);
      }

      .cls-16 {
        fill: url(#linear-gradient-25);
      }

      .cls-17 {
        fill: url(#linear-gradient-5);
      }

      .cls-18 {
        fill: url(#linear-gradient-34);
      }

      .cls-19 {
        fill: url(#linear-gradient-7);
      }

      .cls-20 {
        fill: url(#linear-gradient-24);
      }

      .cls-21 {
        fill: url(#linear-gradient-9);
      }

      .cls-22 {
        fill: url(#linear-gradient-22);
      }

      .cls-23 {
        fill: url(#linear-gradient-3);
      }

      .cls-24 {
        fill: url(#linear-gradient);
      }

      .cls-25 {
        fill: url(#linear-gradient-27);
      }

      .cls-26 {
        fill: url(#linear-gradient-33);
      }

      .cls-27 {
        fill: url(#linear-gradient-29);
      }

      .cls-28 {
        fill: url(#linear-gradient-30);
      }

      .cls-29 {
        fill: url(#linear-gradient-23);
      }

      .cls-30 {
        fill: url(#linear-gradient-19);
      }

      .cls-31 {
        fill: url(#linear-gradient-4);
      }

      .cls-32 {
        fill: url(#linear-gradient-8);
      }

      .cls-33 {
        fill: url(#linear-gradient-12);
      }

      .cls-34 {
        fill: url(#linear-gradient-13);
      }

      .cls-35 {
        fill: url(#linear-gradient-26);
      }
    </style>
    <linearGradient id="linear-gradient" x1="125.87" y1="-38.69" x2="124.3" y2="193.04" gradientUnits="userSpaceOnUse">
      <stop offset="0" stop-color="#0f5620"/>
      <stop offset="1" stop-color="#093413"/>
    </linearGradient>
    <linearGradient id="linear-gradient-2" x1="70.72" y1="76.47" x2="178.94" y2="76.47" gradientUnits="userSpaceOnUse">
      <stop offset="0" stop-color="#e6b26e"/>
      <stop offset="1" stop-color="#fec53f"/>
    </linearGradient>
    <linearGradient id="linear-gradient-3" x1="112.76" y1="122.96" x2="121.2" y2="122.96" xlink:href="#linear-gradient-2"/>
    <linearGradient id="linear-gradient-4" x1="143.44" y1="117.54" x2="152.43" y2="117.54" xlink:href="#linear-gradient-2"/>
    <linearGradient id="linear-gradient-5" x1="101.84" y1="119.49" x2="109.4" y2="119.49" xlink:href="#linear-gradient-2"/>
    <linearGradient id="linear-gradient-6" x1="108.32" y1="31.93" x2="116.25" y2="31.93" xlink:href="#linear-gradient-2"/>
    <linearGradient id="linear-gradient-7" x1="152.02" y1="42.19" x2="160.59" y2="42.19" xlink:href="#linear-gradient-2"/>
    <linearGradient id="linear-gradient-8" x1="144.73" y1="36.85" x2="153.34" y2="36.85" xlink:href="#linear-gradient-2"/>
    <linearGradient id="linear-gradient-9" x1="98.97" y1="35.31" x2="107.52" y2="35.31" xlink:href="#linear-gradient-2"/>
    <linearGradient id="linear-gradient-10" x1="135.47" y1="122.13" x2="142.27" y2="122.13" xlink:href="#linear-gradient-2"/>
    <linearGradient id="linear-gradient-11" x1="125.19" y1="123.53" x2="131" y2="123.53" xlink:href="#linear-gradient-2"/>
    <linearGradient id="linear-gradient-12" x1="91.24" y1="40.82" x2="98.69" y2="40.82" xlink:href="#linear-gradient-2"/>
    <linearGradient id="linear-gradient-13" x1="92.27" y1="113.74" x2="99.79" y2="113.74" xlink:href="#linear-gradient-2"/>
    <linearGradient id="linear-gradient-14" x1="132.45" y1="30.87" x2="139.39" y2="30.87" xlink:href="#linear-gradient-2"/>
    <linearGradient id="linear-gradient-15" x1="151.61" y1="110.44" x2="159.71" y2="110.44" xlink:href="#linear-gradient-2"/>
    <linearGradient id="linear-gradient-16" x1="118.29" y1="30.02" x2="124.41" y2="30.02" xlink:href="#linear-gradient-2"/>
    <linearGradient id="linear-gradient-17" x1="140.23" y1="33.43" x2="144.48" y2="33.43" xlink:href="#linear-gradient-2"/>
    <linearGradient id="linear-gradient-18" x1="127.58" y1="30.09" x2="129.69" y2="30.09" xlink:href="#linear-gradient-2"/>
    <linearGradient id="linear-gradient-19" x1="138.58" y1="70.46" x2="145.37" y2="70.46" xlink:href="#linear-gradient-2"/>
    <linearGradient id="linear-gradient-20" x1="124.98" y1="86.8" x2="130.17" y2="86.8" xlink:href="#linear-gradient-2"/>
    <linearGradient id="linear-gradient-21" x1="118.9" y1="86.8" x2="124.08" y2="86.8" xlink:href="#linear-gradient-2"/>
    <linearGradient id="linear-gradient-22" x1="119.58" y1="91.26" x2="129.49" y2="91.26" xlink:href="#linear-gradient-2"/>
    <linearGradient id="linear-gradient-23" x1="127.61" y1="87.57" x2="134.4" y2="87.57" xlink:href="#linear-gradient-2"/>
    <linearGradient id="linear-gradient-24" x1="114.67" y1="87.55" x2="121.44" y2="87.55" xlink:href="#linear-gradient-2"/>
    <linearGradient id="linear-gradient-25" x1="111.74" y1="89.15" x2="119.49" y2="89.15" xlink:href="#linear-gradient-2"/>
    <linearGradient id="linear-gradient-26" x1="129.55" y1="89.14" x2="137.33" y2="89.14" xlink:href="#linear-gradient-2"/>
    <linearGradient id="linear-gradient-27" x1="124.98" y1="54.16" x2="130.23" y2="54.16" xlink:href="#linear-gradient-2"/>
    <linearGradient id="linear-gradient-28" x1="118.82" y1="54.17" x2="124.09" y2="54.17" xlink:href="#linear-gradient-2"/>
    <linearGradient id="linear-gradient-29" x1="119.44" y1="49.65" x2="129.61" y2="49.65" xlink:href="#linear-gradient-2"/>
    <linearGradient id="linear-gradient-30" x1="114.56" y1="53.38" x2="121.29" y2="53.38" xlink:href="#linear-gradient-2"/>
    <linearGradient id="linear-gradient-31" x1="127.83" y1="53.37" x2="134.47" y2="53.37" xlink:href="#linear-gradient-2"/>
    <linearGradient id="linear-gradient-32" x1="111.66" y1="51.79" x2="119.27" y2="51.79" xlink:href="#linear-gradient-2"/>
    <linearGradient id="linear-gradient-33" x1="129.7" y1="51.8" x2="137.38" y2="51.8" xlink:href="#linear-gradient-2"/>
    <linearGradient id="linear-gradient-34" x1="84.66" y1="76.46" x2="165.71" y2="76.46" xlink:href="#linear-gradient-2"/>
  </defs>
  <rect class="cls-24" x="-9.35" y="-10.37" width="268.7" height="200.74"/>
  <g>
    <path class="cls-1" d="m124.85,130.59c-29.92,0-54.17-24.21-54.13-54.15.03-29.71,23.59-53,51.88-54.04,15.39-.56,28.8,4.5,39.87,15.22,10.91,10.56,16.43,23.61,16.46,38.79.08,29.96-24.19,54.18-54.09,54.18Zm-.01-107.1c-29.25-.01-53.1,23.77-52.98,53.22.12,29.05,23.71,52.72,52.96,52.73,29.24.01,52.94-23.67,52.99-52.81.04-29.4-23.65-53.14-52.97-53.14Z"/>
    <path class="cls-23" d="m114.15,126.29c-.47-.08-.91-.16-1.39-.25.18-1.06.36-2.1.54-3.14.22-1.32.46-2.64.67-3.96.04-.26.14-.33.38-.28.52.1,1.05.2,1.57.27.25.03.33.13.34.36.06,1.11.13,2.21.2,3.31.05.79.1,1.58.22,2.38.05-.1.11-.19.15-.29.68-1.63,1.36-3.27,2.03-4.91.11-.27.26-.34.52-.29.59.11,1.17.22,1.82.33-.42,2.46-.83,4.91-1.26,7.42-.46-.08-.9-.15-1.39-.24.35-2.05.69-4.07,1.03-6.09l-.06-.03c-.06.13-.13.25-.18.38-.71,1.73-1.43,3.46-2.13,5.2-.09.22-.2.32-.44.24-.06-.02-.13-.03-.19-.04-.98-.16-.98-.16-1.03-1.14-.08-1.73-.17-3.46-.25-5.19,0-.05-.02-.09-.12-.14-.34,2.01-.69,4.02-1.03,6.07Z"/>
    <path class="cls-31" d="m148.36,121.63c-.4.23-.8.45-1.22.69-1.24-2.2-2.46-4.37-3.7-6.57.44-.25.85-.49,1.28-.71.08-.04.24,0,.34.06,1.56.92,3.11,1.86,4.66,2.79.09.06.19.1.34.1-.84-1.5-1.69-3-2.54-4.53.41-.23.8-.46,1.22-.7,1.23,2.19,2.46,4.37,3.7,6.57-.4.23-.78.47-1.19.66-.1.05-.3-.01-.42-.08-1.6-.94-3.2-1.9-4.8-2.85-.05-.03-.11-.06-.25-.04.86,1.53,1.71,3.05,2.58,4.6Z"/>
    <path class="cls-17" d="m101.84,119.92c.1-1.26.55-2.46,1.49-3.43,1.03-1.06,2.33-1.28,3.77-.69,1.97.8,2.76,2.57,2.05,4.58-.34.97-.82,1.86-1.67,2.49-1.31.97-2.63.76-3.95.02-1.13-.63-1.65-1.61-1.69-2.97Zm6.04-.89c-.01-.91-.3-1.51-1.01-1.9-.72-.39-1.45-.4-2.09.11-.94.75-1.4,1.78-1.42,2.97-.01.83.44,1.42,1.22,1.75.72.31,1.4.21,1.97-.28.84-.72,1.22-1.7,1.33-2.65Z"/>
    <path class="cls-9" d="m111.79,35.71c-.49.14-.92.27-1.42.41-.68-2.41-1.36-4.81-2.05-7.25.41-.12.81-.23,1.2-.34.9-.25,1.8-.53,2.71-.73,1.7-.37,2.81,1.23,2.44,2.61-.09.33-.34.62-.52.96.93.09,1.13.87,1.37,1.63.16.49.16,1.08.74,1.36,0,.03,0,.07,0,.1-.51.14-1.03.29-1.54.41-.06.01-.19-.14-.22-.23-.17-.43-.32-.88-.48-1.32-.05-.13-.09-.27-.15-.4-.24-.53-.48-.68-1.05-.56-.59.13-1.18.31-1.81.49.14.5.28.97.41,1.45.13.46.25.92.39,1.42Zm-1.11-3.99c.75-.24,1.45-.42,2.12-.68.46-.18.6-.57.48-1.06-.14-.56-.49-.97-.92-.89-.76.13-1.5.36-2.28.55.21.72.39,1.36.6,2.08Z"/>
    <path class="cls-19" d="m152.02,43.39c1.74-1.84,3.44-3.64,5.17-5.47.19.17.37.33.54.5.66.63,1.33,1.24,1.97,1.89.99,1.01,1.16,2.11.5,3.35-.67,1.26-1.66,2.2-3.05,2.64-.9.28-1.77.16-2.49-.47-.89-.78-1.74-1.6-2.64-2.44Zm1.96.11c.43.4.82.78,1.23,1.13.42.35.91.44,1.43.26,1.15-.41,1.89-1.25,2.4-2.32.21-.45.14-.91-.19-1.28-.44-.49-.92-.95-1.41-1.45-1.17,1.24-2.3,2.43-3.47,3.66Z"/>
    <path class="cls-32" d="m153.34,35.02c-.24.4-.45.74-.67,1.1-1.14-.69-2.26-1.37-3.42-2.08-.29.47-.57.92-.87,1.41,1.05.64,2.08,1.27,3.14,1.92-.21.35-.42.7-.65,1.08-1.04-.63-2.07-1.25-3.15-1.91-.35.57-.69,1.12-1.04,1.71,1.2.74,2.38,1.45,3.58,2.18-.22.37-.44.72-.68,1.11-1.62-.98-3.23-1.96-4.86-2.95,1.31-2.15,2.6-4.27,3.91-6.43,1.57.96,3.12,1.9,4.71,2.86Z"/>
    <path class="cls-21" d="m104.91,33.46c.2.38.39.73.6,1.11-1.08.58-2.15,1.14-3.25,1.73.32.59.62,1.16.94,1.77,1.24-.66,2.45-1.3,3.7-1.96.2.37.4.74.62,1.15-1.67.89-3.33,1.77-5.02,2.67-1.18-2.22-2.34-4.41-3.53-6.64,1.62-.86,3.21-1.71,4.85-2.58.2.38.39.74.6,1.13-1.17.63-2.33,1.24-3.53,1.88.26.49.5.95.77,1.47,1.08-.57,2.15-1.14,3.25-1.72Z"/>
    <path class="cls-12" d="m142.27,124.37c-.49.15-.95.29-1.41.41-.08.02-.24-.08-.3-.16-.22-.3-.41-.64-.64-.93-.07-.09-.26-.17-.37-.14-.76.19-1.51.41-2.25.64-.11.03-.23.21-.24.33-.05.44-.05.88-.07,1.37-.48.14-.97.28-1.52.44.04-.75.07-1.43.12-2.12.1-1.56.22-3.12.3-4.68.06-1.16.04-1.16,1.13-1.47.64-.18.64-.19,1.04.37,1.37,1.92,2.73,3.84,4.09,5.76.04.05.07.1.12.19Zm-5.17-1.44c.68-.2,1.29-.37,1.95-.57-.6-.9-1.16-1.74-1.73-2.57-.03.02-.06.03-.09.05-.04,1.01-.09,2.02-.14,3.09Z"/>
    <path class="cls-11" d="m127.2,127.3c-.51.04-.98.07-1.51.1-.17-2.51-.34-4.98-.51-7.5.72-.05,1.41-.11,2.11-.16.45-.03.91-.08,1.36-.08,1.39,0,2.22.76,2.32,2.15.02.23.02.47,0,.7-.06.95-.56,1.61-1.5,1.8-.7.14-1.42.18-2.13.24-.28.02-.36.11-.32.38.05.39.07.78.09,1.17.03.39.05.77.07,1.2Zm-.43-6.26c.06.79.12,1.53.18,2.3.61-.05,1.17-.07,1.72-.16.6-.1.84-.54.79-1.27-.04-.59-.38-.95-.97-.96-.55,0-1.11.05-1.72.08Z"/>
    <path class="cls-33" d="m96.59,37.76c-.35.3-.66.58-.99.83-.09.06-.28.08-.37.02-.81-.47-1.43-.21-1.96.27-.58.52-.67,1.19-.41,1.9.34.92.93,1.66,1.77,2.17,1.09.68,2.45.12,2.65-1.09.05-.3-.1-.63-.12-.95-.01-.13.01-.31.1-.39.29-.28.61-.53.92-.79.62.72.87,2.51-.17,3.68-1.38,1.54-3.29,1.7-4.85.35-.85-.73-1.51-1.61-1.79-2.73-.34-1.37.24-2.64,1.61-3.55,1.07-.71,2.39-.69,3.37.04.08.06.16.13.28.24Z"/>
    <path class="cls-34" d="m99.34,114.66c-.18-.13-.33-.26-.49-.37-.42-.29-.7-.54-.55-1.19.25-1.09-1.06-2.05-2.17-1.72-1.08.33-2.34,1.88-2.39,3.01-.04.68.25,1.2.84,1.57.55.35,1.1.34,1.65,0,.11-.07.22-.14.37-.23.38.29.76.59,1.19.92-.94.8-1.97,1.18-3.13.76-1.34-.49-2.26-1.42-2.37-2.91-.04-.49.06-1.03.24-1.48.48-1.22,1.29-2.2,2.48-2.8,2.32-1.17,4.74,1.01,4.78,2.77.01.54-.13,1.19-.44,1.67Z"/>
    <path class="cls-7" d="m133.93,34.71c-.5-.12-.96-.23-1.48-.35.58-2.43,1.15-4.85,1.74-7.32,1.74.41,3.45.82,5.2,1.23-.1.41-.19.79-.29,1.21-1.23-.29-2.44-.58-3.71-.88-.14.59-.29,1.16-.44,1.77,1.1.26,2.16.52,3.25.78-.1.41-.19.79-.28,1.21-.8-.19-1.57-.37-2.34-.56-.93-.24-.93-.24-1.14.69-.17.73-.34,1.46-.52,2.22Z"/>
    <path class="cls-4" d="m159.71,113.55c-.39.35-.74.68-1.12,1.02-.54-.6-1.06-1.2-1.62-1.76-.19-.19-.44-.36-.7-.45-1.53-.54-3.07-1.05-4.66-1.58.43-.39.82-.77,1.24-1.11.08-.06.29-.02.42.03.94.37,1.88.76,2.82,1.15.06.02.12.04.26.08-.17-.56-.33-1.06-.49-1.56-.18-.56-.37-1.11-.53-1.67-.03-.11,0-.29.08-.36.34-.34.7-.65,1.1-1.02.15.59.3,1.13.44,1.67.27,1.08.53,2.17.81,3.25.04.15.14.3.25.43.55.62,1.11,1.23,1.7,1.88Z"/>
    <path class="cls-13" d="m122.58,33.8c-.53.04-1,.08-1.51.12-.14-2.09-.28-4.14-.43-6.22-.77.04-1.5.09-2.26.13-.03-.43-.06-.82-.09-1.26,2.01-.14,4-.29,6.03-.43.03.43.06.83.09,1.28-.75.06-1.48.12-2.26.18.14,2.08.28,4.13.43,6.22Z"/>
    <path class="cls-3" d="m143.07,29.65c.48.19.93.37,1.42.57-.95,2.32-1.89,4.63-2.84,6.98-.47-.19-.92-.37-1.41-.57.95-2.32,1.89-4.63,2.84-6.97Z"/>
    <path class="cls-5" d="m129.09,33.91c-.51-.04-.98-.08-1.51-.12.2-2.5.4-4.98.61-7.52.51.04.99.08,1.51.13-.2,2.52-.4,4.99-.6,7.51Z"/>
    <path class="cls-30" d="m145.37,70.55c-.11,1.21-.18,2.17-.3,3.13-.1.86-.58,1.48-1.38,1.79-1.15.45-2.31.46-3.46-.02-.63-.26-1.06-.73-1.19-1.4-.26-1.39-.56-2.79-.43-4.22.08-.87.18-1.74.29-2.6.12-1.01.73-1.59,1.69-1.88.79-.23,1.58-.31,2.39-.14,1.24.27,1.92.94,2.09,2.21.15,1.12.22,2.25.31,3.13Z"/>
    <path class="cls-8" d="m130.17,84.82c-.75,1.59-1.6,3.04-2.92,4.16-.41.35-.82.67-1.43.47-.25-.08-.54-.07-.84-.11v-5.25c1.76.03,3.46.28,5.19.73Z"/>
    <path class="cls-15" d="m124.08,89.33c-.45.06-.88.13-1.32.17-.14.01-.3-.06-.43-.14-1.33-.88-2.2-2.16-2.95-3.53-.17-.32-.33-.65-.49-.97.85-.38,4.1-.85,5.18-.75v5.22Z"/>
    <path class="cls-22" d="m129.49,91.73c-3.34.74-6.61.74-9.92,0,2.72-1.97,7.06-2.03,9.92,0Z"/>
    <path class="cls-29" d="m127.61,89.81c1.58-1.28,2.57-2.96,3.43-4.79,1.11.45,2.19.88,3.36,1.35-.38.36-.69.65-1,.93-1.24,1.1-2.62,1.96-4.16,2.58-.79.32-.79.32-1.64-.07Z"/>
    <path class="cls-20" d="m121.44,89.8c-.52.31-.99.36-1.56.12-1.94-.82-3.65-1.97-5.2-3.55,1.14-.46,2.22-.9,3.34-1.35.87,1.84,1.86,3.52,3.43,4.78Z"/>
    <path class="cls-16" d="m111.74,88.17c.66-.41,1.27-.79,1.87-1.18.21-.14.34-.12.53.06,1.34,1.36,2.87,2.48,4.6,3.3.23.11.47.22.75.34-.34.23-.65.45-.97.66-.06.04-.18.04-.26.02-2.33-.69-4.47-1.75-6.52-3.21Z"/>
    <path class="cls-35" d="m129.55,90.7c2.09-.87,3.86-2.11,5.4-3.68.15-.15.27-.16.44-.05.61.39,1.24.77,1.93,1.21-.53.35-1,.67-1.48.96-1.51.92-3.11,1.63-4.79,2.17-.3.1-.53.1-.78-.12-.2-.18-.45-.31-.72-.49Z"/>
    <path class="cls-25" d="m124.98,56.89v-5.24c.52-.07,1.02-.16,1.52-.2.12-.01.27.06.38.14,1.3.92,2.14,2.22,2.88,3.59.16.3.31.62.47.97-1.74.47-3.47.7-5.26.75Z"/>
    <path class="cls-6" d="m124.09,51.65v5.24c-1.78-.04-3.52-.28-5.27-.75.84-1.75,1.76-3.39,3.34-4.55.14-.1.36-.14.53-.13.45.04.9.12,1.4.19Z"/>
    <path class="cls-27" d="m119.44,49.16c3.41-.79,6.77-.79,10.17,0-2.79,2.05-7.2,2.15-10.17,0Z"/>
    <path class="cls-28" d="m117.97,55.94c-1.13-.46-2.22-.9-3.41-1.38.42-.39.77-.73,1.13-1.05,1.14-1,2.42-1.79,3.79-2.43.62-.29,1.2-.4,1.81.07-1.48,1.28-2.48,2.93-3.33,4.8Z"/>
    <path class="cls-14" d="m131.16,55.92c-.54-.93-.97-1.81-1.52-2.61-.54-.79-1.2-1.49-1.81-2.23.44-.25.91-.37,1.5-.11,1.92.84,3.61,2.01,5.15,3.59-1.15.47-2.24.92-3.32,1.36Z"/>
    <path class="cls-10" d="m119.27,50.13c-.98.58-1.99,1.1-2.91,1.75-.91.64-1.73,1.42-2.64,2.18-.62-.4-1.31-.84-2.07-1.32.48-.32.9-.62,1.34-.89,1.54-.97,3.19-1.71,4.91-2.28.27-.09.48-.1.71.1.2.18.44.32.65.46Z"/>
    <path class="cls-26" d="m137.38,52.74c-.73.47-1.42.91-2.12,1.37-1.59-1.67-3.4-3-5.56-3.91.34-.25.64-.47.95-.67.07-.05.2-.03.29,0,2.25.71,4.34,1.73,6.26,3.1.04.03.08.06.17.12Z"/>
    <path class="cls-18" d="m118.09,97.85c-.2-.22-.5-.34-.9-.34s-.7.11-.9.34c-.2.22-.34.51-.4.86-.07.35-.1.78-.1,1.29s.03.97.09,1.33c.06.36.2.65.4.87.2.22.51.33.9.33s.7-.11.9-.33c.2-.22.34-.51.4-.87.06-.36.09-.8.09-1.33s-.03-.94-.1-1.29c-.07-.35-.2-.64-.4-.86Zm-6.06,0c-.2-.22-.5-.34-.9-.34s-.7.11-.9.34c-.2.22-.34.51-.4.86-.07.35-.1.78-.1,1.29s.03.97.09,1.33c.06.36.2.65.4.87.2.22.51.33.9.33s.7-.11.9-.33c.2-.22.34-.51.4-.87.06-.36.09-.8.09-1.33s-.03-.94-.1-1.29c-.07-.35-.2-.64-.4-.86Zm-6.13,3.32v-3.34l-2.23,3.34h2.23Zm34.23-3.32c-.2-.22-.5-.34-.9-.34s-.7.11-.9.34c-.2.22-.34.51-.4.86-.07.35-.1.78-.1,1.29s.03.97.09,1.33c.06.36.2.65.4.87.2.22.51.33.9.33s.7-.11.9-.33c.2-.22.34-.51.4-.87.06-.36.09-.8.09-1.33s-.03-.94-.1-1.29c-.07-.35-.2-.64-.4-.86Zm-14.94-61.91c-22.36,0-40.51,18.11-40.53,40.44-.01,22.47,18.08,40.6,40.51,40.61,22.42,0,40.51-18.07,40.54-40.53.03-22.35-18.14-40.52-40.52-40.52Zm-14.4,16.38c3.87-2.93,8.24-4.47,13.08-4.61,9.23-.27,16.5,5,19.79,10.57-.69.18-.89.11-1.29-.46-1.11-1.57-2.41-2.98-3.89-4.21-.13-.11-.26-.21-.39-.31-.75.49-1.48.97-2.24,1.47.88,1.11,1.74,2.23,2.38,3.54-.11.01-.16.02-.21.03-.54.11-.83-.13-1.11-.59-.55-.89-1.19-1.73-1.76-2.54-1.3.54-2.49,1.04-3.71,1.55.17.49.36,1,.56,1.58-.31,0-.56.02-.79-.01-.08-.01-.17-.14-.21-.24-.15-.36-.27-.73-.41-1.1-.88.17-1.72.37-2.58.5-.81.12-1.63.18-2.45.24-.57.04-.57.02-.65.59h-.77c-.02-.18-.03-.35-.04-.44-1.88-.27-3.74-.54-5.66-.81-.08.22-.22.52-.31.85-.09.33-.25.49-.61.43-.12-.02-.26,0-.47,0,.2-.57.38-1.08.56-1.58-1.22-.51-2.41-1-3.7-1.54-.54.75-1.1,1.54-1.67,2.33-.04.05-.07.11-.1.17q-.43.7-1.33.59c.66-1.28,1.48-2.42,2.38-3.52-.71-.48-1.4-.96-2.11-1.4-.08-.05-.31.06-.42.15-1.52,1.25-2.88,2.65-3.97,4.29-.37.55-.79.55-1.39.48,1.49-2.36,3.31-4.34,5.48-5.98Zm5.67,27.67c.01.25-.07.35-.33.35-1.24-.01-2.48,0-3.71,0-.21,0-.34-.03-.34-.29,0-2.28,0-4.56.01-6.84,0-.02.02-.05.04-.11.1,0,.21-.03.32-.03,1.09,0,2.19,0,3.28,0,.14,0,.35.07.42.18.87,1.44,2.21,2.21,3.79,2.62,1.24.32,2.48.48,3.74.13.41-.11.87-.24.89-.74.02-.47-.44-.62-.8-.73-1.41-.46-2.83-.88-4.25-1.32-1.18-.37-2.38-.69-3.52-1.15-1.46-.58-2.68-1.52-3.46-2.92-1.42-2.55-.6-6.53,2.37-7.95,1.28-.61,2.59-.96,4.02-1.02,2.29-.09,4.46.3,6.48,1.43.12.07.26.11.44.19,0-.28-.02-.53.01-.76.01-.1.15-.26.23-.26,1.31-.02,2.63-.01,3.98-.01v6.64s-.1.04-.16.04c-1.23,0-2.45,0-3.68,0-.14,0-.33-.1-.42-.21-1.25-1.49-2.86-2.26-4.77-2.46-.57-.06-1.14-.1-1.71-.08-.34.02-.69.13-.99.29-.51.27-.51.78-.02,1.08.28.17.61.3.93.4,2.29.69,4.61,1.3,6.88,2.06,2.21.74,3.8,2.23,4.45,4.52.81,2.85-.71,5.84-3.46,6.98-2.41,1-4.87,1.04-7.34.32-.99-.29-1.93-.75-2.9-1.14-.12-.05-.23-.1-.4-.18,0,.36,0,.67,0,.98Zm-18.31-.04c.02-1.34,0-2.68,0-4.03,0-.11.01-.23.03-.4h2.8v-10.28h-2.8c-.01-.18-.02-.32-.02-.46,0-1.33,0-2.66,0-3.99,0-.32.1-.42.42-.42,3.95,0,7.9,0,11.85,0,.32,0,.42.1.42.42-.02,1.36-.02,2.71,0,4.07,0,.3-.09.38-.38.37-.82-.02-1.63,0-2.47,0v10.24h2.81v4.84c-.14.01-.28.03-.41.03-3.95,0-7.9,0-11.85,0-.31,0-.4-.09-.39-.4Zm2.93,23.59h-1.09v-5.9h-.88v-.98h1.97v6.89Zm6.71-1.44h-.88v1.44h-1.06v-1.44h-3.42v-.81l3.17-4.55h1.3v4.43h.88v.94Zm5.25.49c-.37.62-1,.93-1.9.93s-1.54-.31-1.9-.93c-.37-.62-.55-1.48-.55-2.58s.18-1.94.55-2.56c.37-.61,1-.92,1.9-.92s1.54.31,1.9.92c.37.61.55,1.47.55,2.56s-.18,1.96-.55,2.58Zm6.06,0c-.37.62-1,.93-1.9.93s-1.54-.31-1.9-.93c-.37-.62-.55-1.48-.55-2.58s.18-1.94.55-2.56c.37-.61,1-.92,1.9-.92s1.54.31,1.9.92c.37.61.55,1.47.55,2.56s-.18,1.96-.55,2.58Zm3.52.95h-1.09v-5.9h-.88v-.98h1.97v6.89Zm-17.25-20.95c.64-.2.9-.11,1.27.41,1.16,1.65,2.53,3.11,4.09,4.39.1.08.21.16.31.23.75-.49,1.49-.97,2.2-1.43-.82-1.18-1.63-2.36-2.47-3.57.7-.24.96-.13,1.29.35.59.84,1.2,1.67,1.8,2.51.15.21.3.24.55.12,1.06-.48,2.15-.93,3.25-1.4-.18-.5-.37-1.05-.57-1.59.63-.23.86-.14,1.07.44.09.24.18.49.28.73.02.06.06.12.06.13,1.86-.27,3.71-.53,5.59-.8,0-.13.02-.33.04-.56h.8c.01.21.02.4.03.56,1.86.27,3.71.53,5.61.8.08-.21.2-.5.3-.79.23-.65.36-.71,1.11-.52-.2.55-.39,1.09-.58,1.62.93.38,1.85.74,2.75,1.14.86.38.87.41,1.44-.34.49-.64.94-1.31,1.39-1.98.37-.56.49-.62,1.25-.44-.68,1.29-1.52,2.45-2.45,3.57.76.5,1.5.98,2.26,1.47,1.09-.82,2.07-1.77,2.96-2.81.57-.66,1.06-1.38,1.61-2.06.09-.11.26-.2.41-.22.21-.04.44,0,.65,0,.02.05.04.1.07.15-4.45,6.5-10.56,10.17-18.52,10.47-9.21.35-16.47-4.93-19.85-10.55Zm22.25,20.82c-.13.13-.29.2-.48.2s-.36-.07-.49-.2c-.13-.13-.2-.3-.2-.49s.07-.36.2-.49c.13-.13.3-.2.49-.2s.35.07.48.2c.13.13.2.3.2.49s-.07.36-.2.49Zm0-3.97c-.13.13-.29.2-.48.2s-.36-.07-.49-.2c-.13-.13-.2-.3-.2-.49s.07-.36.2-.49c.13-.13.3-.2.49-.2s.35.07.48.2c.13.13.2.3.2.49s-.07.36-.2.49Zm8.22,4.01h-4.59v-.78l.68-.59c.6-.52,1.08-.95,1.43-1.29.35-.34.64-.69.87-1.05.23-.37.35-.73.35-1.1s-.09-.67-.27-.89c-.18-.21-.46-.32-.85-.32s-.66.12-.86.35c-.2.24-.31.55-.33.95h-1.04c.02-.72.23-1.27.65-1.65s.94-.57,1.57-.57c.69,0,1.22.19,1.61.57s.58.88.58,1.51c0,.45-.12.89-.34,1.31-.23.42-.5.79-.82,1.12-.32.33-.72.71-1.21,1.15l-.43.38h3v.9Zm5.3-.85c-.37.62-1,.93-1.9.93s-1.54-.31-1.9-.93c-.37-.62-.55-1.48-.55-2.58s.18-1.94.55-2.56c.37-.61,1-.92,1.9-.92s1.54.31,1.9.92c.37.61.55,1.47.55,2.56s-.18,1.96-.55,2.58Zm3.52.95h-1.09v-5.9h-.88v-.98h1.97v6.89Zm6.13-1.17c-.18.36-.45.65-.8.86-.36.21-.79.31-1.31.31-.69,0-1.24-.17-1.65-.51s-.66-.79-.75-1.35h1.05c.07.3.22.53.46.7.24.17.54.26.9.26.45,0,.78-.14,1.01-.41.22-.27.34-.63.34-1.08s-.11-.8-.34-1.04c-.23-.24-.56-.36-1-.36-.31,0-.57.08-.78.23-.21.15-.36.36-.46.63h-1.02v-3.98h4.16v.94h-3.17v1.88c.13-.18.33-.32.59-.44.26-.12.54-.18.84-.18.53,0,.96.11,1.29.34.33.23.57.51.71.86.14.35.21.71.21,1.1,0,.47-.09.88-.27,1.24Zm.99-27.22c-.86,2.37-2.51,3.92-4.84,4.77-1.58.57-3.2.92-4.82.87-2.1.02-4.03-.37-5.86-1.25-2.37-1.14-3.9-3-4.56-5.54-.71-2.72-.57-5.43.33-8.08.83-2.44,2.56-4.01,4.97-4.89,1.7-.62,3.43-.97,5.24-.92,2.18.07,4.26.59,6.16,1.67,1.88,1.07,3.1,2.68,3.66,4.76.78,2.89.75,5.76-.28,8.6Z"/>
    <g>
      <path class="cls-2" d="m51.23,140.37v1.69h2.27v1.07h-2.27v1.78h2.56v1.1h-3.91v-6.74h3.91v1.1h-2.56Z"/>
      <path class="cls-2" d="m60.77,146.01h-1.35l-3.06-4.62v4.62h-1.35v-6.74h1.35l3.06,4.63v-4.63h1.35v6.74Z"/>
      <path class="cls-2" d="m68.14,139.28l-2.47,6.73h-1.64l-2.47-6.73h1.45l1.85,5.35,1.84-5.35h1.44Z"/>
      <path class="cls-2" d="m70.3,139.28v6.73h-1.35v-6.73h1.35Z"/>
      <path class="cls-2" d="m75.11,146.01l-1.48-2.62h-.64v2.62h-1.35v-6.73h2.53c.52,0,.96.09,1.33.28.37.18.64.43.82.74.18.31.28.66.28,1.05,0,.44-.13.84-.39,1.2s-.64.6-1.15.74l1.61,2.73h-1.56Zm-2.12-3.64h1.13c.37,0,.64-.09.82-.27s.27-.42.27-.74-.09-.55-.27-.72-.45-.26-.82-.26h-1.13v1.98Z"/>
      <path class="cls-2" d="m79.2,145.63c-.53-.3-.95-.7-1.25-1.23-.31-.52-.46-1.12-.46-1.78s.15-1.25.46-1.77c.31-.52.73-.93,1.25-1.23.53-.3,1.11-.44,1.74-.44s1.22.15,1.74.44c.52.3.94.71,1.24,1.23.31.52.46,1.11.46,1.77s-.15,1.26-.46,1.78c-.31.52-.72.93-1.25,1.23-.53.3-1.11.44-1.74.44s-1.21-.15-1.74-.44Zm2.81-1.04c.31-.18.55-.45.72-.79s.26-.74.26-1.19-.09-.84-.26-1.18-.41-.6-.72-.78c-.31-.18-.67-.27-1.07-.27s-.76.09-1.07.27-.55.44-.73.78-.26.73-.26,1.18.09.85.26,1.19.42.6.73.79c.31.18.67.27,1.07.27s.76-.09,1.07-.27Z"/>
      <path class="cls-2" d="m91.14,146.01h-1.35l-3.06-4.62v4.62h-1.35v-6.74h1.35l3.06,4.63v-4.63h1.35v6.74Z"/>
      <path class="cls-2" d="m99.81,139.28v6.73h-1.35v-4.38l-1.8,4.38h-1.02l-1.81-4.38v4.38h-1.35v-6.73h1.53l2.14,5,2.14-5h1.52Z"/>
      <path class="cls-2" d="m102.49,140.37v1.69h2.27v1.07h-2.27v1.78h2.56v1.1h-3.91v-6.74h3.91v1.1h-2.56Z"/>
      <path class="cls-2" d="m112.03,146.01h-1.35l-3.06-4.62v4.62h-1.35v-6.74h1.35l3.06,4.63v-4.63h1.35v6.74Z"/>
      <path class="cls-2" d="m117.94,139.28v1.09h-1.79v5.64h-1.35v-5.64h-1.79v-1.09h4.94Z"/>
      <path class="cls-2" d="m123.05,144.72h-2.68l-.44,1.28h-1.42l2.42-6.74h1.57l2.42,6.74h-1.43l-.44-1.28Zm-.37-1.08l-.97-2.82-.97,2.82h1.95Z"/>
      <path class="cls-2" d="m127.18,144.94h2.22v1.07h-3.57v-6.73h1.35v5.66Z"/>
      <path class="cls-2" d="m139.89,139.28v6.73h-1.35v-4.38l-1.8,4.38h-1.02l-1.81-4.38v4.38h-1.35v-6.73h1.53l2.14,5,2.14-5h1.52Z"/>
      <path class="cls-2" d="m145.35,144.72h-2.68l-.44,1.28h-1.42l2.42-6.74h1.57l2.42,6.74h-1.43l-.44-1.28Zm-.37-1.08l-.97-2.82-.97,2.82h1.95Z"/>
      <path class="cls-2" d="m153.88,146.01h-1.35l-3.06-4.62v4.62h-1.35v-6.74h1.35l3.06,4.63v-4.63h1.35v6.74Z"/>
      <path class="cls-2" d="m159.34,144.72h-2.68l-.44,1.28h-1.42l2.42-6.74h1.57l2.42,6.74h-1.43l-.44-1.28Zm-.37-1.08l-.97-2.82-.97,2.82h1.95Z"/>
      <path class="cls-2" d="m166.8,141.3c-.15-.28-.37-.5-.64-.65-.27-.15-.58-.22-.94-.22-.4,0-.75.09-1.06.27-.31.18-.55.44-.72.77s-.26.72-.26,1.16.09.84.27,1.18c.18.33.42.59.74.77s.68.27,1.1.27c.51,0,.94-.14,1.26-.41.33-.27.54-.65.65-1.14h-2.31v-1.03h3.65v1.18c-.09.47-.28.9-.58,1.3-.3.4-.68.72-1.14.96-.47.24-.99.36-1.57.36-.65,0-1.24-.15-1.76-.44-.52-.29-.94-.7-1.23-1.22-.3-.52-.45-1.11-.45-1.77s.15-1.26.45-1.78c.3-.52.71-.93,1.23-1.23.52-.29,1.11-.44,1.75-.44.76,0,1.42.18,1.98.55.56.37.95.89,1.16,1.56h-1.55Z"/>
      <path class="cls-2" d="m170.87,140.37v1.69h2.27v1.07h-2.27v1.78h2.56v1.1h-3.91v-6.74h3.91v1.1h-2.56Z"/>
      <path class="cls-2" d="m181.99,139.28v6.73h-1.35v-4.38l-1.8,4.38h-1.02l-1.81-4.38v4.38h-1.35v-6.73h1.53l2.14,5,2.14-5h1.52Z"/>
      <path class="cls-2" d="m184.67,140.37v1.69h2.27v1.07h-2.27v1.78h2.56v1.1h-3.91v-6.74h3.91v1.1h-2.56Z"/>
      <path class="cls-2" d="m194.21,146.01h-1.35l-3.06-4.62v4.62h-1.35v-6.74h1.35l3.06,4.63v-4.63h1.35v6.74Z"/>
      <path class="cls-2" d="m200.12,139.28v1.09h-1.79v5.64h-1.35v-5.64h-1.79v-1.09h4.94Z"/>
      <path class="cls-2" d="m107.93,157.41c-.38-.16-.67-.39-.89-.69-.22-.3-.33-.66-.34-1.07h1.45c.02.28.12.49.29.66s.42.24.73.24.56-.08.74-.23.27-.35.27-.59c0-.2-.06-.36-.18-.49-.12-.13-.27-.23-.46-.3s-.44-.16-.76-.25c-.44-.13-.79-.26-1.07-.38-.27-.13-.51-.32-.7-.57-.2-.25-.29-.59-.29-1.02,0-.4.1-.75.3-1.04.2-.3.48-.52.84-.68.36-.16.77-.24,1.23-.24.69,0,1.26.17,1.69.51s.67.81.72,1.41h-1.49c-.01-.23-.11-.42-.29-.57-.18-.15-.43-.23-.73-.23-.26,0-.47.07-.63.2-.16.13-.24.33-.24.59,0,.18.06.33.18.45.12.12.27.21.44.29s.43.16.75.26c.44.13.79.26,1.07.39.28.13.51.32.71.58.2.26.3.59.3,1.01,0,.36-.09.69-.28,1s-.46.55-.82.74c-.36.18-.79.28-1.28.28s-.89-.08-1.27-.24Z"/>
      <path class="cls-2" d="m118.1,150.85l-2.28,4.39v2.34h-1.35v-2.34l-2.29-4.39h1.52l1.45,3.08,1.44-3.08h1.5Z"/>
      <path class="cls-2" d="m119.93,157.41c-.38-.16-.67-.39-.89-.69-.22-.3-.33-.66-.34-1.07h1.45c.02.28.12.49.29.66s.42.24.73.24.56-.08.74-.23.27-.35.27-.59c0-.2-.06-.36-.18-.49-.12-.13-.27-.23-.46-.3s-.44-.16-.76-.25c-.44-.13-.79-.26-1.07-.38-.27-.13-.51-.32-.7-.57-.2-.25-.29-.59-.29-1.02,0-.4.1-.75.3-1.04.2-.3.48-.52.84-.68.36-.16.77-.24,1.23-.24.69,0,1.26.17,1.69.51s.67.81.72,1.41h-1.49c-.01-.23-.11-.42-.29-.57-.18-.15-.43-.23-.73-.23-.26,0-.47.07-.63.2-.16.13-.24.33-.24.59,0,.18.06.33.18.45.12.12.27.21.44.29s.43.16.75.26c.44.13.79.26,1.07.39.28.13.51.32.71.58.2.26.3.59.3,1.01,0,.36-.09.69-.28,1s-.46.55-.82.74c-.36.18-.79.28-1.28.28s-.89-.08-1.27-.24Z"/>
      <path class="cls-2" d="m129.33,150.85v1.09h-1.79v5.64h-1.35v-5.64h-1.79v-1.09h4.94Z"/>
      <path class="cls-2" d="m131.66,151.94v1.69h2.27v1.07h-2.27v1.78h2.56v1.1h-3.91v-6.74h3.91v1.1h-2.56Z"/>
      <path class="cls-2" d="m142.78,150.85v6.73h-1.35v-4.38l-1.8,4.38h-1.02l-1.81-4.38v4.38h-1.35v-6.73h1.53l2.14,5,2.14-5h1.52Z"/>
    </g>
  </g>
</svg>