<?xml version="1.0" encoding="UTF-8"?>
<svg id="Layer_1" data-name="Layer 1" xmlns="http://www.w3.org/2000/svg" version="1.1" xmlns:xlink="http://www.w3.org/1999/xlink" viewBox="0 0 250 180">
  <defs>
    <style>
      .cls-1 {
        fill: url(#linear-gradient-38);
      }

      .cls-1, .cls-2, .cls-3, .cls-4, .cls-5, .cls-6, .cls-7, .cls-8, .cls-9, .cls-10, .cls-11, .cls-12, .cls-13, .cls-14, .cls-15, .cls-16, .cls-17, .cls-18, .cls-19, .cls-20, .cls-21, .cls-22, .cls-23, .cls-24, .cls-25, .cls-26, .cls-27, .cls-28, .cls-29, .cls-30, .cls-31, .cls-32, .cls-33, .cls-34, .cls-35, .cls-36, .cls-37, .cls-38, .cls-39 {
        stroke-width: 0px;
      }

      .cls-2 {
        fill: url(#linear-gradient-12);
      }

      .cls-3 {
        fill: url(#linear-gradient-17);
      }

      .cls-4 {
        fill: url(#linear-gradient-19);
      }

      .cls-5 {
        fill: url(#linear-gradient-33);
      }

      .cls-6 {
        fill: url(#linear-gradient);
      }

      .cls-7 {
        fill: url(#linear-gradient-21);
      }

      .cls-8 {
        fill: url(#linear-gradient-6);
      }

      .cls-9 {
        fill: url(#linear-gradient-15);
      }

      .cls-10 {
        fill: url(#linear-gradient-11);
      }

      .cls-11 {
        fill: url(#linear-gradient-5);
      }

      .cls-12 {
        fill: url(#linear-gradient-31);
      }

      .cls-13 {
        fill: url(#linear-gradient-34);
      }

      .cls-14 {
        fill: url(#linear-gradient-13);
      }

      .cls-15 {
        fill: url(#linear-gradient-23);
      }

      .cls-16 {
        fill: url(#linear-gradient-25);
      }

      .cls-17 {
        fill: url(#linear-gradient-16);
      }

      .cls-18 {
        fill: url(#linear-gradient-22);
      }

      .cls-19 {
        fill: url(#linear-gradient-35);
      }

      .cls-20 {
        fill: url(#linear-gradient-32);
      }

      .cls-21 {
        fill: url(#linear-gradient-20);
      }

      .cls-22 {
        fill: url(#linear-gradient-14);
      }

      .cls-23 {
        fill: url(#linear-gradient-2);
      }

      .cls-24 {
        fill: url(#linear-gradient-7);
      }

      .cls-25 {
        fill: url(#linear-gradient-3);
      }

      .cls-26 {
        fill: url(#linear-gradient-9);
      }

      .cls-27 {
        fill: url(#linear-gradient-27);
      }

      .cls-28 {
        fill: url(#linear-gradient-36);
      }

      .cls-29 {
        fill: url(#linear-gradient-8);
      }

      .cls-30 {
        fill: url(#linear-gradient-24);
      }

      .cls-31 {
        fill: url(#linear-gradient-26);
      }

      .cls-32 {
        fill: url(#linear-gradient-18);
      }

      .cls-33 {
        fill: url(#linear-gradient-30);
      }

      .cls-34 {
        fill: #fff;
      }

      .cls-35 {
        fill: url(#linear-gradient-29);
      }

      .cls-36 {
        fill: url(#linear-gradient-28);
      }

      .cls-37 {
        fill: url(#linear-gradient-10);
      }

      .cls-38 {
        fill: url(#linear-gradient-4);
      }

      .cls-39 {
        fill: url(#linear-gradient-37);
      }
    </style>
    <linearGradient id="linear-gradient" x1="126.1" y1="207.4" x2="124.7" y2="-.4" gradientTransform="translate(0 182) scale(1 -1)" gradientUnits="userSpaceOnUse">
      <stop offset="0" stop-color="#0f5620"/>
      <stop offset="1" stop-color="#093413"/>
    </linearGradient>
    <linearGradient id="linear-gradient-2" x1="68.7" y1="102.7" x2="181.3" y2="102.7" gradientTransform="translate(0 182) scale(1 -1)" gradientUnits="userSpaceOnUse">
      <stop offset="0" stop-color="#e6b26e"/>
      <stop offset="1" stop-color="#fec53f"/>
    </linearGradient>
    <linearGradient id="linear-gradient-3" x1="82.8" y1="102.7" x2="167.1" y2="102.7" gradientTransform="translate(0 182) scale(1 -1)" gradientUnits="userSpaceOnUse">
      <stop offset="0" stop-color="#e6b26e"/>
      <stop offset="1" stop-color="#fec53f"/>
    </linearGradient>
    <linearGradient id="linear-gradient-4" x1="112.4" y1="54.3" x2="121.2" y2="54.3" gradientTransform="translate(0 182) scale(1 -1)" gradientUnits="userSpaceOnUse">
      <stop offset="0" stop-color="#e6b26e"/>
      <stop offset="1" stop-color="#fec53f"/>
    </linearGradient>
    <linearGradient id="linear-gradient-5" x1="144.3" y1="60" x2="153.7" y2="60" gradientTransform="translate(0 182) scale(1 -1)" gradientUnits="userSpaceOnUse">
      <stop offset="0" stop-color="#e6b26e"/>
      <stop offset="1" stop-color="#fec53f"/>
    </linearGradient>
    <linearGradient id="linear-gradient-6" x1="101.1" y1="57.9" x2="108.9" y2="57.9" gradientTransform="translate(0 182) scale(1 -1)" gradientUnits="userSpaceOnUse">
      <stop offset="0" stop-color="#e6b26e"/>
      <stop offset="1" stop-color="#fec53f"/>
    </linearGradient>
    <linearGradient id="linear-gradient-7" x1="107.8" y1="149" x2="116" y2="149" gradientTransform="translate(0 182) scale(1 -1)" gradientUnits="userSpaceOnUse">
      <stop offset="0" stop-color="#e6b26e"/>
      <stop offset="1" stop-color="#fec53f"/>
    </linearGradient>
    <linearGradient id="linear-gradient-8" x1="153.3" y1="138.4" x2="162.2" y2="138.4" gradientTransform="translate(0 182) scale(1 -1)" gradientUnits="userSpaceOnUse">
      <stop offset="0" stop-color="#e6b26e"/>
      <stop offset="1" stop-color="#fec53f"/>
    </linearGradient>
    <linearGradient id="linear-gradient-9" x1="145.7" y1="143.9" x2="154.6" y2="143.9" gradientTransform="translate(0 182) scale(1 -1)" gradientUnits="userSpaceOnUse">
      <stop offset="0" stop-color="#e6b26e"/>
      <stop offset="1" stop-color="#fec53f"/>
    </linearGradient>
    <linearGradient id="linear-gradient-10" x1="98.1" y1="145.5" x2="107" y2="145.5" gradientTransform="translate(0 182) scale(1 -1)" gradientUnits="userSpaceOnUse">
      <stop offset="0" stop-color="#e6b26e"/>
      <stop offset="1" stop-color="#fec53f"/>
    </linearGradient>
    <linearGradient id="linear-gradient-11" x1="136.1" y1="55.2" x2="143.1" y2="55.2" gradientTransform="translate(0 182) scale(1 -1)" gradientUnits="userSpaceOnUse">
      <stop offset="0" stop-color="#e6b26e"/>
      <stop offset="1" stop-color="#fec53f"/>
    </linearGradient>
    <linearGradient id="linear-gradient-12" x1="125.3" y1="53.7" x2="131.4" y2="53.7" gradientTransform="translate(0 182) scale(1 -1)" gradientUnits="userSpaceOnUse">
      <stop offset="0" stop-color="#e6b26e"/>
      <stop offset="1" stop-color="#fec53f"/>
    </linearGradient>
    <linearGradient id="linear-gradient-13" x1="90" y1="139.8" x2="97.8" y2="139.8" gradientTransform="translate(0 182) scale(1 -1)" gradientUnits="userSpaceOnUse">
      <stop offset="0" stop-color="#e6b26e"/>
      <stop offset="1" stop-color="#fec53f"/>
    </linearGradient>
    <linearGradient id="linear-gradient-14" x1="91.1" y1="63.9" x2="98.9" y2="63.9" gradientTransform="translate(0 182) scale(1 -1)" gradientUnits="userSpaceOnUse">
      <stop offset="0" stop-color="#e6b26e"/>
      <stop offset="1" stop-color="#fec53f"/>
    </linearGradient>
    <linearGradient id="linear-gradient-15" x1="132.9" y1="150.2" x2="140.1" y2="150.2" gradientTransform="translate(0 182) scale(1 -1)" gradientUnits="userSpaceOnUse">
      <stop offset="0" stop-color="#e6b26e"/>
      <stop offset="1" stop-color="#fec53f"/>
    </linearGradient>
    <linearGradient id="linear-gradient-16" x1="152.8" y1="67.4" x2="161.3" y2="67.4" gradientTransform="translate(0 182) scale(1 -1)" gradientUnits="userSpaceOnUse">
      <stop offset="0" stop-color="#e6b26e"/>
      <stop offset="1" stop-color="#fec53f"/>
    </linearGradient>
    <linearGradient id="linear-gradient-17" x1="118.2" y1="151" x2="124.5" y2="151" gradientTransform="translate(0 182) scale(1 -1)" gradientUnits="userSpaceOnUse">
      <stop offset="0" stop-color="#e6b26e"/>
      <stop offset="1" stop-color="#fec53f"/>
    </linearGradient>
    <linearGradient id="linear-gradient-18" x1="141" y1="147.5" x2="145.4" y2="147.5" gradientTransform="translate(0 182) scale(1 -1)" gradientUnits="userSpaceOnUse">
      <stop offset="0" stop-color="#e6b26e"/>
      <stop offset="1" stop-color="#fec53f"/>
    </linearGradient>
    <linearGradient id="linear-gradient-19" x1="127.8" y1="151" x2="130" y2="151" gradientTransform="translate(0 182) scale(1 -1)" gradientUnits="userSpaceOnUse">
      <stop offset="0" stop-color="#e6b26e"/>
      <stop offset="1" stop-color="#fec53f"/>
    </linearGradient>
    <linearGradient id="linear-gradient-20" x1="139.3" y1="108.9" x2="146.4" y2="108.9" gradientTransform="translate(0 182) scale(1 -1)" gradientUnits="userSpaceOnUse">
      <stop offset="0" stop-color="#e6b26e"/>
      <stop offset="1" stop-color="#fec53f"/>
    </linearGradient>
    <linearGradient id="linear-gradient-21" x1="125.1" y1="91.9" x2="130.5" y2="91.9" gradientTransform="translate(0 182) scale(1 -1)" gradientUnits="userSpaceOnUse">
      <stop offset="0" stop-color="#e6b26e"/>
      <stop offset="1" stop-color="#fec53f"/>
    </linearGradient>
    <linearGradient id="linear-gradient-22" x1="118.8" y1="91.9" x2="124.2" y2="91.9" gradientTransform="translate(0 182) scale(1 -1)" gradientUnits="userSpaceOnUse">
      <stop offset="0" stop-color="#e6b26e"/>
      <stop offset="1" stop-color="#fec53f"/>
    </linearGradient>
    <linearGradient id="linear-gradient-23" x1="119.5" y1="87.3" x2="129.8" y2="87.3" gradientTransform="translate(0 182) scale(1 -1)" gradientUnits="userSpaceOnUse">
      <stop offset="0" stop-color="#e6b26e"/>
      <stop offset="1" stop-color="#fec53f"/>
    </linearGradient>
    <linearGradient id="linear-gradient-24" x1="127.9" y1="91.1" x2="134.9" y2="91.1" gradientTransform="translate(0 182) scale(1 -1)" gradientUnits="userSpaceOnUse">
      <stop offset="0" stop-color="#e6b26e"/>
      <stop offset="1" stop-color="#fec53f"/>
    </linearGradient>
    <linearGradient id="linear-gradient-25" x1="114.4" y1="91.2" x2="121.4" y2="91.2" gradientTransform="translate(0 182) scale(1 -1)" gradientUnits="userSpaceOnUse">
      <stop offset="0" stop-color="#e6b26e"/>
      <stop offset="1" stop-color="#fec53f"/>
    </linearGradient>
    <linearGradient id="linear-gradient-26" x1="111.3" y1="89.5" x2="119.4" y2="89.5" gradientTransform="translate(0 182) scale(1 -1)" gradientUnits="userSpaceOnUse">
      <stop offset="0" stop-color="#e6b26e"/>
      <stop offset="1" stop-color="#fec53f"/>
    </linearGradient>
    <linearGradient id="linear-gradient-27" x1="129.9" y1="89.5" x2="138" y2="89.5" gradientTransform="translate(0 182) scale(1 -1)" gradientUnits="userSpaceOnUse">
      <stop offset="0" stop-color="#e6b26e"/>
      <stop offset="1" stop-color="#fec53f"/>
    </linearGradient>
    <linearGradient id="linear-gradient-28" x1="125.1" y1="125.9" x2="130.6" y2="125.9" gradientTransform="translate(0 182) scale(1 -1)" gradientUnits="userSpaceOnUse">
      <stop offset="0" stop-color="#e6b26e"/>
      <stop offset="1" stop-color="#fec53f"/>
    </linearGradient>
    <linearGradient id="linear-gradient-29" x1="118.7" y1="125.9" x2="124.2" y2="125.9" gradientTransform="translate(0 182) scale(1 -1)" gradientUnits="userSpaceOnUse">
      <stop offset="0" stop-color="#e6b26e"/>
      <stop offset="1" stop-color="#fec53f"/>
    </linearGradient>
    <linearGradient id="linear-gradient-30" x1="119.4" y1="130.6" x2="129.9" y2="130.6" gradientTransform="translate(0 182) scale(1 -1)" gradientUnits="userSpaceOnUse">
      <stop offset="0" stop-color="#e6b26e"/>
      <stop offset="1" stop-color="#fec53f"/>
    </linearGradient>
    <linearGradient id="linear-gradient-31" x1="114.3" y1="126.7" x2="121.3" y2="126.7" gradientTransform="translate(0 182) scale(1 -1)" gradientUnits="userSpaceOnUse">
      <stop offset="0" stop-color="#e6b26e"/>
      <stop offset="1" stop-color="#fec53f"/>
    </linearGradient>
    <linearGradient id="linear-gradient-32" x1="128.1" y1="126.7" x2="135" y2="126.7" gradientTransform="translate(0 182) scale(1 -1)" gradientUnits="userSpaceOnUse">
      <stop offset="0" stop-color="#e6b26e"/>
      <stop offset="1" stop-color="#fec53f"/>
    </linearGradient>
    <linearGradient id="linear-gradient-33" x1="111.3" y1="128.4" x2="119.2" y2="128.4" gradientTransform="translate(0 182) scale(1 -1)" gradientUnits="userSpaceOnUse">
      <stop offset="0" stop-color="#e6b26e"/>
      <stop offset="1" stop-color="#fec53f"/>
    </linearGradient>
    <linearGradient id="linear-gradient-34" x1="130" y1="128.4" x2="138" y2="128.4" gradientTransform="translate(0 182) scale(1 -1)" gradientUnits="userSpaceOnUse">
      <stop offset="0" stop-color="#e6b26e"/>
      <stop offset="1" stop-color="#fec53f"/>
    </linearGradient>
    <linearGradient id="linear-gradient-35" x1="98.7" y1="81.6" x2="102" y2="81.6" gradientTransform="translate(0 182) scale(1 -1)" gradientUnits="userSpaceOnUse">
      <stop offset="0" stop-color="#e6b26e"/>
      <stop offset="1" stop-color="#fec53f"/>
    </linearGradient>
    <linearGradient id="linear-gradient-36" x1="112.1" y1="80.1" x2="115.7" y2="80.1" gradientTransform="translate(0 182) scale(1 -1)" gradientUnits="userSpaceOnUse">
      <stop offset="0" stop-color="#e6b26e"/>
      <stop offset="1" stop-color="#fec53f"/>
    </linearGradient>
    <linearGradient id="linear-gradient-37" x1="135.5" y1="80" x2="139.1" y2="80" gradientTransform="translate(0 182) scale(1 -1)" gradientUnits="userSpaceOnUse">
      <stop offset="0" stop-color="#e6b26e"/>
      <stop offset="1" stop-color="#fec53f"/>
    </linearGradient>
    <linearGradient id="linear-gradient-38" x1="105.4" y1="79.9" x2="108.9" y2="79.9" gradientTransform="translate(0 182) scale(1 -1)" gradientUnits="userSpaceOnUse">
      <stop offset="0" stop-color="#e6b26e"/>
      <stop offset="1" stop-color="#fec53f"/>
    </linearGradient>
  </defs>
  <rect class="cls-6" width="250.6" height="180"/>
  <g>
    <g>
      <path class="cls-23" d="M125,135.6c-31.1,0-56.4-25.2-56.3-56.3,0-30.9,24.5-55.2,54-56.2,16-.6,30,4.7,41.5,15.8,11.4,11,17.1,24.6,17.1,40.4,0,31.2-25.2,56.4-56.3,56.4h0ZM125,24.2c-30.4,0-55.2,24.7-55.1,55.4.1,30.2,24.7,54.9,55.1,54.9s55.1-24.6,55.1-54.9c0-30.6-24.6-55.3-55.1-55.3Z"/>
      <path class="cls-25" d="M125,121.5c-23.3,0-42.2-18.9-42.2-42.3,0-23.2,18.9-42.1,42.2-42.1s42.2,18.9,42.2,42.2c0,23.4-18.9,42.2-42.2,42.2h0ZM143,83.8c1.7,0,3.4-.3,5-.9,2.4-.9,4.1-2.5,5-5,1.1-3,1.1-5.9.3-8.9-.6-2.2-1.9-3.8-3.8-5-2-1.1-4.1-1.7-6.4-1.7-1.9,0-3.7.3-5.4,1-2.5.9-4.3,2.6-5.2,5.1-.9,2.8-1.1,5.6-.3,8.4.7,2.7,2.3,4.6,4.8,5.8,1.9.9,3.9,1.3,6.1,1.3h0ZM116.3,82c.2,0,.3.1.4.2,1,.4,2,.9,3,1.2,2.6.8,5.1.7,7.6-.3,2.9-1.2,4.4-4.3,3.6-7.3-.7-2.4-2.3-3.9-4.6-4.7-2.4-.8-4.8-1.4-7.2-2.1-.3,0-.7-.2-1-.4-.5-.3-.5-.8,0-1.1.3-.2.7-.3,1-.3.6,0,1.2,0,1.8,0,2,.2,3.7,1,5,2.6,0,.1.3.2.4.2,1.3,0,2.6,0,3.8,0,0,0,.1,0,.2,0v-6.9c-1.4,0-2.8,0-4.1,0,0,0-.2.2-.2.3,0,.2,0,.5,0,.8-.2,0-.3-.1-.5-.2-2.1-1.2-4.3-1.6-6.7-1.5-1.5,0-2.8.4-4.2,1.1-3.1,1.5-3.9,5.6-2.5,8.3.8,1.4,2.1,2.4,3.6,3,1.2.5,2.4.8,3.7,1.2,1.5.5,2.9.9,4.4,1.4.4.1.9.3.8.8,0,.5-.5.7-.9.8-1.3.4-2.6.2-3.9-.1-1.6-.4-3-1.2-3.9-2.7,0-.1-.3-.2-.4-.2-1.1,0-2.3,0-3.4,0s-.2,0-.3,0c0,0,0,0,0,.1,0,2.4,0,4.8,0,7.1,0,.3.1.3.4.3h3.9c.3,0,.4,0,.3-.4,0-.3,0-.6,0-1h0ZM97.2,78.3c0,.2,0,.3,0,.4v4.2c0,.3,0,.4.4.4,4.1,0,8.2,0,12.3,0s.3,0,.4,0v-5h-2.9v-10.7c.9,0,1.7,0,2.6,0,.3,0,.4,0,.4-.4,0-1.4,0-2.8,0-4.2,0-.3,0-.4-.4-.4h-12.3c-.3,0-.4,0-.4.4,0,1.4,0,2.8,0,4.1s0,.3,0,.5h2.9v10.7h-2.9,0ZM144.6,85.8c0,0,0,0,0-.2-.2,0-.5,0-.7,0-.1,0-.3.1-.4.2-.6.7-1.1,1.5-1.7,2.1-.9,1.1-1.9,2.1-3.1,2.9-.8-.5-1.6-1-2.4-1.5,1-1.2,1.9-2.4,2.6-3.7-.8-.2-.9-.1-1.3.5-.5.7-.9,1.4-1.4,2.1-.6.8-.6.8-1.5.4-.9-.4-1.9-.8-2.9-1.2.2-.6.4-1.1.6-1.7-.8-.2-.9-.1-1.1.5-.1.3-.2.6-.3.8-2-.3-3.9-.6-5.8-.8,0-.2,0-.4,0-.6h-.8c0,.2,0,.4,0,.6-2,.3-3.9.6-5.8.8,0,0,0,0,0-.1,0-.2-.2-.5-.3-.8-.2-.6-.5-.7-1.1-.5.2.6.4,1.1.6,1.7-1.2.5-2.3,1-3.4,1.5-.3.1-.4,0-.6-.1-.6-.9-1.3-1.7-1.9-2.6-.3-.5-.6-.6-1.3-.4.9,1.2,1.7,2.5,2.6,3.7-.7.5-1.5,1-2.3,1.5,0,0-.2-.2-.3-.2-1.6-1.3-3.1-2.8-4.2-4.6-.4-.5-.7-.6-1.3-.4,3.5,5.8,11.1,11.3,20.7,11,8.3-.3,14.6-4.1,19.3-10.9h0ZM138.9,60.4c-.7-1.4-1.6-2.5-2.5-3.7.8-.5,1.6-1,2.3-1.5.1.1.3.2.4.3,1.5,1.3,2.9,2.7,4.1,4.4.4.6.6.7,1.3.5-3.4-5.8-11-11.3-20.6-11-5,.1-9.6,1.8-13.6,4.8-2.3,1.7-4.2,3.8-5.7,6.2.6,0,1.1,0,1.4-.5,1.1-1.7,2.6-3.2,4.1-4.5.1,0,.3-.2.4-.2.7.5,1.5,1,2.2,1.5-.9,1.1-1.8,2.3-2.5,3.7.6,0,1.1-.1,1.4-.6,0,0,0-.1.1-.2.6-.8,1.2-1.7,1.7-2.4,1.3.6,2.6,1.1,3.8,1.6-.2.5-.4,1.1-.6,1.7.2,0,.4,0,.5,0,.4,0,.5,0,.6-.4s.2-.7.3-.9c2,.3,3.9.6,5.9.8,0,0,0,.3,0,.5h.8c0-.6,0-.6.7-.6.8,0,1.7-.1,2.6-.2.9-.1,1.8-.3,2.7-.5.1.4.3.8.4,1.1,0,0,.1.2.2.2.2,0,.5,0,.8,0-.2-.6-.4-1.1-.6-1.6,1.3-.5,2.5-1,3.9-1.6.6.8,1.3,1.7,1.8,2.6.3.5.6.7,1.2.6,0,0,.1,0,.2,0ZM102.1,102.4c-.1.8-.2,1.7-.7,2.3-.4.6-.9.7-1.6.6-.6-.1-.9-.6-1-1.1,0,0,0-.1,0-.2h-1.2c0,.3.1.6.2.9.4.9,1.1,1.3,1.9,1.4,1,.1,2-.2,2.6-1.1,1.2-1.8,1.2-3.9.6-5.9-.7-2.1-3.3-2.2-4.4-1.2-.8.6-1.1,1.5-1.1,2.4s.6,2.1,1.5,2.5c1.1.4,2.2.2,3.1-.6h0ZM116.8,101.9c0-.9,0-1.8-.5-2.6-.5-1.2-1.4-1.8-2.5-1.7-1.2,0-2,.6-2.5,1.7-.7,1.7-.7,3.5,0,5.2.4,1.1,1.2,1.8,2.4,1.8,1.3,0,2.1-.5,2.7-1.7.4-.8.4-1.7.4-2.7h0ZM140.3,101.7c0-.3,0-.8-.1-1.3,0-.4-.2-.7-.3-1.1-.4-1.2-1.3-1.8-2.5-1.8-1.1,0-2.1.5-2.5,1.7-.7,1.8-.7,3.7,0,5.5.4,1.1,1.2,1.7,2.4,1.7s2-.6,2.5-1.6c.4-.9.5-1.8.5-3h0ZM110.1,102c0-1-.1-1.9-.5-2.8-.5-1.1-1.3-1.6-2.4-1.6s-2,.5-2.4,1.6c-.8,1.8-.8,3.7,0,5.6.4,1,1.2,1.6,2.3,1.6,1.2,0,2-.5,2.5-1.6.4-.9.5-1.8.6-2.8h0ZM148.1,102.4c.4,0,.8.2,1.1-.1.7-.7,1.8-.8,2.5-.3.7.5.9,1.5.5,2.4-.3.7-.8,1-1.5,1-.7,0-1.4-.1-1.6-.8-.2-.5-.5-.6-.9-.6-.1,0-.2,0-.4,0,0,.6.2,1.2.6,1.6.9.8,1.9.9,3,.7,1-.2,1.7-.8,2.1-1.8.6-1.7-.2-3.4-1.9-3.8-.8-.2-1.5,0-2.3.4.1-.8.2-1.5.4-2.2h2.9c.8,0,.7.1.7-.7,0-.3-.1-.4-.4-.4-1.2,0-2.4,0-3.6,0s-.3,0-.4,0c-.2,1.5-.4,3.1-.6,4.6h0ZM128.9,100.6c.1-.4.1-.8.3-1.1.3-.7,1-1.1,1.9-.9.7.1,1.2.7,1.2,1.4,0,.8-.4,1.3-1,1.7-.7.4-1.4.8-2.1,1.2-1.1.7-1.6,1.8-1.6,3.1h5.9c0-.2,0-.4,0-.6,0-.4-.1-.5-.5-.5-1.2,0-2.3,0-3.5,0h-.6s0,0,0-.1c.2-.3.4-.6.6-.8.5-.4,1.1-.7,1.6-1,.6-.4,1.2-.7,1.6-1.1.9-.8,1-2.3.4-3.3-.7-1.1-2.1-1.4-3.5-.9-1.1.4-1.9,1.7-1.7,2.9h1ZM145.1,106.1c0-2.8,0-5.5,0-8.3,0,0-.2-.3-.2-.3-.2,0-.6-.2-.7.2-.2,1-.9,1.3-1.9,1.3s-.4.3-.4.6c0,.3.1.4.4.4.5,0,1,0,1.6,0v6h1.2,0ZM121.6,106.1v-8.1c0-.2,0-.4-.2-.4-.3,0-.7-.2-.8.3-.2.7-.7,1.2-1.4,1.2-.2,0-.3,0-.4,0-.5,0-.3.3-.3.6,0,.3,0,.4.4.4.5,0,1.1,0,1.7,0v6h1.2,0ZM126.3,101.2c0-.4,0-.7,0-1.1,0,0-.1-.2-.2-.2-.4,0-.7,0-1.1,0v1.3h1.3,0ZM125,104.8v1c0,0,0,.2,0,.3,1.2.2,1.4,0,1.3-1h0c0-.2-.2-.3-.2-.3-.3,0-.7,0-1.1,0h0Z"/>
      <path class="cls-38" d="M113.8,131.1c-.5,0-.9-.2-1.4-.3.2-1.1.4-2.2.6-3.3.2-1.4.5-2.8.7-4.1,0-.3.1-.3.4-.3.5.1,1.1.2,1.6.3.3,0,.3.1.3.4,0,1.2.1,2.3.2,3.4,0,.8,0,1.6.2,2.5,0-.1.1-.2.2-.3.7-1.7,1.4-3.4,2.1-5.1.1-.3.3-.4.6-.3.6.1,1.2.2,1.9.3-.4,2.6-.9,5.1-1.3,7.7-.5,0-.9-.2-1.4-.2.4-2.1.7-4.2,1.1-6.3h0c0,0-.1.2-.2.4-.7,1.8-1.5,3.6-2.2,5.4,0,.2-.2.3-.5.2,0,0-.1,0-.2,0q-1-.2-1.1-1.2c0-1.8-.2-3.6-.3-5.4,0,0,0,0-.1-.2-.4,2.1-.7,4.2-1.1,6.3h0Z"/>
      <path class="cls-11" d="M149.4,126.3c-.4.2-.8.5-1.3.7-1.3-2.3-2.6-4.5-3.9-6.8.5-.3.9-.5,1.3-.7,0,0,.2,0,.4,0,1.6,1,3.2,1.9,4.9,2.9.1,0,.2.1.4,0-.9-1.6-1.8-3.1-2.6-4.7.4-.2.8-.5,1.3-.7,1.3,2.3,2.6,4.6,3.9,6.8-.4.2-.8.5-1.2.7-.1,0-.3,0-.4,0-1.7-1-3.3-2-5-3,0,0-.1,0-.3,0,.9,1.6,1.8,3.2,2.7,4.8h0Z"/>
      <path class="cls-8" d="M101.1,124.5c0-1.3.6-2.6,1.6-3.6,1.1-1.1,2.4-1.3,3.9-.7,2.1.8,2.9,2.7,2.1,4.8-.4,1-.8,1.9-1.7,2.6-1.4,1-2.7.8-4.1,0-1.2-.7-1.7-1.7-1.8-3.1h0ZM107.3,123.6c0-.9-.3-1.6-1.1-2-.8-.4-1.5-.4-2.2.1-1,.8-1.5,1.8-1.5,3.1,0,.9.5,1.5,1.3,1.8.8.3,1.4.2,2.1-.3.9-.8,1.3-1.8,1.4-2.8h0Z"/>
      <path class="cls-24" d="M111.4,36.9c-.5.2-1,.3-1.5.4-.7-2.5-1.4-5-2.1-7.5.4-.1.8-.2,1.2-.4.9-.3,1.9-.5,2.8-.8,1.8-.4,2.9,1.3,2.5,2.7,0,.4-.3.7-.5,1,1,0,1.2.9,1.4,1.7.2.5.2,1.1.8,1.4h0c-.5.3-1.1.4-1.6.5,0,0-.2-.1-.2-.2-.2-.5-.3-.9-.5-1.4,0-.1,0-.3-.2-.4-.2-.5-.5-.7-1.1-.6-.6.1-1.2.3-1.9.5.2.5.3,1,.4,1.5.1.5.3,1,.4,1.5h0ZM110.2,32.7c.8-.2,1.5-.4,2.2-.7.5-.2.6-.6.5-1.1-.1-.6-.5-1-1-.9-.8.1-1.6.4-2.4.6.2.8.4,1.4.6,2.2Z"/>
      <path class="cls-29" d="M153.3,44.9c1.8-1.9,3.6-3.8,5.4-5.7.2.2.4.3.6.5.7.7,1.4,1.3,2.1,2,1,1,1.2,2.2.5,3.5-.7,1.3-1.7,2.3-3.2,2.8-.9.3-1.8.2-2.6-.5-.9-.8-1.8-1.7-2.8-2.5h0ZM155.3,45c.4.4.9.8,1.3,1.2s.9.5,1.5.3c1.2-.4,2-1.3,2.5-2.4.2-.5.1-1-.2-1.3-.5-.5-.9-1-1.5-1.5-1.2,1.3-2.4,2.5-3.6,3.8h0Z"/>
      <path class="cls-26" d="M154.6,36.2c-.2.4-.5.8-.7,1.1-1.2-.7-2.4-1.4-3.6-2.2-.3.5-.6,1-.9,1.5,1.1.7,2.2,1.3,3.3,2-.2.4-.4.7-.7,1.1-1.1-.7-2.1-1.3-3.3-2-.4.6-.7,1.2-1.1,1.8,1.2.8,2.5,1.5,3.7,2.3-.2.4-.5.8-.7,1.2-1.7-1-3.4-2-5.1-3.1,1.4-2.2,2.7-4.4,4.1-6.7,1.6,1,3.2,2,4.9,3h0Z"/>
      <path class="cls-37" d="M104.2,34.5c.2.4.4.8.6,1.2-1.1.6-2.2,1.2-3.4,1.8.3.6.6,1.2,1,1.8,1.3-.7,2.6-1.3,3.8-2,.2.4.4.8.6,1.2-1.7.9-3.5,1.8-5.2,2.8-1.2-2.3-2.4-4.6-3.7-6.9,1.7-.9,3.3-1.8,5.1-2.7.2.4.4.8.6,1.2-1.2.7-2.4,1.3-3.7,2,.3.5.5,1,.8,1.5,1.1-.6,2.2-1.2,3.4-1.8h0Z"/>
      <path class="cls-10" d="M143.1,129.1c-.5.1-1,.3-1.5.4,0,0-.2,0-.3-.2-.2-.3-.4-.7-.7-1,0-.1-.3-.2-.4-.1-.8.2-1.6.4-2.3.7-.1,0-.2.2-.2.3,0,.5,0,.9,0,1.4-.5.1-1,.3-1.6.5,0-.8,0-1.5.1-2.2.1-1.6.2-3.2.3-4.9,0-1.2,0-1.2,1.2-1.5q.7-.2,1.1.4l4.3,6c0,0,0,.1.1.2h0ZM137.7,127.6c.7-.2,1.3-.4,2-.6-.6-.9-1.2-1.8-1.8-2.7,0,0,0,0,0,0,0,1.1,0,2.1-.1,3.2Z"/>
      <path class="cls-2" d="M127.4,132.2c-.5,0-1,0-1.6.1-.2-2.6-.3-5.2-.5-7.8.8,0,1.5-.1,2.2-.2.5,0,1,0,1.4,0,1.4,0,2.3.8,2.4,2.2,0,.2,0,.5,0,.7,0,1-.6,1.7-1.6,1.9-.7.1-1.5.2-2.2.2-.3,0-.4.1-.3.4,0,.4,0,.8,0,1.2,0,.4,0,.8,0,1.2h0ZM127,125.7c0,.8.1,1.6.2,2.4.6,0,1.2,0,1.8-.2.6,0,.9-.6.8-1.3,0-.6-.4-1-1-1-.6,0-1.2,0-1.8,0h0Z"/>
      <path class="cls-14" d="M95.6,39c-.4.3-.7.6-1,.9,0,0-.3,0-.4,0-.8-.5-1.5-.2-2,.3-.6.5-.7,1.2-.4,2,.3,1,1,1.7,1.8,2.3,1.1.7,2.6.1,2.8-1.1,0-.3,0-.7-.1-1,0-.1,0-.3,0-.4.3-.3.6-.5.9-.8.6.8.9,2.6-.2,3.8-1.4,1.6-3.4,1.8-5.1.4-.9-.8-1.6-1.7-1.9-2.8-.3-1.4.2-2.8,1.7-3.7,1.1-.7,2.5-.7,3.5,0,0,0,.2.1.3.2h0Z"/>
      <path class="cls-22" d="M98.4,119c-.2-.1-.3-.3-.5-.4-.4-.3-.7-.6-.6-1.2.3-1.1-1.1-2.1-2.3-1.8-1.1.3-2.4,2-2.5,3.1,0,.7.3,1.2.9,1.6.6.4,1.2.4,1.7,0,.1,0,.2-.1.4-.2.4.3.8.6,1.2.9-1,.8-2.1,1.2-3.3.8-1.4-.5-2.3-1.5-2.5-3,0-.5,0-1.1.2-1.5.5-1.3,1.3-2.3,2.6-2.9,2.4-1.2,4.9,1.1,5,2.9,0,.6-.1,1.2-.5,1.7h0Z"/>
      <path class="cls-9" d="M134.4,35.8c-.5-.1-1-.2-1.5-.4.6-2.5,1.2-5,1.8-7.6,1.8.4,3.6.9,5.4,1.3-.1.4-.2.8-.3,1.3-1.3-.3-2.5-.6-3.9-.9-.1.6-.3,1.2-.4,1.8,1.1.3,2.2.5,3.4.8-.1.4-.2.8-.3,1.3-.8-.2-1.6-.4-2.4-.6-1-.2-1-.2-1.2.7-.2.8-.4,1.5-.5,2.3h0Z"/>
      <path class="cls-17" d="M161.3,117.9c-.4.4-.8.7-1.2,1.1-.6-.6-1.1-1.2-1.7-1.8-.2-.2-.5-.4-.7-.5-1.6-.6-3.2-1.1-4.9-1.7.4-.4.9-.8,1.3-1.2,0,0,.3,0,.4,0,1,.4,1.9.8,2.9,1.2,0,0,.1,0,.3,0-.2-.6-.3-1.1-.5-1.6-.2-.6-.4-1.2-.6-1.7,0-.1,0-.3,0-.4.4-.3.7-.7,1.1-1.1.2.6.3,1.2.5,1.7.3,1.1.6,2.3.9,3.4,0,.2.1.3.3.4.6.7,1.2,1.3,1.8,2h0Z"/>
      <path class="cls-3" d="M122.6,34.9c-.6,0-1,0-1.6.1-.2-2.2-.3-4.3-.4-6.5-.8,0-1.6,0-2.4.1,0-.5,0-.9,0-1.3,2.1-.1,4.2-.3,6.3-.5,0,.5,0,.9,0,1.3-.8,0-1.5.1-2.3.2.2,2.2.3,4.3.5,6.5Z"/>
      <path class="cls-32" d="M143.9,30.6c.5.2,1,.4,1.5.6-1,2.4-2,4.8-3,7.3-.5-.2-1-.4-1.5-.6,1-2.4,2-4.8,3-7.3Z"/>
      <path class="cls-4" d="M129.4,35c-.5,0-1,0-1.6-.1.2-2.6.4-5.2.6-7.8.5,0,1,0,1.6.1-.2,2.6-.4,5.2-.6,7.8h0Z"/>
      <path class="cls-21" d="M146.4,73.1c-.1,1.3-.2,2.3-.3,3.3-.1.9-.6,1.5-1.4,1.9-1.2.5-2.4.5-3.6,0-.6-.3-1.1-.8-1.2-1.5-.3-1.4-.6-2.9-.4-4.4,0-.9.2-1.8.3-2.7.1-1.1.8-1.7,1.8-1.9.8-.2,1.6-.3,2.5-.1,1.3.3,2,1,2.2,2.3.2,1.2.2,2.3.3,3.3h0Z"/>
      <path class="cls-7" d="M130.5,88c-.8,1.7-1.7,3.2-3,4.3-.4.4-.9.7-1.5.5-.3,0-.6,0-.9-.1v-5.5c1.8,0,3.6.3,5.4.8h0Z"/>
      <path class="cls-18" d="M124.2,92.7c-.5,0-.9.1-1.4.2-.1,0-.3,0-.4-.1-1.4-.9-2.3-2.2-3.1-3.7-.2-.3-.3-.7-.5-1,.9-.4,4.3-.9,5.4-.8v5.4h0Z"/>
      <path class="cls-15" d="M129.8,95.2c-3.5.8-6.9.8-10.3,0,2.8-2.1,7.3-2.1,10.3,0Z"/>
      <path class="cls-30" d="M127.9,93.2c1.6-1.3,2.7-3.1,3.6-5,1.1.5,2.3.9,3.5,1.4-.4.4-.7.7-1,1-1.3,1.1-2.7,2-4.3,2.7-.8.3-.8.3-1.7,0h0Z"/>
      <path class="cls-16" d="M121.4,93.2c-.5.3-1,.4-1.6.1-2-.9-3.8-2.1-5.4-3.7,1.2-.5,2.3-.9,3.5-1.4.9,1.9,1.9,3.7,3.6,5Z"/>
      <path class="cls-31" d="M111.3,91.5c.7-.4,1.3-.8,1.9-1.2.2-.1.4-.1.6,0,1.4,1.4,3,2.6,4.8,3.4.2.1.5.2.8.4-.3.2-.7.5-1,.7,0,0-.2,0-.3,0-2.4-.7-4.7-1.8-6.8-3.3h0Z"/>
      <path class="cls-27" d="M129.9,94.1c2.2-.9,4-2.2,5.6-3.8.2-.2.3-.2.4,0,.6.4,1.3.8,2,1.3-.6.4-1,.7-1.5,1-1.6,1-3.2,1.7-5,2.3-.3,0-.6.1-.8-.1-.2-.2-.5-.3-.8-.5Z"/>
      <path class="cls-36" d="M125.1,58.9v-5.5c.5,0,1.1-.2,1.6-.2.1,0,.3,0,.4.1,1.4,1,2.2,2.3,3,3.7.2.3.3.7.5,1-1.8.5-3.6.7-5.5.8h0Z"/>
      <path class="cls-35" d="M124.2,53.5v5.5c-1.8,0-3.7-.3-5.5-.8.9-1.8,1.8-3.5,3.5-4.7.1,0,.4-.2.6-.1.5,0,.9.1,1.4.2h0Z"/>
      <path class="cls-33" d="M119.4,50.9c3.6-.8,7-.8,10.6,0-2.9,2.1-7.5,2.2-10.6,0Z"/>
      <path class="cls-12" d="M117.8,57.9c-1.2-.5-2.3-.9-3.6-1.4.4-.4.8-.8,1.2-1.1,1.2-1,2.5-1.9,3.9-2.5.7-.3,1.2-.4,1.9,0-1.5,1.3-2.6,3-3.5,5Z"/>
      <path class="cls-20" d="M131.6,57.9c-.6-1-1-1.9-1.6-2.7-.6-.8-1.2-1.5-1.9-2.3.5-.3.9-.4,1.6-.1,2,.9,3.8,2.1,5.4,3.7-1.2.5-2.3,1-3.4,1.4h0Z"/>
      <path class="cls-5" d="M119.2,51.9c-1,.6-2.1,1.2-3,1.8s-1.8,1.5-2.7,2.3c-.7-.4-1.4-.9-2.2-1.4.5-.3.9-.6,1.4-.9,1.6-1,3.3-1.8,5.1-2.4.3,0,.5-.1.7.1.2.2.5.3.7.5Z"/>
      <path class="cls-13" d="M138,54.6c-.8.5-1.5,1-2.2,1.4-1.7-1.7-3.5-3.1-5.8-4.1.4-.3.7-.5,1-.7,0,0,.2,0,.3,0,2.3.7,4.5,1.8,6.5,3.2,0,0,0,0,.2.1h0Z"/>
      <path class="cls-19" d="M102,100.4c0,1.2-.6,1.8-1.5,1.9-1.5,0-2.2-1.1-1.7-2.7.2-.6.6-.9,1.2-1,.7,0,1.3,0,1.6.7.2.3.2.7.4,1.1h0Z"/>
      <path class="cls-28" d="M115.7,102.1c-.1.6-.2,1.3-.4,2-.2.8-.8,1.2-1.4,1.2-.6,0-1.2-.4-1.4-1.1-.5-1.6-.5-3.1,0-4.7.2-.6.7-.9,1.3-.9s1.1.4,1.3,1c0,.2.2.4.2.7,0,.6.2,1.2.2,1.9h0Z"/>
      <path class="cls-39" d="M135.5,102c.1-.8.2-1.6.5-2.3.2-.7.7-1,1.3-1.1.7,0,1.1.3,1.4,1,.4.9.4,1.9.4,2.9,0,.6-.2,1.2-.4,1.7-.2.7-.8,1.1-1.4,1.1s-1.1-.4-1.3-1.1c-.2-.8-.3-1.5-.5-2.3h0Z"/>
      <path class="cls-1" d="M108.9,102.2c-.1.7-.2,1.5-.4,2.3-.2.8-.8,1.2-1.4,1.1-.7,0-1.2-.5-1.4-1.2-.4-1.1-.4-2.2-.3-3.2,0-.4.1-.9.2-1.3.3-.9.8-1.3,1.5-1.3.7,0,1.2.5,1.4,1.4.2.7.2,1.5.3,2.3h0Z"/>
    </g>
    <g>
      <path class="cls-34" d="M37,157l-1.3-1.5c-.3,0-.7.1-1.1.1-.8,0-1.5-.2-2.2-.6-.7-.4-1.2-.9-1.6-1.5s-.6-1.4-.6-2.2.2-1.6.6-2.2c.4-.6.9-1.2,1.6-1.5s1.4-.6,2.2-.6,1.5.2,2.2.6c.7.4,1.2.9,1.5,1.5.4.7.6,1.4.6,2.2s-.2,1.4-.5,2-.8,1.1-1.3,1.5l1.9,2.2h-2.1,0ZM32.3,152.8c.2.4.5.8.9,1s.8.3,1.3.3,1-.1,1.3-.3.7-.6.9-1c.2-.4.3-.9.3-1.5s-.1-1.1-.3-1.5c-.2-.4-.5-.8-.9-1-.4-.2-.8-.3-1.3-.3s-1,.1-1.3.3-.7.6-.9,1-.3.9-.3,1.5.1,1.1.3,1.5Z"/>
      <path class="cls-34" d="M41.8,147.1v5.2c0,.6.2,1,.5,1.3s.7.4,1.2.4,1-.1,1.3-.4.5-.7.5-1.3v-5.2h1.7v5.2c0,.7-.2,1.3-.5,1.8s-.7.9-1.2,1.1c-.5.2-1.1.4-1.7.4s-1.2-.1-1.7-.4-.9-.6-1.2-1.1-.5-1.1-.5-1.8v-5.2h1.7,0Z"/>
      <path class="cls-34" d="M53.7,153.9h-3.3l-.5,1.6h-1.8l3-8.4h2l3,8.4h-1.8l-.5-1.6h0ZM53.3,152.6l-1.2-3.5-1.2,3.5h2.4Z"/>
      <path class="cls-34" d="M58.9,154.2h2.8v1.3h-4.5v-8.4h1.7v7.1h0Z"/>
      <path class="cls-34" d="M64.4,147.1v8.4h-1.7v-8.4h1.7Z"/>
      <path class="cls-34" d="M71.8,147.1v1.4h-2.2v7.1h-1.7v-7.1h-2.2v-1.4h6.2Z"/>
      <path class="cls-34" d="M79.7,147.1l-2.8,5.5v2.9h-1.7v-2.9l-2.9-5.5h1.9l1.8,3.9,1.8-3.9h1.9Z"/>
      <path class="cls-34" d="M92.8,147.1v8.4h-1.7v-5.5l-2.2,5.5h-1.3l-2.3-5.5v5.5h-1.7v-8.4h1.9l2.7,6.3,2.7-6.3h1.9Z"/>
      <path class="cls-34" d="M99.6,153.9h-3.3l-.6,1.6h-1.8l3-8.4h2l3,8.4h-1.8l-.6-1.6h0ZM99.1,152.6l-1.2-3.5-1.2,3.5h2.4Z"/>
      <path class="cls-34" d="M110.2,155.5h-1.7l-3.8-5.8v5.8h-1.7v-8.4h1.7l3.8,5.8v-5.8h1.7v8.4Z"/>
      <path class="cls-34" d="M117.1,153.9h-3.3l-.6,1.6h-1.8l3-8.4h2l3,8.4h-1.8l-.6-1.6h0ZM116.6,152.6l-1.2-3.5-1.2,3.5h2.4Z"/>
      <path class="cls-34" d="M126.4,149.6c-.2-.4-.5-.6-.8-.8-.3-.2-.7-.3-1.2-.3s-.9.1-1.3.3-.7.6-.9,1-.3.9-.3,1.4.1,1.1.3,1.5.5.7.9,1c.4.2.8.3,1.4.3s1.2-.2,1.6-.5.7-.8.8-1.4h-2.9v-1.3h4.6v1.5c-.1.6-.4,1.1-.7,1.6-.4.5-.8.9-1.4,1.2s-1.2.4-2,.4-1.6-.2-2.2-.6-1.2-.9-1.5-1.5c-.4-.6-.6-1.4-.6-2.2s.2-1.6.6-2.2c.4-.6.9-1.2,1.5-1.5s1.4-.6,2.2-.6,1.8.2,2.5.7c.7.5,1.2,1.1,1.4,1.9h-1.9,0Z"/>
      <path class="cls-34" d="M135,153.9h-3.4l-.6,1.6h-1.8l3-8.4h2l3,8.4h-1.8l-.6-1.6h0ZM134.5,152.6l-1.2-3.5-1.2,3.5h2.4Z"/>
      <path class="cls-34" d="M147.6,147.1v8.4h-1.7v-5.5l-2.2,5.5h-1.3l-2.3-5.5v5.5h-1.7v-8.4h1.9l2.7,6.3,2.7-6.3h1.9Z"/>
      <path class="cls-34" d="M150.9,148.5v2.1h2.8v1.3h-2.8v2.2h3.2v1.4h-4.9v-8.4h4.9v1.4h-3.2Z"/>
      <path class="cls-34" d="M162.9,155.5h-1.7l-3.8-5.8v5.8h-1.7v-8.4h1.7l3.8,5.8v-5.8h1.7v8.4Z"/>
      <path class="cls-34" d="M170.3,147.1v1.4h-2.2v7.1h-1.7v-7.1h-2.2v-1.4h6.2Z"/>
      <path class="cls-34" d="M175.7,155.3c-.5-.2-.8-.5-1.1-.9s-.4-.8-.4-1.3h1.8c0,.4.1.6.4.8.2.2.5.3.9.3s.7-.1.9-.3c.2-.2.3-.4.3-.7s0-.4-.2-.6-.3-.3-.6-.4c-.2,0-.5-.2-.9-.3-.6-.2-1-.3-1.3-.5-.3-.2-.6-.4-.9-.7-.2-.3-.4-.7-.4-1.3s.1-.9.4-1.3c.2-.4.6-.6,1.1-.9.4-.2,1-.3,1.5-.3.9,0,1.6.2,2.1.6.5.4.8,1,.9,1.8h-1.9c0-.3-.1-.5-.4-.7s-.5-.3-.9-.3-.6,0-.8.2-.3.4-.3.7,0,.4.2.6.3.3.6.4.5.2.9.3c.6.2,1,.3,1.3.5s.6.4.9.7.4.7.4,1.3-.1.9-.4,1.2-.6.7-1,.9-1,.3-1.6.3-1.1-.1-1.6-.3h0Z"/>
      <path class="cls-34" d="M188.4,147.1l-2.9,5.5v2.9h-1.7v-2.9l-2.9-5.5h1.9l1.8,3.9,1.8-3.9h1.9Z"/>
      <path class="cls-34" d="M190.7,155.3c-.5-.2-.8-.5-1.1-.9s-.4-.8-.4-1.3h1.8c0,.4.1.6.4.8.2.2.5.3.9.3s.7-.1.9-.3c.2-.2.3-.4.3-.7s0-.4-.2-.6-.3-.3-.6-.4c-.2,0-.5-.2-.9-.3-.6-.2-1-.3-1.3-.5-.3-.2-.6-.4-.9-.7-.2-.3-.4-.7-.4-1.3s.1-.9.4-1.3c.2-.4.6-.6,1.1-.9.4-.2,1-.3,1.5-.3.9,0,1.6.2,2.1.6.5.4.8,1,.9,1.8h-1.9c0-.3-.1-.5-.4-.7s-.5-.3-.9-.3-.6,0-.8.2-.3.4-.3.7,0,.4.2.6.3.3.6.4.5.2.9.3c.6.2,1,.3,1.3.5s.6.4.9.7.4.7.4,1.3-.1.9-.4,1.2-.6.7-1,.9-1,.3-1.6.3-1.1-.1-1.6-.3h0Z"/>
      <path class="cls-34" d="M202.4,147.1v1.4h-2.2v7.1h-1.7v-7.1h-2.2v-1.4h6.2Z"/>
      <path class="cls-34" d="M205.4,148.5v2.1h2.8v1.3h-2.8v2.2h3.2v1.4h-4.9v-8.4h4.9v1.4h-3.2Z"/>
      <path class="cls-34" d="M219.2,147.1v8.4h-1.7v-5.5l-2.2,5.5h-1.3l-2.3-5.5v5.5h-1.7v-8.4h1.9l2.7,6.3,2.7-6.3h1.9Z"/>
    </g>
  </g>
</svg>