<?xml version="1.0" encoding="UTF-8"?>
<svg id="Layer_1" data-name="Layer 1" xmlns="http://www.w3.org/2000/svg" xmlns:xlink="http://www.w3.org/1999/xlink" viewBox="0 0 250 180">
  <defs>
    <style>
      .cls-1 {
        fill: url(#linear-gradient-2);
      }

      .cls-2 {
        fill: #fff;
      }

      .cls-3 {
        fill: url(#linear-gradient-17);
      }

      .cls-4 {
        fill: url(#linear-gradient-15);
      }

      .cls-5 {
        fill: url(#linear-gradient-18);
      }

      .cls-6 {
        fill: url(#linear-gradient-40);
      }

      .cls-7 {
        fill: url(#linear-gradient-28);
      }

      .cls-8 {
        fill: url(#linear-gradient-14);
      }

      .cls-9 {
        fill: url(#linear-gradient-36);
      }

      .cls-10 {
        fill: url(#linear-gradient-20);
      }

      .cls-11 {
        fill: url(#linear-gradient-6);
      }

      .cls-12 {
        fill: url(#linear-gradient-35);
      }

      .cls-13 {
        fill: url(#linear-gradient-32);
      }

      .cls-14 {
        fill: url(#linear-gradient-11);
      }

      .cls-15 {
        fill: url(#linear-gradient-39);
      }

      .cls-16 {
        fill: url(#linear-gradient-10);
      }

      .cls-17 {
        fill: url(#linear-gradient-37);
      }

      .cls-18 {
        fill: url(#linear-gradient-16);
      }

      .cls-19 {
        fill: url(#linear-gradient-31);
      }

      .cls-20 {
        fill: url(#linear-gradient-21);
      }

      .cls-21 {
        fill: url(#linear-gradient-25);
      }

      .cls-22 {
        fill: url(#linear-gradient-5);
      }

      .cls-23 {
        fill: url(#linear-gradient-34);
      }

      .cls-24 {
        fill: url(#linear-gradient-7);
      }

      .cls-25 {
        fill: url(#linear-gradient-24);
      }

      .cls-26 {
        fill: url(#linear-gradient-9);
      }

      .cls-27 {
        fill: url(#linear-gradient-22);
      }

      .cls-28 {
        fill: url(#linear-gradient-3);
      }

      .cls-29 {
        fill: url(#linear-gradient);
      }

      .cls-30 {
        fill: url(#linear-gradient-27);
      }

      .cls-31 {
        fill: url(#linear-gradient-33);
      }

      .cls-32 {
        fill: url(#linear-gradient-38);
      }

      .cls-33 {
        fill: url(#linear-gradient-29);
      }

      .cls-34 {
        fill: url(#linear-gradient-30);
      }

      .cls-35 {
        fill: url(#linear-gradient-23);
      }

      .cls-36 {
        fill: url(#linear-gradient-19);
      }

      .cls-37 {
        fill: url(#linear-gradient-4);
      }

      .cls-38 {
        fill: url(#linear-gradient-8);
      }

      .cls-39 {
        fill: url(#linear-gradient-12);
      }

      .cls-40 {
        fill: url(#linear-gradient-13);
      }

      .cls-41 {
        fill: url(#linear-gradient-26);
      }
    </style>
    <linearGradient id="linear-gradient" x1="125.86" y1="-37.19" x2="124.31" y2="191.84" gradientUnits="userSpaceOnUse">
      <stop offset="0" stop-color="#0f5620"/>
      <stop offset="1" stop-color="#093413"/>
    </linearGradient>
    <linearGradient id="linear-gradient-2" x1="68.74" y1="76.41" x2="181.03" y2="76.41" gradientUnits="userSpaceOnUse">
      <stop offset="0" stop-color="#e6b26e"/>
      <stop offset="1" stop-color="#fec53f"/>
    </linearGradient>
    <linearGradient id="linear-gradient-3" x1="112.36" y1="124.65" x2="121.12" y2="124.65" xlink:href="#linear-gradient-2"/>
    <linearGradient id="linear-gradient-4" x1="144.2" y1="119.03" x2="153.53" y2="119.03" xlink:href="#linear-gradient-2"/>
    <linearGradient id="linear-gradient-5" x1="101.03" y1="121.05" x2="108.88" y2="121.05" xlink:href="#linear-gradient-2"/>
    <linearGradient id="linear-gradient-6" x1="107.76" y1="30.2" x2="115.98" y2="30.2" xlink:href="#linear-gradient-2"/>
    <linearGradient id="linear-gradient-7" x1="153.1" y1="40.85" x2="161.99" y2="40.85" xlink:href="#linear-gradient-2"/>
    <linearGradient id="linear-gradient-8" x1="145.53" y1="35.31" x2="154.47" y2="35.31" xlink:href="#linear-gradient-2"/>
    <linearGradient id="linear-gradient-9" x1="98.06" y1="33.71" x2="106.93" y2="33.71" xlink:href="#linear-gradient-2"/>
    <linearGradient id="linear-gradient-10" x1="135.93" y1="123.79" x2="142.99" y2="123.79" xlink:href="#linear-gradient-2"/>
    <linearGradient id="linear-gradient-11" x1="125.26" y1="125.25" x2="131.28" y2="125.25" xlink:href="#linear-gradient-2"/>
    <linearGradient id="linear-gradient-12" x1="90.04" y1="39.43" x2="97.77" y2="39.43" xlink:href="#linear-gradient-2"/>
    <linearGradient id="linear-gradient-13" x1="91.11" y1="115.08" x2="98.9" y2="115.08" xlink:href="#linear-gradient-2"/>
    <linearGradient id="linear-gradient-14" x1="132.8" y1="29.1" x2="139.99" y2="29.1" xlink:href="#linear-gradient-2"/>
    <linearGradient id="linear-gradient-15" x1="152.67" y1="111.66" x2="161.08" y2="111.66" xlink:href="#linear-gradient-2"/>
    <linearGradient id="linear-gradient-16" x1="118.1" y1="28.22" x2="124.46" y2="28.22" xlink:href="#linear-gradient-2"/>
    <linearGradient id="linear-gradient-17" x1="140.86" y1="31.75" x2="145.28" y2="31.75" xlink:href="#linear-gradient-2"/>
    <linearGradient id="linear-gradient-18" x1="127.74" y1="28.29" x2="129.93" y2="28.29" xlink:href="#linear-gradient-2"/>
    <linearGradient id="linear-gradient-19" x1="139.15" y1="70.18" x2="146.2" y2="70.18" xlink:href="#linear-gradient-2"/>
    <linearGradient id="linear-gradient-20" x1="125.04" y1="87.13" x2="130.43" y2="87.13" xlink:href="#linear-gradient-2"/>
    <linearGradient id="linear-gradient-21" x1="118.74" y1="87.13" x2="124.11" y2="87.13" xlink:href="#linear-gradient-2"/>
    <linearGradient id="linear-gradient-22" x1="119.44" y1="91.76" x2="129.73" y2="91.76" xlink:href="#linear-gradient-2"/>
    <linearGradient id="linear-gradient-23" x1="127.77" y1="87.93" x2="134.81" y2="87.93" xlink:href="#linear-gradient-2"/>
    <linearGradient id="linear-gradient-24" x1="114.35" y1="87.91" x2="121.37" y2="87.91" xlink:href="#linear-gradient-2"/>
    <linearGradient id="linear-gradient-25" x1="111.31" y1="89.57" x2="119.34" y2="89.57" xlink:href="#linear-gradient-2"/>
    <linearGradient id="linear-gradient-26" x1="129.79" y1="89.56" x2="137.85" y2="89.56" xlink:href="#linear-gradient-2"/>
    <linearGradient id="linear-gradient-27" x1="125.04" y1="53.27" x2="130.49" y2="53.27" xlink:href="#linear-gradient-2"/>
    <linearGradient id="linear-gradient-28" x1="118.65" y1="53.28" x2="124.12" y2="53.28" xlink:href="#linear-gradient-2"/>
    <linearGradient id="linear-gradient-29" x1="119.29" y1="48.59" x2="129.85" y2="48.59" xlink:href="#linear-gradient-2"/>
    <linearGradient id="linear-gradient-30" x1="114.23" y1="52.46" x2="121.22" y2="52.46" xlink:href="#linear-gradient-2"/>
    <linearGradient id="linear-gradient-31" x1="128" y1="52.44" x2="134.89" y2="52.44" xlink:href="#linear-gradient-2"/>
    <linearGradient id="linear-gradient-32" x1="111.23" y1="50.8" x2="119.12" y2="50.8" xlink:href="#linear-gradient-2"/>
    <linearGradient id="linear-gradient-33" x1="129.94" y1="50.82" x2="137.91" y2="50.82" xlink:href="#linear-gradient-2"/>
    <linearGradient id="linear-gradient-34" x1="83.21" y1="76.41" x2="167.31" y2="76.41" xlink:href="#linear-gradient-2"/>
    <linearGradient id="linear-gradient-35" x1="98.38" y1="100.35" x2="100.63" y2="100.35" xlink:href="#linear-gradient-2"/>
    <linearGradient id="linear-gradient-36" x1="116.72" y1="100.88" x2="119.54" y2="100.88" xlink:href="#linear-gradient-2"/>
    <linearGradient id="linear-gradient-37" x1="110.6" y1="100.88" x2="113.42" y2="100.88" xlink:href="#linear-gradient-2"/>
    <linearGradient id="linear-gradient-38" x1="148.6" y1="99.36" x2="151.09" y2="99.36" xlink:href="#linear-gradient-2"/>
    <linearGradient id="linear-gradient-39" x1="148.41" y1="102.49" x2="151.24" y2="102.49" xlink:href="#linear-gradient-2"/>
    <linearGradient id="linear-gradient-40" x1="138.98" y1="100.88" x2="141.8" y2="100.88" xlink:href="#linear-gradient-2"/>
  </defs>
  <rect class="cls-29" x="-7.78" y="-9.19" width="265.56" height="198.39"/>
  <g>
    <path class="cls-1" d="m124.9,132.56c-31.05,0-56.2-25.12-56.17-56.19.04-30.83,24.48-55,53.83-56.07,15.97-.58,29.89,4.67,41.37,15.8,11.32,10.96,17.04,24.49,17.08,40.25.08,31.08-25.09,56.22-56.12,56.21Zm-.01-111.12c-30.35-.01-55.09,24.66-54.97,55.22.13,30.14,24.6,54.7,54.95,54.71,30.34.01,54.93-24.56,54.98-54.8.05-30.51-24.54-55.13-54.96-55.13Z"/>
    <path class="cls-28" d="m113.8,128.1c-.48-.09-.94-.17-1.44-.26.19-1.1.37-2.18.56-3.25.23-1.37.47-2.74.69-4.11.04-.27.14-.34.39-.29.54.11,1.09.21,1.63.28.26.03.34.13.35.38.06,1.15.13,2.29.21,3.44.05.82.1,1.64.23,2.47.05-.1.12-.19.16-.3.7-1.7,1.41-3.39,2.1-5.09.11-.28.27-.36.54-.3.61.12,1.22.22,1.89.35-.43,2.55-.86,5.1-1.31,7.7-.48-.08-.93-.16-1.44-.24.36-2.13.72-4.23,1.07-6.32l-.06-.03c-.06.13-.13.26-.19.4-.74,1.8-1.48,3.59-2.21,5.4-.09.23-.21.33-.45.25-.06-.02-.13-.04-.2-.05-1.02-.17-1.02-.17-1.07-1.18-.08-1.8-.17-3.59-.26-5.39,0-.05-.02-.09-.12-.15-.36,2.09-.71,4.17-1.07,6.3Z"/>
    <path class="cls-37" d="m149.3,123.27c-.42.24-.83.47-1.26.71-1.28-2.28-2.55-4.53-3.84-6.82.46-.26.88-.51,1.33-.73.09-.04.25,0,.35.06,1.61.96,3.22,1.93,4.83,2.89.1.06.2.11.36.1-.87-1.56-1.75-3.11-2.64-4.7.43-.24.83-.48,1.26-.72,1.28,2.28,2.55,4.53,3.84,6.82-.41.24-.81.49-1.23.69-.11.05-.31-.01-.43-.09-1.67-.98-3.32-1.97-4.99-2.95-.06-.03-.11-.06-.26-.04.89,1.58,1.78,3.17,2.68,4.78Z"/>
    <path class="cls-22" d="m101.03,121.49c.1-1.3.57-2.55,1.55-3.56,1.07-1.1,2.41-1.33,3.91-.72,2.04.83,2.86,2.67,2.12,4.75-.36,1.01-.85,1.93-1.73,2.58-1.36,1-2.73.79-4.1.02-1.17-.65-1.71-1.67-1.75-3.08Zm6.27-.93c-.01-.94-.32-1.57-1.05-1.97-.75-.41-1.5-.41-2.17.12-.98.77-1.46,1.85-1.47,3.08-.01.86.46,1.47,1.26,1.82.75.32,1.45.22,2.05-.29.87-.75,1.26-1.76,1.38-2.75Z"/>
    <path class="cls-11" d="m111.36,34.12c-.51.15-.96.28-1.47.42-.71-2.5-1.41-4.99-2.13-7.52.43-.12.84-.24,1.25-.36.94-.26,1.87-.55,2.81-.76,1.76-.39,2.91,1.28,2.53,2.71-.09.35-.35.65-.54,1,.96.1,1.17.9,1.42,1.69.16.51.17,1.12.76,1.41,0,.04,0,.07,0,.11-.53.14-1.06.3-1.6.42-.06.01-.19-.14-.23-.24-.18-.45-.33-.91-.5-1.37-.05-.14-.09-.28-.15-.42-.25-.55-.5-.71-1.09-.58-.62.13-1.22.33-1.87.51.15.52.29,1.01.42,1.5.13.48.26.96.41,1.48Zm-1.16-4.14c.78-.24,1.5-.44,2.2-.71.48-.18.62-.59.5-1.1-.14-.58-.51-1.01-.95-.93-.79.14-1.55.37-2.37.58.21.75.41,1.41.62,2.16Z"/>
    <path class="cls-24" d="m153.1,42.09c1.8-1.91,3.57-3.77,5.36-5.67.19.18.38.35.56.52.68.65,1.38,1.29,2.05,1.96,1.02,1.04,1.21,2.19.52,3.48-.69,1.31-1.72,2.28-3.16,2.74-.94.29-1.84.16-2.59-.49-.92-.81-1.8-1.66-2.74-2.53Zm2.03.12c.44.41.85.81,1.28,1.18.43.37.95.46,1.49.27,1.19-.42,1.97-1.3,2.49-2.41.22-.47.15-.95-.2-1.33-.45-.51-.95-.99-1.46-1.51-1.22,1.29-2.38,2.52-3.6,3.8Z"/>
    <path class="cls-38" d="m154.47,33.41c-.25.41-.47.77-.7,1.14-1.18-.72-2.35-1.43-3.55-2.15-.3.49-.59.95-.9,1.46,1.09.67,2.16,1.32,3.26,1.99-.22.37-.43.72-.67,1.12-1.08-.65-2.14-1.3-3.26-1.98-.36.59-.71,1.16-1.08,1.77,1.25.76,2.47,1.51,3.71,2.27-.23.38-.46.75-.7,1.15-1.68-1.02-3.35-2.03-5.04-3.06,1.36-2.23,2.7-4.43,4.06-6.67,1.63.99,3.24,1.97,4.88,2.97Z"/>
    <path class="cls-26" d="m104.22,31.79c.21.39.41.76.62,1.15-1.12.6-2.23,1.19-3.37,1.8.33.62.64,1.2.97,1.83,1.29-.68,2.55-1.35,3.84-2.04.21.39.41.76.64,1.19-1.73.92-3.45,1.83-5.21,2.77-1.23-2.31-2.43-4.58-3.66-6.89,1.68-.89,3.33-1.77,5.03-2.67.21.39.4.77.62,1.17-1.22.65-2.42,1.29-3.66,1.95.27.51.52.99.8,1.52,1.13-.6,2.23-1.18,3.37-1.78Z"/>
    <path class="cls-16" d="m142.99,126.11c-.51.15-.98.3-1.46.42-.09.02-.25-.08-.31-.17-.23-.31-.43-.66-.67-.97-.07-.1-.27-.18-.38-.15-.78.2-1.56.42-2.33.67-.11.03-.23.21-.25.34-.05.46-.05.92-.08,1.42-.5.14-1.01.29-1.57.46.04-.78.08-1.49.12-2.2.1-1.62.23-3.24.31-4.85.06-1.2.04-1.2,1.17-1.53.67-.19.67-.19,1.08.38,1.42,1.99,2.83,3.99,4.25,5.98.04.05.07.11.13.2Zm-5.36-1.49c.7-.2,1.34-.39,2.03-.59-.63-.93-1.21-1.8-1.79-2.67-.03.02-.06.03-.09.05-.05,1.05-.09,2.09-.14,3.21Z"/>
    <path class="cls-14" d="m127.35,129.15c-.53.04-1.01.07-1.56.11-.18-2.61-.35-5.17-.53-7.78.75-.06,1.47-.11,2.19-.16.47-.03.94-.08,1.41-.08,1.44,0,2.3.79,2.41,2.23.02.24.02.49,0,.73-.07.99-.59,1.67-1.56,1.87-.72.15-1.47.19-2.21.25-.29.02-.37.11-.33.4.06.4.07.81.1,1.21.03.4.05.8.07,1.25Zm-.44-6.5c.06.82.12,1.59.18,2.39.63-.05,1.21-.07,1.78-.16.62-.1.88-.56.82-1.32-.04-.61-.4-.99-1-.99-.57,0-1.15.05-1.78.09Z"/>
    <path class="cls-39" d="m95.59,36.25c-.36.31-.68.6-1.03.86-.09.07-.29.08-.38.02-.84-.49-1.48-.22-2.04.28-.61.54-.7,1.24-.43,1.97.35.95.97,1.72,1.83,2.26,1.14.7,2.54.13,2.75-1.13.05-.31-.1-.65-.13-.99-.01-.13.01-.32.1-.4.3-.29.63-.55.95-.82.64.75.91,2.6-.18,3.82-1.43,1.6-3.41,1.76-5.04.36-.89-.76-1.57-1.67-1.86-2.83-.35-1.43.25-2.74,1.67-3.68,1.11-.73,2.48-.72,3.49.04.09.06.16.14.29.25Z"/>
    <path class="cls-40" d="m98.44,116.04c-.19-.14-.34-.27-.51-.38-.44-.3-.73-.56-.57-1.24.25-1.13-1.1-2.13-2.26-1.78-1.13.34-2.42,1.95-2.48,3.12-.04.7.26,1.25.87,1.63.58.36,1.14.36,1.72,0,.11-.07.23-.14.38-.23.39.3.79.61,1.23.95-.98.83-2.05,1.23-3.25.79-1.39-.51-2.34-1.47-2.46-3.02-.04-.51.06-1.06.25-1.54.5-1.27,1.33-2.28,2.57-2.91,2.41-1.22,4.92,1.05,4.96,2.87.01.56-.13,1.24-.46,1.74Z"/>
    <path class="cls-8" d="m134.33,33.08c-.52-.12-1-.24-1.53-.37.6-2.52,1.2-5.04,1.8-7.6,1.8.43,3.58.85,5.39,1.28-.1.43-.19.82-.3,1.26-1.28-.3-2.53-.6-3.85-.91-.15.61-.3,1.2-.45,1.84,1.14.27,2.24.54,3.38.81-.1.43-.19.82-.3,1.26-.83-.2-1.63-.38-2.42-.58-.97-.24-.96-.25-1.18.71-.17.76-.36,1.52-.54,2.3Z"/>
    <path class="cls-4" d="m161.08,114.89c-.4.37-.77.7-1.16,1.06-.57-.62-1.1-1.24-1.68-1.83-.2-.2-.46-.38-.72-.47-1.59-.56-3.19-1.09-4.84-1.64.44-.41.85-.8,1.28-1.16.08-.07.3-.02.43.03.98.39,1.95.79,2.92,1.19.06.02.12.04.27.08-.18-.58-.34-1.1-.51-1.62-.18-.58-.38-1.15-.55-1.73-.03-.11,0-.3.08-.37.35-.35.73-.68,1.14-1.05.16.61.32,1.17.46,1.74.28,1.12.55,2.25.84,3.37.04.16.15.32.26.44.57.65,1.15,1.28,1.77,1.95Z"/>
    <path class="cls-18" d="m122.56,32.14c-.56.04-1.03.08-1.57.12-.15-2.17-.29-4.29-.44-6.46-.8.05-1.56.09-2.35.13-.03-.45-.06-.85-.1-1.31,2.08-.15,4.15-.3,6.26-.45.03.44.06.86.09,1.32-.78.06-1.53.12-2.34.18.15,2.16.29,4.28.44,6.45Z"/>
    <path class="cls-3" d="m143.81,27.84c.5.2.96.38,1.47.59-.98,2.41-1.96,4.8-2.95,7.24-.49-.2-.95-.39-1.47-.6.98-2.41,1.96-4.8,2.95-7.23Z"/>
    <path class="cls-5" d="m129.31,32.25c-.53-.04-1.02-.08-1.57-.12.21-2.6.42-5.17.63-7.8.53.04,1.03.09,1.56.13-.21,2.61-.41,5.18-.62,7.79Z"/>
    <path class="cls-36" d="m146.2,70.27c-.12,1.26-.19,2.26-.31,3.25-.11.89-.6,1.54-1.44,1.86-1.19.46-2.4.47-3.59-.02-.65-.27-1.1-.76-1.23-1.46-.27-1.45-.58-2.89-.45-4.38.08-.9.19-1.8.3-2.7.13-1.05.76-1.65,1.75-1.95.82-.24,1.64-.32,2.48-.14,1.28.28,2,.98,2.17,2.29.15,1.16.23,2.33.32,3.25Z"/>
    <path class="cls-10" d="m130.43,85.08c-.78,1.65-1.66,3.15-3.03,4.32-.43.36-.85.69-1.49.49-.26-.09-.56-.07-.87-.11v-5.45c1.83.03,3.59.29,5.38.76Z"/>
    <path class="cls-20" d="m124.11,89.76c-.46.06-.91.14-1.37.18-.14.01-.32-.06-.44-.14-1.38-.92-2.28-2.24-3.06-3.66-.18-.33-.34-.67-.51-1.01.88-.39,4.25-.88,5.37-.78v5.42Z"/>
    <path class="cls-27" d="m129.73,92.25c-3.47.77-6.86.77-10.29,0,2.82-2.05,7.33-2.1,10.29,0Z"/>
    <path class="cls-35" d="m127.77,90.25c1.64-1.33,2.67-3.07,3.56-4.97,1.15.46,2.27.91,3.48,1.4-.4.37-.71.67-1.04.96-1.28,1.14-2.72,2.03-4.31,2.68-.82.33-.82.33-1.7-.08Z"/>
    <path class="cls-25" d="m121.37,90.25c-.54.32-1.03.38-1.62.13-2.02-.85-3.79-2.05-5.4-3.69,1.18-.48,2.31-.94,3.46-1.41.9,1.91,1.93,3.65,3.56,4.96Z"/>
    <path class="cls-21" d="m111.31,88.56c.69-.43,1.32-.82,1.94-1.22.22-.14.36-.13.55.07,1.4,1.41,2.97,2.58,4.78,3.42.24.11.49.22.77.36-.35.24-.67.47-1.01.68-.07.04-.19.04-.27.02-2.41-.71-4.64-1.81-6.76-3.33Z"/>
    <path class="cls-41" d="m129.79,91.18c2.17-.9,4.01-2.19,5.61-3.81.16-.16.28-.16.45-.05.64.41,1.28.8,2.01,1.25-.55.36-1.04.69-1.53,1-1.56.96-3.22,1.69-4.97,2.25-.31.1-.55.1-.81-.13-.21-.19-.46-.32-.75-.51Z"/>
    <path class="cls-30" d="m125.04,56.1v-5.44c.54-.08,1.06-.16,1.58-.21.13-.01.28.06.4.14,1.35.96,2.22,2.3,2.98,3.73.17.32.32.64.49,1-1.8.49-3.6.72-5.45.78Z"/>
    <path class="cls-7" d="m124.12,50.66v5.44c-1.84-.05-3.65-.29-5.47-.77.87-1.82,1.82-3.52,3.47-4.72.14-.1.37-.15.55-.14.47.04.94.12,1.45.2Z"/>
    <path class="cls-33" d="m119.29,48.08c3.54-.82,7.02-.82,10.56,0-2.89,2.13-7.48,2.23-10.56,0Z"/>
    <path class="cls-34" d="m117.77,55.11c-1.17-.48-2.3-.94-3.54-1.44.44-.41.8-.76,1.17-1.09,1.18-1.04,2.51-1.86,3.94-2.52.64-.3,1.24-.42,1.88.07-1.54,1.33-2.58,3.04-3.45,4.98Z"/>
    <path class="cls-19" d="m131.45,55.09c-.56-.97-1.01-1.88-1.58-2.71-.56-.82-1.25-1.55-1.88-2.31.46-.26.95-.38,1.56-.11,2,.88,3.75,2.08,5.34,3.72-1.19.49-2.33.95-3.44,1.41Z"/>
    <path class="cls-13" d="m119.12,49.09c-1.02.61-2.06,1.15-3.02,1.82-.94.67-1.79,1.47-2.74,2.26-.65-.41-1.36-.87-2.14-1.37.5-.33.94-.64,1.39-.92,1.6-1,3.31-1.77,5.1-2.36.28-.09.5-.11.74.11.21.19.46.33.67.47Z"/>
    <path class="cls-31" d="m137.91,51.79c-.76.49-1.47.95-2.2,1.42-1.65-1.73-3.53-3.12-5.76-4.06.36-.26.66-.49.99-.7.07-.05.21-.04.3,0,2.33.73,4.51,1.79,6.5,3.22.04.03.09.06.18.13Z"/>
    <g>
      <path class="cls-23" d="m125.26,34.36c-23.2,0-42.03,18.79-42.05,41.96-.02,23.31,18.76,42.13,42.03,42.14,23.27,0,42.03-18.75,42.07-42.05.04-23.19-18.82-42.04-42.04-42.04Zm-14.94,17c4.01-3.04,8.55-4.64,13.57-4.79,9.58-.28,17.12,5.18,20.54,10.96-.72.18-.92.11-1.34-.47-1.16-1.63-2.5-3.09-4.04-4.37-.13-.11-.27-.22-.41-.32-.78.51-1.53,1-2.33,1.52.91,1.15,1.8,2.32,2.47,3.67-.12.02-.17.02-.22.03-.56.12-.86-.14-1.15-.61-.57-.92-1.24-1.79-1.83-2.64-1.35.56-2.59,1.08-3.85,1.61.18.51.37,1.04.58,1.63-.32,0-.58.02-.82-.01-.08-.01-.18-.15-.22-.24-.15-.37-.28-.75-.42-1.14-.91.18-1.79.39-2.68.52-.84.13-1.69.19-2.54.25-.59.04-.59.02-.68.61h-.8c-.02-.19-.03-.36-.04-.45-1.95-.28-3.88-.56-5.87-.84-.08.22-.23.54-.32.88-.09.34-.26.51-.63.44-.13-.02-.27,0-.49,0,.21-.59.4-1.12.58-1.64-1.26-.52-2.51-1.04-3.84-1.6-.56.78-1.15,1.6-1.73,2.42-.04.05-.07.11-.11.17q-.45.72-1.38.61c.68-1.33,1.53-2.51,2.47-3.65-.74-.5-1.45-.99-2.19-1.46-.08-.05-.32.06-.43.16-1.58,1.29-2.99,2.75-4.11,4.45-.38.57-.82.58-1.44.5,1.54-2.45,3.43-4.5,5.69-6.21Zm5.89,28.71c.01.26-.07.36-.35.36-1.28-.01-2.57,0-3.85,0-.22,0-.36-.03-.36-.3,0-2.37,0-4.73.01-7.1,0-.03.02-.05.04-.12.1-.01.22-.03.33-.03,1.14,0,2.27,0,3.41,0,.15,0,.37.08.43.19.91,1.49,2.29,2.29,3.93,2.72,1.28.33,2.58.49,3.88.13.42-.12.91-.25.93-.77.02-.49-.46-.64-.83-.76-1.46-.47-2.94-.91-4.41-1.37-1.22-.38-2.47-.72-3.66-1.19-1.52-.6-2.78-1.58-3.59-3.03-1.47-2.64-.63-6.77,2.46-8.25,1.32-.63,2.69-1,4.17-1.05,2.38-.09,4.63.31,6.72,1.48.13.07.27.11.46.2,0-.29-.02-.55.01-.79.01-.1.15-.27.24-.27,1.36-.02,2.73-.01,4.12-.01v6.89s-.1.04-.16.04c-1.27,0-2.54,0-3.81,0-.15,0-.34-.1-.43-.21-1.29-1.55-2.97-2.34-4.95-2.55-.59-.06-1.19-.11-1.78-.08-.35.02-.72.13-1.03.3-.52.28-.53.81-.02,1.12.29.18.63.31.96.41,2.38.71,4.79,1.35,7.14,2.13,2.29.77,3.94,2.31,4.61,4.69.84,2.96-.73,6.06-3.59,7.24-2.5,1.03-5.05,1.08-7.62.34-1.03-.3-2.01-.78-3.01-1.18-.12-.05-.24-.11-.42-.18,0,.37-.01.7,0,1.02Zm-18.97-15.3c-.01-.19-.03-.33-.03-.47,0-1.38,0-2.76,0-4.14,0-.34.1-.44.44-.44,4.1,0,8.19,0,12.29,0,.34,0,.44.1.44.44-.02,1.41-.02,2.81,0,4.22,0,.31-.09.39-.39.39-.85-.02-1.7,0-2.56,0v10.62h2.92v5.02c-.15.01-.29.03-.43.03-4.1,0-8.19,0-12.29,0-.32,0-.41-.09-.41-.41.02-1.39,0-2.79,0-4.18,0-.12.01-.24.03-.41h2.91v-10.67h-2.91Zm5.29,38.22h-.89v1.45h-1.07v-1.45h-3.45v-.82l3.21-4.6h1.32v4.48h.89v.95Zm5.59.27c-.18.37-.45.65-.81.86s-.8.32-1.32.32c-.69,0-1.25-.17-1.67-.52-.42-.34-.67-.8-.75-1.36h1.06c.07.3.23.54.47.71s.54.26.91.26c.45,0,.79-.14,1.02-.41.23-.27.34-.64.34-1.09s-.11-.81-.34-1.05-.57-.37-1.01-.37c-.31,0-.57.08-.79.23-.21.16-.37.37-.46.63h-1.03v-4.02h4.2v.95h-3.2v1.9c.13-.18.33-.33.6-.45.26-.12.55-.18.84-.18.53,0,.97.11,1.3.34s.57.52.72.87c.14.35.21.72.21,1.11,0,.47-.09.89-.27,1.26Zm5.81.22c-.37.63-1.01.94-1.92.94s-1.55-.31-1.92-.94c-.37-.63-.56-1.5-.56-2.61s.19-1.96.56-2.58c.37-.62,1.01-.93,1.92-.93s1.55.31,1.92.93c.37.62.56,1.48.56,2.58s-.19,1.98-.56,2.61Zm6.12,0c-.37.63-1.01.94-1.92.94s-1.55-.31-1.92-.94c-.37-.63-.56-1.5-.56-2.61s.19-1.96.56-2.58c.37-.62,1.01-.93,1.92-.93s1.55.31,1.92.93c.37.62.56,1.48.56,2.58s-.19,1.98-.56,2.61Zm3.55.96h-1.1v-5.96h-.89v-.99h1.98v6.96Zm-18.91-21.67c.67-.2.94-.11,1.31.43,1.2,1.71,2.63,3.22,4.24,4.56.1.09.21.16.32.24.78-.51,1.55-1,2.28-1.48-.85-1.23-1.69-2.45-2.56-3.7.73-.24,1-.13,1.34.36.61.88,1.24,1.73,1.86,2.6.16.22.31.25.57.13,1.1-.5,2.23-.97,3.38-1.46-.19-.52-.39-1.09-.59-1.65.65-.24.89-.14,1.11.45.09.25.19.51.29.76.02.06.06.12.06.13,1.93-.28,3.85-.55,5.81-.83,0-.14.02-.34.04-.58h.83c.01.22.02.42.03.58,1.93.28,3.85.55,5.82.83.08-.22.2-.52.31-.82.24-.67.37-.74,1.15-.54-.2.57-.41,1.13-.6,1.69.96.4,1.92.77,2.85,1.18.9.39.91.42,1.49-.36.5-.67.98-1.36,1.44-2.06.39-.58.5-.65,1.3-.46-.7,1.34-1.57,2.54-2.55,3.7.79.52,1.56,1.01,2.34,1.53,1.13-.86,2.15-1.84,3.07-2.92.59-.69,1.1-1.43,1.67-2.14.09-.12.27-.2.42-.23.22-.04.45,0,.68,0,.02.05.05.1.07.15-4.62,6.74-10.95,10.56-19.21,10.87-9.55.36-17.09-5.11-20.59-10.95Zm23.96,21.54c-.13.13-.3.2-.49.2s-.36-.07-.5-.2c-.13-.13-.2-.3-.2-.5s.07-.36.2-.5c.13-.13.3-.2.5-.2s.35.07.49.2c.13.13.2.3.2.5s-.07.36-.2.5Zm0-4.01c-.13.13-.3.2-.49.2s-.36-.07-.5-.2c-.13-.13-.2-.3-.2-.5s.07-.36.2-.5.3-.2.5-.2.35.07.49.2c.13.13.2.3.2.5s-.07.36-.2.5Zm8.3,4.05h-4.64v-.79l.69-.59c.61-.53,1.09-.96,1.45-1.3.35-.34.65-.7.88-1.06.24-.37.35-.74.35-1.11s-.09-.68-.27-.9c-.18-.22-.47-.32-.85-.32s-.67.12-.87.36c-.21.24-.32.56-.33.96h-1.05c.02-.73.24-1.28.65-1.67.42-.38.95-.58,1.59-.58.69,0,1.24.19,1.63.57.39.38.59.89.59,1.53,0,.46-.12.9-.35,1.32s-.51.8-.83,1.13c-.32.33-.73.72-1.23,1.16l-.43.38h3.02v.91Zm5.36-.86c-.37.63-1.01.94-1.92.94s-1.55-.31-1.92-.94c-.37-.63-.56-1.5-.56-2.61s.19-1.96.56-2.58c.37-.62,1.01-.93,1.92-.93s1.55.31,1.92.93c.37.62.56,1.48.56,2.58s-.19,1.98-.56,2.61Zm3.55.96h-1.1v-5.96h-.89v-.99h1.98v6.96Zm6.13-.82c-.21.32-.5.56-.88.73-.38.17-.8.26-1.28.26s-.9-.09-1.27-.26c-.37-.17-.66-.42-.87-.73s-.31-.68-.31-1.1.1-.77.31-1.07.49-.52.85-.65c-.66-.33-.99-.85-.99-1.57,0-.34.09-.66.26-.94.17-.29.43-.51.77-.68.34-.17.76-.25,1.26-.25s.91.08,1.25.25c.35.17.61.4.78.68.17.29.26.6.26.94s-.09.67-.27.94c-.18.27-.42.48-.72.63.36.13.65.35.86.65.21.3.31.66.31,1.06s-.1.78-.31,1.1Zm.85-28.57c-.89,2.46-2.6,4.06-5.02,4.94-1.63.6-3.32.95-5,.9-2.17.02-4.18-.39-6.08-1.3-2.46-1.18-4.05-3.11-4.73-5.75-.74-2.82-.6-5.63.34-8.38.87-2.53,2.66-4.16,5.16-5.07,1.76-.64,3.56-1.01,5.44-.95,2.26.07,4.42.61,6.39,1.73,1.95,1.11,3.22,2.78,3.8,4.94.81,3,.78,5.98-.3,8.93Z"/>
      <polygon class="cls-12" points="100.63 102.04 100.63 98.67 98.38 102.04 100.63 102.04"/>
      <path class="cls-9" d="m119.03,98.68c-.2-.23-.51-.34-.91-.34s-.7.11-.91.34c-.2.23-.34.52-.41.87-.07.36-.1.79-.1,1.31s.03.98.1,1.34c.06.36.2.66.41.88.21.22.51.33.91.33s.7-.11.91-.33c.21-.22.34-.51.41-.88.06-.36.1-.81.1-1.34s-.03-.95-.1-1.31c-.07-.36-.2-.65-.41-.87Z"/>
      <path class="cls-17" d="m112.92,98.68c-.2-.23-.51-.34-.91-.34s-.7.11-.91.34c-.2.23-.34.52-.41.87-.07.36-.1.79-.1,1.31s.03.98.1,1.34c.06.36.2.66.41.88.21.22.51.33.91.33s.7-.11.91-.33c.21-.22.34-.51.41-.88.06-.36.1-.81.1-1.34s-.03-.95-.1-1.31c-.07-.36-.2-.65-.41-.87Z"/>
      <path class="cls-32" d="m149.84,100.45c.36,0,.66-.1.9-.31s.35-.46.35-.78c0-.36-.11-.63-.33-.82-.22-.19-.53-.29-.92-.29s-.68.09-.91.29c-.22.19-.33.47-.33.83,0,.32.12.58.35.78.23.2.53.3.89.3Z"/>
      <path class="cls-15" d="m149.84,101.27c-.42,0-.76.1-1.03.31s-.4.5-.4.89c0,.36.13.66.38.88.25.23.6.34,1.04.34s.77-.11,1.03-.34.38-.52.38-.88c0-.38-.13-.68-.39-.89s-.6-.31-1.02-.31Z"/>
      <path class="cls-6" d="m141.3,98.68c-.2-.23-.51-.34-.91-.34s-.7.11-.91.34c-.2.23-.34.52-.41.87-.07.36-.1.79-.1,1.31s.03.98.1,1.34c.06.36.2.66.41.88.21.22.51.33.91.33s.7-.11.91-.33c.21-.22.34-.51.41-.88.06-.36.1-.81.1-1.34s-.03-.95-.1-1.31c-.07-.36-.2-.65-.41-.87Z"/>
    </g>
    <g>
      <path class="cls-2" d="m35.46,147.12c-.55-.31-.99-.74-1.32-1.29-.32-.55-.49-1.17-.49-1.87s.16-1.31.49-1.86c.32-.55.76-.98,1.32-1.29.55-.31,1.16-.47,1.82-.47s1.28.16,1.83.47c.55.31.99.74,1.31,1.29.32.55.48,1.17.48,1.86s-.16,1.32-.48,1.87c-.32.55-.76.98-1.31,1.29-.55.31-1.16.47-1.82.47s-1.27-.16-1.82-.47Zm2.95-1.09c.32-.19.58-.47.76-.83s.27-.77.27-1.25-.09-.89-.27-1.24-.44-.63-.76-.82c-.32-.19-.7-.28-1.12-.28s-.8.09-1.13.28-.58.46-.76.82-.27.77-.27,1.24.09.89.27,1.25.44.63.76.83c.33.19.7.29,1.13.29s.8-.1,1.12-.29Z"/>
      <path class="cls-2" d="m42.07,142.11c.31-.55.74-.98,1.29-1.29.54-.31,1.15-.46,1.83-.46.79,0,1.48.2,2.08.61.59.41,1.01.97,1.25,1.68h-1.63c-.16-.34-.39-.59-.68-.76-.29-.17-.63-.25-1.02-.25-.41,0-.78.1-1.1.29-.32.19-.57.46-.75.82s-.27.76-.27,1.24.09.88.27,1.23.43.63.75.82c.32.19.69.29,1.1.29.38,0,.72-.09,1.02-.26.29-.17.52-.43.68-.76h1.63c-.24.72-.65,1.28-1.24,1.69-.59.4-1.28.6-2.08.6-.68,0-1.28-.15-1.83-.46-.54-.31-.97-.73-1.29-1.28-.31-.55-.47-1.17-.47-1.86s.16-1.32.47-1.87Z"/>
      <path class="cls-2" d="m49.85,142.11c.31-.55.74-.98,1.29-1.29.54-.31,1.15-.46,1.83-.46.79,0,1.48.2,2.08.61.59.41,1.01.97,1.25,1.68h-1.63c-.16-.34-.39-.59-.68-.76-.29-.17-.63-.25-1.02-.25-.41,0-.78.1-1.1.29-.32.19-.57.46-.75.82s-.27.76-.27,1.24.09.88.27,1.23.43.63.75.82c.32.19.69.29,1.1.29.38,0,.72-.09,1.02-.26.29-.17.52-.43.68-.76h1.63c-.24.72-.65,1.28-1.24,1.69-.59.4-1.28.6-2.08.6-.68,0-1.28-.15-1.83-.46-.54-.31-.97-.73-1.29-1.28-.31-.55-.47-1.17-.47-1.86s.16-1.32.47-1.87Z"/>
      <path class="cls-2" d="m58.89,140.45v4.37c0,.48.13.85.37,1.1s.6.38,1.05.38.81-.13,1.06-.38c.25-.25.37-.62.37-1.1v-4.37h1.43v4.36c0,.6-.13,1.11-.39,1.52-.26.42-.61.73-1.04.94-.44.21-.92.31-1.45.31s-1-.1-1.43-.31c-.43-.21-.77-.52-1.02-.94-.25-.41-.37-.92-.37-1.52v-4.36h1.42Z"/>
      <path class="cls-2" d="m69.44,143.7c-.18.33-.46.6-.84.8-.38.2-.86.3-1.44.3h-1.18v2.71h-1.42v-7.07h2.6c.55,0,1.01.09,1.4.28.38.19.67.45.87.78.19.33.29.71.29,1.12,0,.38-.09.73-.27,1.06Zm-1.47-.31c.19-.18.28-.43.28-.75,0-.69-.38-1.03-1.15-1.03h-1.12v2.06h1.12c.39,0,.68-.09.87-.27Z"/>
      <path class="cls-2" d="m75.04,146.17h-2.81l-.47,1.35h-1.49l2.54-7.08h1.65l2.54,7.08h-1.5l-.47-1.35Zm-.38-1.13l-1.02-2.96-1.02,2.96h2.05Z"/>
      <path class="cls-2" d="m82.77,140.45v1.14h-1.88v5.92h-1.42v-5.92h-1.88v-1.14h5.18Z"/>
      <path class="cls-2" d="m85.22,140.45v7.07h-1.42v-7.07h1.42Z"/>
      <path class="cls-2" d="m88.07,147.12c-.55-.31-.99-.74-1.32-1.29-.32-.55-.49-1.17-.49-1.87s.16-1.31.49-1.86c.32-.55.76-.98,1.32-1.29.55-.31,1.16-.47,1.82-.47s1.28.16,1.83.47c.55.31.99.74,1.31,1.29.32.55.48,1.17.48,1.86s-.16,1.32-.48,1.87c-.32.55-.76.98-1.31,1.29-.55.31-1.16.47-1.82.47s-1.27-.16-1.82-.47Zm2.95-1.09c.32-.19.58-.47.76-.83s.27-.77.27-1.25-.09-.89-.27-1.24-.44-.63-.76-.82c-.32-.19-.7-.28-1.12-.28s-.8.09-1.13.28-.58.46-.76.82-.27.77-.27,1.24.09.89.27,1.25.44.63.76.83c.33.19.7.29,1.13.29s.8-.1,1.12-.29Z"/>
      <path class="cls-2" d="m100.61,147.52h-1.42l-3.21-4.85v4.85h-1.42v-7.08h1.42l3.21,4.86v-4.86h1.42v7.08Z"/>
      <path class="cls-2" d="m106.34,146.17h-2.81l-.47,1.35h-1.49l2.54-7.08h1.65l2.54,7.08h-1.5l-.47-1.35Zm-.38-1.13l-1.02-2.96-1.02,2.96h2.05Z"/>
      <path class="cls-2" d="m110.67,146.39h2.33v1.12h-3.75v-7.07h1.42v5.94Z"/>
      <path class="cls-2" d="m122.17,140.45v7.07h-1.42v-3.01h-3.03v3.01h-1.42v-7.07h1.42v2.91h3.03v-2.91h1.42Z"/>
      <path class="cls-2" d="m124.99,141.59v1.77h2.38v1.12h-2.38v1.87h2.68v1.15h-4.1v-7.08h4.1v1.15h-2.68Z"/>
      <path class="cls-2" d="m133.29,146.17h-2.81l-.47,1.35h-1.49l2.54-7.08h1.65l2.54,7.08h-1.5l-.47-1.35Zm-.38-1.13l-1.02-2.96-1.02,2.96h2.05Z"/>
      <path class="cls-2" d="m137.62,146.39h2.33v1.12h-3.75v-7.07h1.42v5.94Z"/>
      <path class="cls-2" d="m145.66,140.45v1.14h-1.88v5.92h-1.42v-5.92h-1.88v-1.14h5.18Z"/>
      <path class="cls-2" d="m152.55,140.45v7.07h-1.42v-3.01h-3.03v3.01h-1.42v-7.07h1.42v2.91h3.03v-2.91h1.42Z"/>
      <path class="cls-2" d="m160.69,146.17h-2.81l-.47,1.35h-1.49l2.54-7.08h1.65l2.54,7.08h-1.5l-.47-1.35Zm-.38-1.13l-1.02-2.96-1.02,2.96h2.05Z"/>
      <path class="cls-2" d="m169.65,147.52h-1.42l-3.21-4.85v4.85h-1.42v-7.08h1.42l3.21,4.86v-4.86h1.42v7.08Z"/>
      <path class="cls-2" d="m175.48,140.89c.56.29,1,.7,1.31,1.24.31.54.46,1.16.46,1.87s-.15,1.33-.46,1.86c-.31.53-.74.94-1.31,1.23-.56.29-1.22.44-1.96.44h-2.47v-7.07h2.47c.74,0,1.4.15,1.96.44Zm-.29,4.82c.4-.4.61-.98.61-1.71s-.2-1.31-.61-1.73c-.41-.41-.98-.62-1.72-.62h-1v4.67h1c.74,0,1.32-.2,1.72-.61Z"/>
      <path class="cls-2" d="m181.83,147.34c-.4-.17-.71-.41-.94-.73-.23-.32-.35-.69-.35-1.12h1.52c.02.29.12.52.31.69s.44.25.76.25.59-.08.78-.24.28-.37.28-.62c0-.21-.06-.38-.19-.52-.13-.14-.29-.24-.48-.32s-.46-.16-.79-.26c-.46-.13-.83-.27-1.12-.4-.29-.13-.53-.33-.74-.6-.21-.27-.31-.62-.31-1.07,0-.42.1-.78.31-1.09.21-.31.5-.55.88-.71.38-.17.81-.25,1.3-.25.73,0,1.32.18,1.78.53s.71.85.75,1.48h-1.56c-.01-.24-.12-.44-.31-.6-.19-.16-.45-.24-.76-.24-.28,0-.5.07-.66.21-.17.14-.25.35-.25.62,0,.19.06.35.19.47.13.12.28.23.47.3s.45.17.78.27c.46.14.83.27,1.12.41.29.13.54.34.75.61.21.27.31.62.31,1.06,0,.38-.1.73-.29,1.05s-.48.58-.86.77c-.38.19-.83.29-1.35.29s-.94-.08-1.33-.25Z"/>
      <path class="cls-2" d="m191.22,146.17h-2.81l-.47,1.35h-1.49l2.54-7.08h1.65l2.54,7.08h-1.5l-.47-1.35Zm-.38-1.13l-1.02-2.96-1.02,2.96h2.05Z"/>
      <path class="cls-2" d="m198.5,140.45v1.14h-2.95v1.81h2.26v1.12h-2.26v2.99h-1.42v-7.07h4.36Z"/>
      <path class="cls-2" d="m200.92,141.59v1.77h2.38v1.12h-2.38v1.87h2.68v1.15h-4.1v-7.08h4.1v1.15h-2.68Z"/>
      <path class="cls-2" d="m209.69,140.45v1.14h-1.88v5.92h-1.42v-5.92h-1.88v-1.14h5.18Z"/>
      <path class="cls-2" d="m216.34,140.45l-2.39,4.61v2.46h-1.42v-2.46l-2.4-4.61h1.6l1.52,3.23,1.51-3.23h1.58Z"/>
      <path class="cls-2" d="m76.55,152.6v7.07h-1.42v-4.6l-1.89,4.6h-1.07l-1.9-4.6v4.6h-1.42v-7.07h1.61l2.25,5.25,2.25-5.25h1.6Z"/>
      <path class="cls-2" d="m82.28,158.32h-2.81l-.47,1.35h-1.49l2.54-7.08h1.65l2.54,7.08h-1.5l-.47-1.35Zm-.38-1.13l-1.02-2.96-1.02,2.96h2.05Z"/>
      <path class="cls-2" d="m91.24,159.67h-1.42l-3.21-4.85v4.85h-1.42v-7.08h1.42l3.21,4.86v-4.86h1.42v7.08Z"/>
      <path class="cls-2" d="m96.97,158.32h-2.81l-.47,1.35h-1.49l2.54-7.08h1.65l2.54,7.08h-1.5l-.47-1.35Zm-.38-1.13l-1.02-2.96-1.02,2.96h2.05Z"/>
      <path class="cls-2" d="m104.8,154.73c-.16-.3-.38-.52-.67-.68-.28-.16-.61-.23-.99-.23-.42,0-.79.09-1.11.28-.32.19-.58.46-.76.81s-.27.76-.27,1.22.09.88.28,1.24c.18.35.44.62.77.81s.72.28,1.15.28c.54,0,.98-.14,1.33-.43.34-.29.57-.69.68-1.2h-2.43v-1.08h3.83v1.24c-.09.49-.3.95-.61,1.37-.31.42-.71.75-1.2,1.01-.49.25-1.04.38-1.65.38-.68,0-1.3-.15-1.85-.46-.55-.31-.98-.73-1.3-1.28-.31-.55-.47-1.17-.47-1.86s.16-1.32.47-1.87c.31-.55.75-.98,1.3-1.29.55-.31,1.16-.46,1.84-.46.8,0,1.49.19,2.07.58.59.39.99.93,1.22,1.63h-1.63Z"/>
      <path class="cls-2" d="m109.07,153.74v1.77h2.38v1.12h-2.38v1.87h2.68v1.15h-4.1v-7.08h4.1v1.15h-2.68Z"/>
      <path class="cls-2" d="m120.75,152.6v7.07h-1.42v-4.6l-1.89,4.6h-1.07l-1.9-4.6v4.6h-1.42v-7.07h1.61l2.25,5.25,2.25-5.25h1.6Z"/>
      <path class="cls-2" d="m123.56,153.74v1.77h2.38v1.12h-2.38v1.87h2.68v1.15h-4.1v-7.08h4.1v1.15h-2.68Z"/>
      <path class="cls-2" d="m133.57,159.67h-1.42l-3.21-4.85v4.85h-1.42v-7.08h1.42l3.21,4.86v-4.86h1.42v7.08Z"/>
      <path class="cls-2" d="m139.78,152.6v1.14h-1.88v5.92h-1.42v-5.92h-1.88v-1.14h5.18Z"/>
      <path class="cls-2" d="m144.33,159.48c-.4-.17-.71-.41-.94-.73-.23-.32-.35-.69-.35-1.12h1.52c.02.29.12.52.31.69s.44.25.76.25.59-.08.78-.24.28-.37.28-.62c0-.21-.06-.38-.19-.52-.13-.14-.29-.24-.48-.32s-.46-.16-.79-.26c-.46-.13-.83-.27-1.12-.4-.29-.13-.53-.33-.74-.6-.21-.27-.31-.62-.31-1.07,0-.42.1-.78.31-1.09.21-.31.5-.55.88-.71.38-.17.81-.25,1.3-.25.73,0,1.32.18,1.78.53s.71.85.75,1.48h-1.56c-.01-.24-.12-.44-.31-.6-.19-.16-.45-.24-.76-.24-.28,0-.5.07-.66.21-.17.14-.25.35-.25.62,0,.19.06.35.19.47.13.12.28.23.47.3s.45.17.78.27c.46.14.83.27,1.12.41.29.13.54.34.75.61.21.27.31.62.31,1.06,0,.38-.1.73-.29,1.05s-.48.58-.86.77c-.38.19-.83.29-1.35.29s-.94-.08-1.33-.25Z"/>
      <path class="cls-2" d="m155.01,152.6l-2.39,4.61v2.46h-1.42v-2.46l-2.4-4.61h1.6l1.52,3.23,1.51-3.23h1.58Z"/>
      <path class="cls-2" d="m156.94,159.48c-.4-.17-.71-.41-.94-.73-.23-.32-.35-.69-.35-1.12h1.52c.02.29.12.52.31.69s.44.25.76.25.59-.08.78-.24.28-.37.28-.62c0-.21-.06-.38-.19-.52-.13-.14-.29-.24-.48-.32s-.46-.16-.79-.26c-.46-.13-.83-.27-1.12-.4-.29-.13-.53-.33-.74-.6-.21-.27-.31-.62-.31-1.07,0-.42.1-.78.31-1.09.21-.31.5-.55.88-.71.38-.17.81-.25,1.3-.25.73,0,1.32.18,1.78.53s.71.85.75,1.48h-1.56c-.01-.24-.12-.44-.31-.6-.19-.16-.45-.24-.76-.24-.28,0-.5.07-.66.21-.17.14-.25.35-.25.62,0,.19.06.35.19.47.13.12.28.23.47.3s.45.17.78.27c.46.14.83.27,1.12.41.29.13.54.34.75.61.21.27.31.62.31,1.06,0,.38-.1.73-.29,1.05s-.48.58-.86.77c-.38.19-.83.29-1.35.29s-.94-.08-1.33-.25Z"/>
      <path class="cls-2" d="m166.8,152.6v1.14h-1.88v5.92h-1.42v-5.92h-1.88v-1.14h5.18Z"/>
      <path class="cls-2" d="m169.25,153.74v1.77h2.38v1.12h-2.38v1.87h2.68v1.15h-4.1v-7.08h4.1v1.15h-2.68Z"/>
      <path class="cls-2" d="m180.93,152.6v7.07h-1.42v-4.6l-1.89,4.6h-1.07l-1.9-4.6v4.6h-1.42v-7.07h1.61l2.25,5.25,2.25-5.25h1.6Z"/>
    </g>
  </g>
</svg>