<?xml version="1.0" encoding="UTF-8"?>
<svg id="Layer_1" data-name="Layer 1" xmlns="http://www.w3.org/2000/svg" version="1.1" xmlns:xlink="http://www.w3.org/1999/xlink" viewBox="0 0 250 180">
  <defs>
    <style>
      .cls-1 {
        fill: url(#linear-gradient);
      }

      .cls-1, .cls-2 {
        stroke-width: 0px;
      }

      .cls-2 {
        fill: #fff;
      }
    </style>
    <linearGradient id="linear-gradient" x1="125.6" y1="183.4" x2="124.4" y2="1.1" gradientTransform="translate(0 182) scale(1 -1)" gradientUnits="userSpaceOnUse">
      <stop offset="0" stop-color="#0f5620"/>
      <stop offset="1" stop-color="#093413"/>
    </linearGradient>
  </defs>
  <rect class="cls-1" x="0" y="-.6" width="250" height="180.7"/>
  <g>
    <g>
      <path class="cls-2" d="M131.6,117.5c-1.6.4-3.1,1-4.7,1.5,0,.2,0,.4.1.6,1,0,1.9,0,2.9-.2,1-.2,1.9-.4,3-.6,0,.6,0,1,0,1.5,0,0,0,.2,0,.2.4,0,.8,0,1.2,0,1.4,0,2.9-.1,4.3-.2h0v-32.3c-1.4-1.1-2.9-2.1-4.3-3.3-.6-.4-1-.4-1.6-.2-2.2,1-4.5,2-6.8,3,0,0,0,0-.2,0-1.6.7-3.1,1.5-4.7,2.1-.8.3-1,.7-1,1.6,0,8.3,0,16.5,0,24.8s.2,1.5,1.4.9c1.7-.8,3.4-1.7,5.1-2.6,2-1,4-2,6.4-2.1.3,1.6.3,1.6-1.1,1.9-3.2.6-5.9,2.4-8.7,3.8,1,.7,1.8.6,2.7,0,.9-.6,1.9-1.1,3-1.5,1.4-.5,2.8-.8,4.2-1.2.2,1.8.2,1.8-1.2,2.1h0ZM131.7,98c-2.2.7-4.3,1.6-6.5,2.6-1.5.7-2.9,1.5-4.5,2.3-.3-1.2-.2-1.8.9-2.3,2.3-1,4.6-2.3,6.9-3.4,1.3-.6,2.8-.9,4.2-1.3.5,1.7.4,1.7-1,2.1h0ZM131.7,101.3c-2.4.8-4.7,1.8-7,2.8-1.3.6-2.6,1.3-4,2-.3-1.2-.2-1.8.9-2.2,2.1-.9,4.1-2.1,6.2-3.1,1.6-.7,3.2-1.1,4.9-1.7.6,1.7.4,1.7-1,2.2h0ZM131.6,94.8c-2.7.4-4.9,1.8-7.2,3-1.2.6-2.4,1.2-3.6,1.8-.4-1.2-.1-1.8.9-2.2,2.4-1.1,4.7-2.4,7.2-3.5,1.2-.6,2.6-.8,3.9-1.2.4,1.7.4,1.8-1.1,2.1h0ZM131.7,91.5c-2.2.7-4.3,1.7-6.5,2.6-1.5.7-2.9,1.5-4.5,2.3-.4-1.2-.2-1.8.9-2.3,1.9-.8,3.7-2,5.7-2.8,1.7-.8,3.6-1.3,5.4-1.9.5,1.8.4,1.8-1,2.2h0ZM121.5,90.9c2.1-1,4.2-2.2,6.3-3.2,1.5-.7,3.2-1.1,4.9-1.7.3,1.9.2,1.7-1.1,2.2-2.5.9-4.9,1.9-7.3,3-1.2.5-2.4,1.2-3.6,1.8-.5-1.3-.4-1.6.7-2.1ZM131.7,111c-2.6.4-4.8,1.8-7.2,2.9-1.2.6-2.5,1.2-3.8,1.9-.4-1.2-.1-1.8.9-2.3,2.1-.9,4-2.1,6.1-3,1.6-.7,3.3-1.2,5-1.7.4,1.8.4,1.9-1,2.2h0ZM131.7,107.8c-2.4.8-4.7,1.9-7.1,2.9-1.3.6-2.5,1.2-3.9,1.9-.3-1.2-.3-1.8.8-2.2,1.8-.8,3.5-1.9,5.4-2.7,1.9-.8,3.8-1.5,5.8-2.2.5,1.8.4,1.8-1,2.3ZM131.7,104.5c-2.8.5-5.2,1.9-7.6,3.2-1.1.6-2.2,1.1-3.4,1.7-.3-1.2-.2-1.8.9-2.2,2.2-1,4.3-2.2,6.5-3.2,1.5-.7,3.1-1,4.6-1.5.5,1.7.4,1.9-.9,2.1Z"/>
      <path class="cls-2" d="M128.2,53.1v30.4c0,.3.2.6.3.9.7-.4,1.5-.8,2.2-1.1.1,0,.3-.1.5-.2,1-.3,2-.6,3-.9.1,0,.1-.4.2-.6,1.1-.4,2.2-.8,3.3-1.2.1,0,.2.1.4.2-.2.8-.3,1.7-.5,2.5h-.4c-.4.2-.8.3-1.1.4.9.8,1.8,1.5,2.9,2.4,0-.5.1-.7,0-.9-.2-1.1.3-1.5,1.3-1.7.7-.2,1.3-.5,2-.7.1.6.3,1.1.4,1.7.2.9-.4,1-1.1,1.1-.6.1-1.1.5-1.7.8.5.9.7,1,1.7.3.8-.5,1-.2,1,.6,0,.7.5,1.6-.6,2-.4.1-.7.2-1.1.3,0,.3-.2.6-.2.8v29.2c0,.2,0,.4,0,.7.5,0,.9-.2,1.3-.2.6,0,1.1-.2,1.7-.2,0-.5.2-1,.2-1.5,0-10.1,0-20.2,0-30.3,0-4.7,0-9.3,0-14,0-7.6,0-15.2,0-22.8,0-.6.1-1.2.2-1.7.2,0,.4.2.7.3.7.2,1,.7.9,1.4,0,.4,0,.8,0,1.2,0,7.2,0,14.5,0,21.7v44.3c0,.3,0,.7,0,1,.6,0,1-.3.9-1.1,0-.6,0-1.2,0-1.8,0-.5,0-1,0-1.4v-31.9c0-2.4,0-4.8,0-7.1v-23.6c0-.4,0-.8.1-1.3.6.4,1,.8,1.5,1.1v53.4c0,.4.2.9.3,1.4.4,0,.8,0,1.3-.1.1,0,.3,0,.4,0,0,0,.1.2.2.2,0-17.1,0-34.2,0-51.3,0-.6.1-1.2.2-1.7-.1,0-.3-.1-.5-.2.1,0,.3.1.5.2,1.5.7,2.1,1.7,2,3.5-.2,2,0,4.1,0,6.1v3.1c.1,0,.3,0,.4.1.2-.4.5-.8.5-1.1,0-2.7,0-5.5,0-8.2,0-.4,0-.8,0-1.3.7.5,1.2.9,1.7,1.3,0,2.5,0,5,0,7.4,0,.3.3.6.4.9.4-.2.7-.3,1.1-.5,0-.4.2-.8.2-1.3,0-1.4,0-2.9,0-4.3,0-.9-.1-1.8-.2-2.7-4.2-3.1-8.4-6.1-12.7-9.2-.2-.2-.6-.2-.9-.1-5,1.7-10.1,3.5-15.1,5.3,0,.2-.1.4-.1.6h0ZM134.3,67.2c0-.3.4-.6.6-.8,1-.3,2-.6,3.1-.8,0,1.6-.9,2.6-2.4,3.2-.4.1-.8.3-1.1.4,0,0-.1,0-.2,0,0-.6,0-1.2,0-1.8h0ZM137.9,74.9c0,.2-.2.4-.4.6-.2.2-.5.2-.7.3-.8.3-1.6.5-2.4.8,0-.1-.1-.2-.1-.2-.2-1.4.4-2.4,1.8-2.9.3-.1.6-.2.9-.4.2,0,.5-.2.7-.2,0,.7.1,1.4.2,2.1h0ZM129.8,81.9c0-.8-.2-1.6-.3-2.5.3,0,.6-.1.9-.2,0,0,.1,0,.2,0,.6-.2,1.2-.5,1.8-.7h.2c.1.8.3,1.6.4,2.3.1-.6.3-1.3.4-1.9-.1.7-.3,1.3-.4,1.9-.8.2-1.6.5-2.4.7-.3.2-.6.3-.9.4ZM130.2,71.8c.9-.4,1.9-.7,3-1v2.5c-1,.4-2.1.8-3.1,1.1-.8-.6-.7-2.3.1-2.6ZM139,74.7c0-.4,0-.8,0-1.2-.1-.9.2-1.4,1.1-1.5.8-.3,1.6-.5,2.6-.8,0,.8,0,1.4,0,2.1,0,.2-.2.5-.3.5-1.1.3-2.2.7-3.4,1h0ZM132.7,69.7c-1,.3-2,.6-2.9.9-.6-1.9-.4-2.3,1.4-2.9.6-.2,1.1-.4,1.6-.7.6.7.6,2,0,2.7h0ZM133.2,61.5c0,.2-.3.5-.5.6-.6.3-1.3.5-2,.7-.3.1-.6.2-1,.3,0-.2-.1-.2-.1-.2-.2-1.4.4-2.4,1.7-2.8.6-.2,1.1-.4,1.9-.6,0,.8,0,1.4,0,2h0ZM137.9,78.4c0,.3-.4.7-.6.8-.8.4-1.7.7-2.6,1h0c-.6-.6-.6-2,0-2.6,1-.3,2-.7,3.2-1.1,0,.7,0,1.3,0,1.8ZM140.5,82.1c-.5,0-.9.1-1.5.2v-2.4c1.1-.4,2.2-.8,3.4-1.2.8,1.7,0,3-1.9,3.3ZM141.1,63c-.6.2-1.2.4-1.9.7,0-.2-.1-.2-.1-.3-.1-1.4.4-2.4,1.7-2.8.6-.2,1.1-.4,1.7-.5.6,1.9.4,2.3-1.4,3h0ZM140.8,55.6c-.5.2-1,.3-1.8.6,0-.8,0-1.4,0-2.1,0-.2.2-.5.4-.5,1-.4,2-.7,3.1-1.1.2,1.6-.4,2.7-1.8,3.1h0ZM140.7,49.4c.6-.2,1.2-.4,2-.7,0,.8,0,1.4,0,2,0,.3-.3.6-.6.7-.7.3-1.4.5-2.1.7-.2,0-.5.1-.8.2-.5-2.2-.4-2.3,1.5-3ZM137.8,50.5c.6,1.9.4,2.3-1.4,2.9-.6.2-1.2.4-1.9.7-.3-2.7,0-3,3.4-3.5ZM137.7,58c.6,1.7.4,2.3-1.2,2.9-.7.2-1.4.5-2.1.7,0-3-.9-2.2,3.4-3.6ZM137.7,61.6c.6,1.9.4,2.4-1.3,3-.7.2-1.4.4-2.1.6,0-.7,0-1.5,0-2.2,1.1-.5,2.3-.9,3.4-1.4h0ZM133,52.1c.5,1.8.3,2.3-1,2.9-.8.2-1.7.5-2.8.8.5-1.1-.7-2.3,1-2.8.9-.3,1.8-.6,2.7-.9Z"/>
      <path class="cls-2" d="M178.1,88.6c-1.9,8.6-5.9,16.1-12.2,22.2-6.5,6.3-14.2,10.2-23.2,11.6-1.5.2-3,.4-4.5.6h-3.9c-.9,0-1.8-.2-2.7-.2,0,0-.1,0-.2,0-1.7-.3-3.5-.5-5.2-1-2.5-.7-5-1.6-7.5-2.4h0c-.8-.4-1.6-.8-2.5-1.2-.3-.2-.7-.3-1.1-.5-1.2-.7-2.4-1.5-3.6-2.2-.4-.3-.8-.6-1.1-.9-2.8-2.2-5.5-4.5-7.7-7.4-4.2-5.7-6.8-12-8.2-18.9-.1-1.2-.3-2.4-.4-3.6-.6-6,0-11.8,1.8-17.5,0-.2,0-.4.1-.6h0c.2-.4.3-.8.5-1.1,1.6-3.3,3-6.7,4.8-9.8,1.3-2.3,3.1-4.3,4.7-6.5,0,0,.2-.2.2-.3h0c.5-.4,1-.7,1.5-1.1h0c-.6.8-1.3,1.6-1.9,2.5-4.9,7.6-7.3,15.9-7.1,25,0,1,.4,1.2,1.3,1,7.8-1.9,15.1-4.7,19.9-11.7.9-2,1.8-4,2.7-6,.5-2.1.9-4.3,1.4-6.4,0-.3.2-.6.2-.8.7-3.9,1.3-7.8,1.9-11.7,1.1-3.2,2.2-6.4,3.3-9.9-3.2.9-6.4,1.7-9.5,2.5-1.5.5-3,1-4.4,1.5-.6.2-1.2.5-1.8.7-1.3.6-2.6,1.1-3.8,1.8-3.8,2-7.3,4.3-10.3,7.5-.1.1-.3.3-.4.4-5,5-8,11-9.4,17.9,0,.4-.1.9-.2,1.3-.1.9-.3,1.8-.4,2.7,0,.3,0,.7,0,1.1,0,.6.2,1,.5,1.2-.2-.2-.4-.6-.5-1.2,0,.5-.2,1.1-.2,1.6-.2,2.5-.3,5-.5,7.5h0c-.3-.2-.7-.4-.9-.7-.5-.6-1-1.2-1.5-1.7-.7-.9-1.5-1.8-2.1-2.8-3.2-4.9-7.5-8.3-13.4-9.3-4.2-.7-8.3-.2-12.4,1-1.4.4-2.7.9-4.1,1.4,1.7,1.5,3.2,2.8,4.6,4.1,1.3,1.4,2.6,2.8,3.8,4.2,3,3.6,6.6,6,11.6,5.7,2.4-.2,4.7-.8,7.1-1.7-2.7-4.6-6.4-7.9-11.2-10.1,4.2,1.1,8,3.3,11,6.2,2.1,2,3.7,4.4,5.1,7,0,.2,0,.3.2.4,1.1,2.5,1.7,5.1,1.6,7.9,0,1.5.2,3,.5,4.5.8,4.8,2.2,9.4,4.6,13.7.9,1.6,1.8,3.2,2.8,4.8.1.2.3.3.4.5,2.9,4,6.3,7.6,10.4,10.4,3.7,2.7,7.7,4.8,12,6.2,1.4.4,2.8.8,4.2,1.2,2.3.4,4.6.7,6.9,1.1.5,0,1,0,1.5,0,1.7,0,3.3,0,5,0,4.7-.2,9.2-1.3,13.6-3.1.4-.2.9-.3,1.3-.5,18.7-7.9,27.2-26.3,27.2-39.4-.1.5-.2,1-.3,1.4h0ZM106.1,48.3c0-.2,0-.4,0-.6,0,.2,0,.4,0,.6Z"/>
      <path class="cls-2" d="M152.7,69.2c0,5.9,0,11.8,0,17.6,0,.2,0,.4,0,.7v29.3c1.8-1,3.4-1.8,4.9-2.8,2.2-1.6,4.3-3.4,6.5-5.1,0-.3.2-.6.2-.8,0-2.2,0-4.3,0-6.5,0-.6,0-1.2,0-1.8,0-10.6,0-21.2,0-31.9,0-.7.1-1.3.2-2,.3.1.6.3.9.4,0,0,.1,0,.2,0,0,.5,0,1,0,1.4v38.1c0,.4.1.8.2,1.2,0-.1.2-.3.3-.4,0-.2.2-.5.2-.7,0-2.8,0-5.6,0-8.4,0-.5,0-1,0-1.4,0-9.1,0-18.2,0-27.4,0-.5.1-1,.2-1.5-.1,0-.3-.1-.4-.2,0-.2-.2-.3-.2-.4,0,.2.2.3.2.4.1,0,.3.1.4.2.5.4,1,.9,1.6,1.4,0,2,0,4,0,6h0c0,4.5,0,9,0,13.6h.6c0-.3.2-.7.2-1,0-5.1,0-10.2,0-15.3,0-.4-.1-.7-.2-1.1,0,.9,0,1.8,0,2.7h0c0-.9,0-1.8,0-2.7v-1.2c1.3.2,1.7.7,1.8,2.6,0,.1.1.3.2.4,0,.5-.2.9-.2,1.4,0,4.7,0,9.5,0,14.2,0,3.4,0,6.8,0,10.2,0,.5,0,1,0,1.5,0,0,.3,0,.4,0,0-.2.2-.3.2-.4,0-.5.2-.9.2-1.4,0-7.5,0-15.1,0-22.6,0-.5-.1-.9-.2-1.4v-1.1c0-.3,0-.6,0-.9.5-1.7.9,0,1.4,0,0,.3,0,.6,0,.8,0,7.4,0,14.8,0,22.2,0,.3,0,.7,0,1,.1,0,.2,0,.4,0,.2-.5.3-1,.5-1.5,0-.2.1-.3.2-.5h0c0,0,.1-.1.2-.2,0-6.3,0-12.6,0-18.9,0-.5-.1-.9-.2-1.4,0-.6,0-1.2,0-1.8,0-.1-.1-.2-.2-.3h0c-1.2-1-2.3-1.9-3.5-2.9-1.2-1-2.4-1.9-3.7-2.8-.4-.3-.9-.6-1.2-1-.8-1-1.6-.6-2.5-.3-.4.2-.8.5-1.2.7-2.5,1-5.1,1.9-7.6,2.8-.6.2-1.1.2-1.1,1.1h0ZM164.1,101.3c0-.4-.2-.8-.2-1.2,0,.4.2.8.2,1.2,0,0,0,.2,0,.2,0,0,0-.2,0-.2Z"/>
    </g>
    <g>
      <path class="cls-2" d="M55,142.9v2.2h2.9v1.4h-2.9v2.3h3.3v1.4h-5v-8.7h5v1.4h-3.3Z"/>
      <path class="cls-2" d="M60,143.5c.4-.7.9-1.2,1.6-1.6s1.4-.6,2.2-.6,1.8.2,2.5.7c.7.5,1.2,1.2,1.5,2.1h-2c-.2-.4-.5-.7-.8-.9-.4-.2-.8-.3-1.2-.3s-1,.1-1.3.4c-.4.2-.7.6-.9,1s-.3.9-.3,1.5.1,1.1.3,1.5c.2.4.5.8.9,1,.4.2.8.4,1.3.4s.9-.1,1.2-.3.6-.5.8-.9h2c-.3.9-.8,1.6-1.5,2.1-.7.5-1.6.7-2.5.7s-1.6-.2-2.2-.6-1.2-.9-1.6-1.6c-.4-.7-.6-1.4-.6-2.3s.2-1.6.6-2.3h0Z"/>
      <path class="cls-2" d="M71.2,149.7c-.7-.4-1.2-.9-1.6-1.6s-.6-1.4-.6-2.3.2-1.6.6-2.3.9-1.2,1.6-1.6,1.4-.6,2.2-.6,1.6.2,2.2.6,1.2.9,1.6,1.6.6,1.4.6,2.3-.2,1.6-.6,2.3-.9,1.2-1.6,1.6-1.4.6-2.2.6-1.6-.2-2.2-.6ZM74.8,148.3c.4-.2.7-.6.9-1,.2-.4.3-.9.3-1.5s-.1-1.1-.3-1.5c-.2-.4-.5-.8-.9-1s-.9-.4-1.4-.4-1,.1-1.4.4c-.4.2-.7.6-.9,1s-.3.9-.3,1.5.1,1.1.3,1.5c.2.4.5.8.9,1,.4.2.9.4,1.4.4s1-.1,1.4-.4Z"/>
      <path class="cls-2" d="M87.4,141.5v1.4h-3.6v2.2h2.8v1.4h-2.8v3.7h-1.7v-8.7h5.3Z"/>
      <path class="cls-2" d="M93.1,150.2l-1.9-3.4h-.8v3.4h-1.7v-8.7h3.2c.7,0,1.2.1,1.7.4.5.2.8.6,1.1,1,.2.4.3.9.3,1.4s-.2,1.1-.5,1.5c-.3.5-.8.8-1.5.9l2.1,3.5h-2,0ZM90.4,145.5h1.4c.5,0,.8-.1,1.1-.3s.3-.5.3-.9-.1-.7-.3-.9c-.2-.2-.6-.3-1.1-.3h-1.4v2.5Z"/>
      <path class="cls-2" d="M98.4,141.5v8.7h-1.7v-8.7h1.7Z"/>
      <path class="cls-2" d="M101.8,142.9v2.2h2.9v1.4h-2.9v2.3h3.3v1.4h-5v-8.7h5v1.4h-3.3Z"/>
      <path class="cls-2" d="M114.1,150.2h-1.7l-3.9-5.9v5.9h-1.7v-8.7h1.7l3.9,6v-6h1.7v8.7Z"/>
      <path class="cls-2" d="M121.2,142c.7.4,1.2.9,1.6,1.5s.6,1.4.6,2.3-.2,1.6-.6,2.3c-.4.6-.9,1.1-1.6,1.5s-1.5.5-2.4.5h-3v-8.7h3c.9,0,1.7.2,2.4.5h0ZM120.9,147.9c.5-.5.7-1.2.7-2.1s-.2-1.6-.7-2.1c-.5-.5-1.2-.8-2.1-.8h-1.2v5.7h1.2c.9,0,1.6-.2,2.1-.7Z"/>
      <path class="cls-2" d="M126.4,148.8h2.9v1.4h-4.6v-8.7h1.7s0,7.3,0,7.3Z"/>
      <path class="cls-2" d="M137.3,141.5l-2.9,5.6v3h-1.7v-3l-2.9-5.6h2l1.9,4,1.9-4h1.9,0Z"/>
      <path class="cls-2" d="M147.4,146.4c.3.4.5.9.5,1.4s-.1.9-.3,1.2-.6.6-1,.8c-.4.2-.9.3-1.5.3h-3.7v-8.7h3.6c.6,0,1.1.1,1.5.3.4.2.8.5,1,.8s.3.7.3,1.1-.1.9-.4,1.3c-.3.3-.6.6-1.1.7.5,0,.9.3,1.2.7h0ZM143,145.1h1.6c.4,0,.7,0,1-.3s.3-.4.3-.8-.1-.6-.3-.8c-.2-.2-.5-.3-1-.3h-1.6v2.2ZM145.7,148.4c.2-.2.4-.5.4-.8s-.1-.7-.4-.9c-.2-.2-.6-.3-1-.3h-1.7v2.3h1.8c.4,0,.8-.1,1-.3h0Z"/>
      <path class="cls-2" d="M150.9,141.5v5.4c0,.6.1,1,.5,1.4s.7.5,1.3.5,1-.1,1.3-.5c.3-.3.5-.8.5-1.4v-5.4h1.8v5.4c0,.7-.2,1.4-.5,1.9s-.7.9-1.3,1.1c-.5.3-1.1.4-1.8.4s-1.2-.1-1.8-.4c-.5-.3-.9-.6-1.2-1.1s-.5-1.1-.5-1.9v-5.4h1.7Z"/>
      <path class="cls-2" d="M159.6,141.5v8.7h-1.7v-8.7h1.7Z"/>
      <path class="cls-2" d="M163.1,148.8h2.9v1.4h-4.6v-8.7h1.7v7.3h0Z"/>
      <path class="cls-2" d="M172.4,142c.7.4,1.2.9,1.6,1.5s.6,1.4.6,2.3-.2,1.6-.6,2.3c-.4.6-.9,1.1-1.6,1.5s-1.5.5-2.4.5h-3v-8.7h3c.9,0,1.7.2,2.4.5h0ZM172.1,147.9c.5-.5.7-1.2.7-2.1s-.2-1.6-.7-2.1c-.5-.5-1.2-.8-2.1-.8h-1.2v5.7h1.2c.9,0,1.6-.2,2.1-.7Z"/>
      <path class="cls-2" d="M177.7,141.5v8.7h-1.7v-8.7h1.7Z"/>
      <path class="cls-2" d="M186.8,150.2h-1.7l-3.9-5.9v5.9h-1.7v-8.7h1.7l3.9,6v-6h1.7v8.7Z"/>
      <path class="cls-2" d="M194.5,144.1c-.2-.4-.5-.6-.8-.8s-.8-.3-1.2-.3-1,.1-1.4.4c-.4.2-.7.6-.9,1s-.3.9-.3,1.5.1,1.1.3,1.5.5.8.9,1c.4.2.9.4,1.4.4s1.2-.2,1.6-.5c.4-.4.7-.8.8-1.5h-3v-1.3h4.7v1.5c-.1.6-.4,1.2-.7,1.7-.4.5-.9.9-1.5,1.2-.6.3-1.3.5-2,.5s-1.6-.2-2.3-.6-1.2-.9-1.6-1.6c-.4-.7-.6-1.4-.6-2.3s.2-1.6.6-2.3.9-1.2,1.6-1.6,1.4-.6,2.2-.6,1.8.2,2.5.7c.7.5,1.2,1.1,1.5,2h-2,0Z"/>
    </g>
  </g>
</svg>