<?xml version="1.0" encoding="UTF-8"?>
<svg id="Layer_1" data-name="Layer 1" xmlns="http://www.w3.org/2000/svg" version="1.1" xmlns:xlink="http://www.w3.org/1999/xlink" viewBox="0 0 250 180">
  <defs>
    <style>
      .cls-1 {
        fill: url(#linear-gradient);
      }

      .cls-1, .cls-2, .cls-3, .cls-4, .cls-5, .cls-6 {
        stroke-width: 0px;
      }

      .cls-2 {
        fill: #fceb06;
      }

      .cls-3 {
        fill: #04a350;
      }

      .cls-4 {
        fill: #222120;
      }

      .cls-5 {
        fill: #fff;
      }

      .cls-6 {
        fill: #ee1e21;
      }
    </style>
    <linearGradient id="linear-gradient" x1="125.9" y1="207.4" x2="124.5" y2="-.4" gradientTransform="translate(0 182) scale(1 -1)" gradientUnits="userSpaceOnUse">
      <stop offset="0" stop-color="#0f5620"/>
      <stop offset="1" stop-color="#093413"/>
    </linearGradient>
  </defs>
  <rect class="cls-1" x="-.4" width="251.1" height="180"/>
  <g>
    <g>
      <circle class="cls-5" cx="125" cy="79.5" r="52.9"/>
      <g>
        <path class="cls-4" d="M149,70.3c0-1.3.4-2.4,1.2-3.4.5-.7.9-1.4,1.3-2.2.2-.4.3-.9.5-1.3,0,0,0-.2.1-.3.6.4.9,1,1.2,1.5.1.2.2.4.3.6.4,1,.3,2,0,3.1-.1.7-.4,1.2-.8,1.7-.6.8-1.2,1.6-2.1,2-.4.2-.7.3-1.1.5-.1,0-.2,0-.4,0-.3.2-.2.6-.2.9,0,.5,0,1,0,1.5v.6c.2-.3.4-.6.6-.9.5-.7,1.2-1.2,1.9-1.6.6-.4,1.2-.9,1.7-1.4.4-.4.7-.8,1.1-1.2,0,0,.1,0,.1-.1.6,1,.6,2.1.5,3.2,0,.7-.4,1.3-.7,1.9-.6,1-1.5,1.8-2.6,2.3-.6.3-1.2.5-1.9.6-.3,0-.6,0-.9.1-.1,1.1-.2,2.2-.3,3.3,0,0,.1,0,.2,0,.7-.9,1.7-1.3,2.7-1.7,0,0,.2,0,.3,0,1.1-.6,2.2-1.2,3.1-2,.2.6.3,1.2.2,1.8,0,.7-.2,1.3-.6,1.9-.5.9-1.2,1.7-2.1,2.2-.7.4-1.5.7-2.3.8-.6,0-1.2,0-1.8,0-.1,0-.3,0-.5,0-.4.9-.7,1.8-1.1,2.8.1,0,.3,0,.4-.1.3-.1.7-.3,1-.4.5-.1.9-.2,1.4-.3,1.1-.2,2.1-.5,2.9-1.1,0,0,.2,0,.3-.1.1.5,0,.9,0,1.3-.2,1.1-.7,2-1.5,2.7-.3.3-.7.5-1.1.7-.5.2-1,.4-1.6.6,0,0,0,0-.1,0-.9,0-1.7.2-2.5,0-.3,0-.6-.2-1-.3-.3.4-.6.8-1,1.2-.3.3-.6.7-.9,1-.1.1-.4.2-.2.4,0,0-.1,0-.2,0h0c0,0,.1,0,.2,0,.6,0,1.3,0,1.9,0,.3,0,.7,0,1,0,.9.2,1.8.2,2.6.1.3,0,.7-.1,1-.2,0,0,.1,0,.2,0-.2.8-.6,1.6-1.2,2.2-.5.6-1.2.9-2,1.2-.7.3-1.4.4-2.2.4-.5,0-1,0-1.4-.3-.3-.1-.7-.2-1.1-.3-.4-.2-.8-.5-1.2-.8,0,0-.1-.1-.3-.2-.1,0-.3,0-.4.2-.8.5-1.6,1.1-2.4,1.5-1.1.7-2.2,1.4-3.5,1.7-.9.2-1.9.5-2.9.7-.4,0-.8.3-1.1.4-.5.2-1,.3-1.5.5-.6.2-1.2.5-1.9.8-.2,0-.3.1-.5.2v.8c1.6,1,3.1,2.1,4.4,3.6-.1.1-.2.2-.3.3-1.2-1.3-2.6-2.5-4.1-3.3,0,0,0,.1,0,.2v.3c.8.5,1.3,1.2,1.2,2.2,0,.6-.3,1.1-.7,1.4-1.1.9-2.7,1-3.7-.4-.7-.9-.8-2.4.9-3.4v-.5c-1.7.9-3,2.1-4.2,3.5-.2,0-.2-.2-.4-.2,1.3-1.6,2.9-2.8,4.6-3.8v-.6c-.3-.1-.6-.3-.9-.4-.6-.3-1.3-.6-1.9-.8-1.1-.3-2.2-.6-3.2-.9-.5-.2-1.1-.3-1.6-.5-1.4-.4-2.7-1-3.9-1.8-.8-.5-1.5-1-2.3-1.5-.1,0-.2-.1-.4-.2-.5.3-.9.7-1.4.9s-1,.4-1.7.5c-2.1.8-5.5-.7-6.1-3.5.3,0,.5,0,.8.1.6,0,1.2,0,1.8,0,.1,0,.3,0,.4,0,.4,0,.9-.1,1.3-.2.2,0,.5,0,.7,0,.6,0,1.2-.1,1.9,0-.8-.9-1.6-1.7-2.3-2.6-.3,0-.7.2-1,.3,0,0,0,0,0,0-.7,0-1.4.1-2.2,0-.9,0-1.8-.5-2.6-1-.9-.6-1.5-1.4-1.9-2.4-.2-.6-.3-1.3-.3-2,.3.2.5.3.7.4.6.3,1.3.6,2,.8.6.2,1.3.2,1.9.4.4,0,.8.3,1.2.4,0,0,.2,0,.3.1-.4-1-.8-1.9-1.2-2.8-.2,0-.4,0-.6,0-1.2,0-2.3-.1-3.4-.6-1.2-.6-2-1.4-2.6-2.5-.2-.3-.3-.6-.3-1,0-.2-.2-.5-.2-.8,0-.7,0-1.3.2-2,.2.2.3.4.5.6,1,.8,2.1,1.4,3.3,1.8.9.3,1.8.9,2.4,1.6,0,0,0,0,.1,0-.1-1.1-.2-2.2-.3-3.4,0,0-.2,0-.3,0-1.1,0-2.1-.4-3.1-1-.6-.4-1.1-.8-1.6-1.4-.6-.7-1-1.4-1.1-2.3-.1-.8-.2-1.6,0-2.4,0-.3.2-.7.4-1,.4.5.8.9,1.2,1.4.5.6,1.2,1,1.8,1.5.6.4,1.2.8,1.7,1.3.2.3.4.7.6,1,0,0,0,.1.1.2v-2.8c0,0-.2-.2-.3-.2-.7,0-1.2-.3-1.6-.7-.8-.6-1.5-1.4-2-2.3-.3-.6-.5-1.1-.6-1.8,0-.4,0-.7,0-1.1,0-.7.2-1.3.5-1.9.3-.6.6-1,1-1.5,0,0,.1-.1.2-.2.3,1.5,1,2.7,1.9,3.8.5.7,1,1.5,1.2,2.4,0,.3,0,.7.1,1.1,0,.4-.1.8-.2,1.2.2-.4.2-.8.3-1.2,0-.4.1-.8.2-1.1.2-.7.4-1.3.6-2-2.2-1.5-3.2-3.5-2.9-6.1.2-1.7,1.1-3,2.5-4,0,.5.1,1,.2,1.4.2,1,.5,1.9.9,2.8.4.8.6,1.5.6,2.4,0,0,0,.2,0,.3.4-.6.7-1.2,1.1-1.9,0,0-.2-.2-.3-.3-.6-.7-1-1.4-1.3-2.3-.3-.8-.3-1.6-.2-2.4,0-.9.4-1.7.9-2.5.4-.6.9-1.2,1.5-1.6.4-.3.9-.6,1.4-.9-.1.7-.2,1.3-.2,1.9,0,.6,0,1.2.2,1.8.2.9.4,1.8.3,2.8,0,.1,0,.2,0,.4,0,0,.2,0,.2,0,.3-.3.5-.6.8-.9,0-.1.1-.3.1-.4.3-1.2.9-2.3,2-2.9.6-.4,1.3-.6,2-.6.4,0,.9,0,1.3,0,0,0,.2,0,.2,0-.4,0-.8.2-1.2.2-.6,0-1.1.2-1.7.4-1,.3-1.7,1.1-2.1,2.1-.1.3-.2.6-.2.9.1,0,.2,0,.3,0,.2-.2.5-.4.7-.5.7-.5,1.3-.9,2-1.4.2-.1.3,0,.4.2-.9.7-1.9,1.5-2.9,2.2.4,0,.8,0,1.1,0,.6,0,1.2-.2,1.8-.4,1-.4,1.6-1.2,1.8-2.3,0-.4.2-.8,0-1.2,0,0,0,0,.2,0,.2,1,.2,1.9-.6,2.7-.6.7-1.3,1-2.1,1.3-.6.2-1.3.3-1.9.4-.4,0-.8,0-1.1.1-.3.4-.7.8-1,1.2.1,0,.2,0,.3,0,.9-.5,2-.5,3-.5.5,0,.9,0,1.4,0,.6,0,1.1,0,1.7-.2.4,0,.7-.3,1.2-.4-.1.3-.2.5-.3.8,0,0,0,0,0,0-.3.8-.8,1.5-1.4,2.1-.5.5-1.1,1-1.8,1.3-.4.2-.8.3-1.2.5-.3,0-.6,0-.9.1-.2,0-.4,0-.6,0-1,0-1.9-.3-2.8-.8-.2-.1-.4-.3-.7-.2-.5.9-1,1.8-1.5,2.7,0,0,0,0,0,0,.1,0,.3-.2.4-.2.6-.5,1.2-.8,1.9-.9.6,0,1.1-.1,1.7-.2,1.2,0,2.5-.2,3.6-.7,0,0,.2,0,.4,0-.3.9-.6,1.8-1.1,2.5-.7,1.1-1.6,1.7-2.8,2.2-.8.3-1.6.5-2.5.4-.8,0-1.6-.2-2.2-.7,0,0-.2-.1-.4-.2-.3.9-.6,1.8-.8,2.8.3-.3.6-.5.9-.7.5-.4,1-.5,1.6-.7.5-.1,1.1-.3,1.6-.3.4,0,.8,0,1.2-.2.7-.2,1.4-.4,2-.9.2.5-.4,2.6-1.1,3.4-.8,1-1.7,1.8-2.9,2.1-1.2.3-2.4.3-3.7,0-.2,1.1,0,2.1,0,3.1,0,0,0,0,0,0,.1-.2.2-.3.3-.5.3-.5.8-.9,1.3-1.3.7-.5,1.5-.7,2.3-.9,1.3-.4,2.1-.8,3.3-1.8.1,1.7-.2,3.2-1.2,4.5-.4.6-1,1.1-1.6,1.5-.7.3-1.3.7-2.1.7-.7,0-1.5.2-2.2-.2.2,1.4.2,2.8.6,4.2.1-.3.2-.6.4-.9.1-.3.3-.6.5-.8.5-.6,1.2-1.2,1.9-1.6.9-.5,1.9-1,2.7-1.8.1-.1.2-.3.4-.5,0,0,.2-.2.3-.3,0,.4.2.8.3,1.1,0,.6,0,1.2,0,1.8-.1.8-.4,1.6-.9,2.4-.6,1-1.5,1.7-2.6,2.1-.7.3-1.5.5-2.2.4h-.3c.5,1.6,1.2,3.2,2.2,4.6,0-.2,0-.2,0-.3,0-1.5.6-2.7,1.7-3.7.4-.3.8-.7,1.2-1,.7-.6,1.2-1.4,1.7-2.2,0,0,0,0,0,0,.7.6,1.1,3,.8,4.3-.6,2.3-2,3.6-4.6,4.2.9,1.2,1.9,2.3,3.1,3.3,0-.3,0-.6,0-.8-.2-.7,0-1.4.2-2.1.2-.7.7-1.4,1.1-2,.4-.7.8-1.5.9-2.3,0-.3,0-.6,0-.8.6.2,2,2.2,2.1,3.8.2,2.3-.8,4.1-2.8,5.4,1,.7,2,1.4,3.1,2,.9.6,1.9,1,3,1.3.7.2,1.3.4,2,.6.7.2,1.3.3,2,.5.4,0,.7.2,1.1.4.8.3,1.5.6,2.3.9,0,0,.2,0,.3,0,0-.4,0-.8,0-1.2,0,0,0-.1,0-.2,0-.6,0-1.2,0-1.9,0-.9,0-1.8-.2-2.7,0-.3,0-.6-.1-.8-.6,0-1.1.4-1.5.8-.4.5-.7,1.1-.6,1.7,0,.4.1.8.2,1.1.2.7.4,1.4.7,2,0,0,0,0,0,.2-.4-.2-.6-.5-.9-.8-.6-.7-1-1.6-1.2-2.5,0-.2,0-.5,0-.7,0-.3,0-.6.2-.8.3-.7.8-1.2,1.4-1.5.3-.2.6-.3,1-.5,0,0-.1,0-.2-.1-.5,0-.8-.4-1.2-.7-.5-.3-.9-.6-1.3-1-.2-.2-.3-.5-.5-.8-.4-.8-.3-1.6-.3-2.3,0-.3.1-.6.3-.9.3-.5.6-1,1-1.4,0,0,0-.1,0-.2.4-.3.8-.5,1.2-.8-.4-.2-.8-.3-1.2-.5-.7-.2-1.2-.6-1.7-1.1-.6-.5-.9-1.2-1.2-1.9,0-.2,0-.4,0-.6,0-.3,0-.7.1-1.1,0-.1,0-.3.1-.4,0-.2.2-.3.1-.5,0,0,0-.1,0-.2.7-.8,1.3-1.7,2.2-2.3.5-.3.9-.6,1.4-.9-.8-.4-1.6-.7-2.4-1.1-1-.5-2-.9-3-1.5-1-.6-1.9-1.5-2.7-2.4-.5-.6-.8-1.1-1.1-1.8-.2-.7-.2-1.3,0-2,.3-1,1.1-1.6,2-2,.6-.2,1.1-.4,1.7-.4.4,0,.8,0,1.2,0,.2,0,.4-.1.5-.2.4-.2.9-.4,1.4-.4-.4.4-.8.8-1.2,1.2,0,.5-.1.9-.2,1.3-.1.7-.5,1.3-1,1.8-.6.6-.6,1.9,0,2.6.7.7,1.5,1.2,2.4,1.6.7.3,1.3.6,2,.9.1,0,.2,0,.4.1,0-.2,0-.3,0-.4,0-.7,0-1.3,0-2,0-.9-.1-1.8-.2-2.7,0-.9,0-1.8-.2-2.7,0-.6-.1-1.2-.2-1.8,0-.6,0-1.2,0-1.9h-4.6v-4.2c.8,0,1.7-.2,2.6-.3.8-.1,1.7,0,2.5-.3-.2,0-.3,0-.5,0-.7,0-1.2-.2-1.8-.5-1-.4-1.9-.8-2.8-1.3-1.2-.7-2.3-1.6-3.3-2.6-.6-.6-1.1-1.3-1.5-2.1-.5-.8-.8-1.7-1.1-2.7,0-.2-.1-.3-.2-.5-.4-.6-.6-1.3-.9-2,0-.3,0-.6,0-.9,0-.7.1-1.4.4-2,.4-.8.5-1.5.4-2.4,0-.3,0-.6-.2-.9.6.3,1.1.8,1.5,1.2.6.7,1,1.4,1.2,2.2.2.5.3,1,.1,1.6,0,.2,0,.3,0,.5,0,.3-.1.5-.2.9.2-.1.4-.2.5-.3.5-.3,1.1-.5,1.6-.7.5-.2,1-.3,1.6-.4.3,0,.7-.1,1-.1.7,0,1.3,0,2-.2.1,0,.3,0,.4,0,.8,0,1.6,0,2.4,0,.8-.1,1.7-.2,2.5-.7,0,0,.1-.1.2-.2-.2-.3-.3-.7-.5-1-.4-.6-.5-1.2-.7-1.9-.2-.8,0-1.6.3-2.3.3-.7.6-1.4.5-2.2,0-.4,0-.8,0-1.3.2.1.5.2.6.5,0,0,0,.1.1.2.8.5,1.2,1.3,1.7,2.1.4.8.5,1.6.4,2.5-.1,1-.5,1.9-1.1,2.7-.2.3-.5.5-.8.8.4.5.9.8,1.5.9.7.1,1.4.2,2.1.2s1.6,0,2.4,0c.8,0,1.7.3,2.5.5.9.2,1.7.6,2.5.9.5.2,1,.5,1.5.8,0,0,.2,0,.3.1-.3-.7-.5-1.2-.6-1.9-.2-1.2.1-2.3.8-3.4.5-.8,1.2-1.5,2-2,0,.5,0,.9,0,1.4,0,.8.2,1.5.5,2.2.3.7.4,1.4.3,2.2,0,.7-.3,1.4-.6,1.9-.5.7-.6,1.6-.8,2.3-.3.9-.8,1.8-1.3,2.6-.6.9-1.4,1.6-2.3,2.3-.5.4-1.1.7-1.6,1-.7.4-1.4.7-2.2,1-.4.2-.9.2-1.3.4-.5.1-1,.2-1.4.4-.2,0-.5,0-.7,0h0c1.8.2,3.5.4,5.3.5v4.3c-1.6,0-3.1,0-4.6,0,0,.4,0,.8,0,1.1,0,.1,0,.2,0,.4,0,.5-.1,1.1-.1,1.6,0,.1,0,.3,0,.4,0,.6-.1,1.2-.2,1.8,0,.3,0,.7,0,1,0,.5,0,1,0,1.5,0,.8-.1,1.5-.2,2.3,0,.3,0,.6,0,.9,0,0,0,.1,0,.2.8-.3,1.5-.6,2.2-1,.7-.3,1.3-.7,1.9-1.3.6-.7.6-1.6.3-2.4-.2-.3-.4-.6-.7-.8-.4-.4-.6-.9-.6-1.5,0-.3,0-.6-.1-.8,0-.4-.4-.7-.7-1-.2-.1-.3-.3-.5-.5.8-.1,1.3.3,1.9.6.9,0,1.7,0,2.6.3,1,.3,1.8.8,2.3,1.7.1.3.2.6.3,1,0,.4,0,.7,0,1.1-.1.6-.4,1.1-.7,1.6-.6,1-1.5,1.7-2.4,2.5-.4.4-.9.7-1.4.9-.8.4-1.7.8-2.5,1.2-.7.3-1.4.6-2.1,1,.1.1.2.2.4.3.9.5,1.7,1.1,2.4,1.9.6.7,1,1.6,1.2,2.6.2,1.3-.7,2.9-1.6,3.6-.8.5-1.6.9-2.5,1.2.2.2.5.4.7.5.6.4,1.1.9,1.5,1.6.3.5.4,1,.4,1.6s0,1.2-.2,1.7c-.2.6-.5,1.1-1.1,1.5-.1,0-.2.1-.3.2-.6.5-1.2.9-2.1,1.2.1,0,.2.1.3.1.5,0,.8.4,1.2.6.5.3.8.7,1,1.2.1.3.3.6.3,1,0,.3,0,.6,0,.9-.3,1.1-.8,2-1.7,2.8,0,0-.2,0-.3.2.3-.9.6-1.8.8-2.6.3-1,0-1.9-.7-2.7-.2-.2-.5-.3-1.1-.6,0,.3,0,.7-.1,1,0,.9-.1,1.8-.2,2.7,0,.6,0,1.3-.2,1.9,0,.4,0,.8-.1,1.2.3-.1.6-.2.9-.3.4-.1.8-.2,1.2-.4.4-.1.7-.3,1.1-.4.3-.1.6-.2.9-.3.4-.1.8-.2,1.2-.3.2,0,.4,0,.6-.2h.4c2.8-.6,5-2.2,7.3-3.7-.8-.5-1.4-1.1-1.9-1.8-.4-.6-.7-1.1-.8-1.8,0-.6-.2-1.2,0-1.8,0-.6.3-1.2.5-1.7.2-.6.7-1.2,1.1-1.7.2-.2.3-.3.5-.6.1,1,.4,2,.9,2.8.3.5.6,1,.9,1.5.4.8.7,1.6.6,2.5,0,.4-.1.8-.2,1.2.5-.1,2.6-2.3,3.1-3.2-2-.4-3.5-1.5-4.2-3.4-.7-1.8-.4-3.5.4-5.2.1.2.3.4.4.6.5,1,1.3,1.8,2.1,2.4.9.7,1.7,1.6,2,2.8,0,.3.1.6.1.8,0,.2,0,.5,0,.7.7-.5,2.2-3.8,2.1-4.5-.4,0-.8,0-1.1,0-.7-.1-1.4-.3-2.1-.7-.9-.6-1.7-1.3-2.1-2.3-.2-.4-.4-.8-.5-1.3-.2-1.1-.3-2.3.1-3.4,0,0,0,0,0-.1.3.3.5.6.8.9.3.3.7.6,1,.8.5.3,1.1.7,1.6,1,1,.6,1.8,1.2,2.3,2.3.1.3.3.7.4,1,.3-.7.5-3.4.5-4.1-.6,0-1.2,0-1.8,0-.7,0-1.4-.2-2-.5-1.2-.6-2.1-1.5-2.7-2.7-.3-.6-.6-1.3-.6-2.1,0-.4,0-.8,0-1.2,0-.1,0-.2,0-.3.5.3.9.7,1.4,1,.7.4,1.5.7,2.2.9.8.2,1.6.5,2.3,1,.4.3.8.7,1.1,1.2s.2.2.3.4v-3.2c-2.4.8-4.6.4-6.3-1.5-1-1.1-1.4-2.4-1.6-3.9.3.1.6.2.8.4.4.2.8.3,1.3.5.7.2,1.4.4,2.2.4.8,0,1.5.3,2.2.7.4.2.7.5,1,.8,0-.3-.4-2-.7-2.7-.2.1-.5.2-.7.4-.5.2-1,.4-1.5.5-.3,0-.7,0-1,0-1.2,0-2.2-.4-3.2-1.1-.6-.5-1.1-1-1.6-1.7s-.6-1.4-.9-2.2c0,0,0-.1,0-.2.8.4,1.7.6,2.6.7.6,0,1.2,0,1.9,0,1.3,0,2.5.5,3.5,1.4,0-.3-1.1-2.4-1.7-3-.2.1-.5.3-.7.4-.5.3-1.1.4-1.6.5-.4,0-.8.1-1.1.1-.9,0-1.7-.3-2.4-.7-.7-.3-1.3-.8-1.9-1.4-.7-.7-1.2-1.6-1.5-2.6,0,0,0,0,0-.2.9.4,1.8.6,2.7.6s1.6,0,2.5,0c.6,0,1.1,0,1.6.4.1,0,.3,0,.5.2,0,0,0,0,0,0-.4-.4-.7-.8-1.1-1.2h-1.1c-1.2,0-2.4-.4-3.4-1.1-1-.7-1.4-1.7-1.3-2.9,0-.1.1-.3.1-.4,1.2,0,2.4,0,3.5.6,1,.5,1.7,1.3,2.1,2.4,0,.2.1.5.2.7,0,.1,0,.3.2.3.3.3.6.6.9,1,0,0,0-.2,0-.2-.2-.9,0-1.7.2-2.6,0-.3.1-.6.1-.9,0-.7,0-1.4,0-2.2,0-.2,0-.5-.1-.7,0-.1,0-.2,0-.4,1.2.6,2.2,1.5,2.9,2.6.4.7.6,1.4.8,2.1.1.5.1,1,0,1.6,0,.7-.3,1.3-.5,1.9-.3.6-.6,1.2-1.2,1.7,0,0,0,0-.1.1.4.6.7,1.2,1.1,1.9,0,0,0,0,0,0,0-.5.1-1,.2-1.5,0-.3.2-.6.3-.8.3-.7.6-1.3.8-2,.2-.7.4-1.5.4-2.3,0,0,0,0,0-.2.7.1,2,2,2.3,2.9,1,3.1-.7,6-2.6,7.1,0,.2,0,.4.1.6.3.8.5,1.6.6,2.4,0,0,0,.1,0,.2,0,.4.1.7.2,1.1,0,0,0,0,.1,0,0-.4-.1-.8-.2-1.1h0ZM124.8,57.6s0,0,0,0c0,0,0,0,0,0h-.6s0,0,0,0c-.1,0-.3,0-.4,0h-.4c.2,0,.3,0,.4.1.2,0,.5.2.7.2.3,0,.6,0,.9-.3-.2,0-.3,0-.5,0h0ZM123.6,50.4c-1.2-3.2.7-5.5,2.3-6.5,0,.2,0,.4,0,.6,0,.4,0,.8,0,1.2,0,.7.4,1.3.6,1.9.2.6.3,1.2.2,1.8,0,.3,0,.6-.1,1,.8-.4,1.4-.8,2.1-1.1.7-.3,1.5-.5,2.3-.7.1,0,.3,0,.4,0,.9-.1,1.8-.3,2.7-.4.6,0,1.3-.2,1.9-.4.8-.2,1.5-.5,2.2-.8.3-.1.7-.2,1.1-.3-.2-.2-.3-.3-.4-.3-.5-.3-1.1-.6-1.6-1-.8-.5-1.6-.8-2.4-1.1-1.2-.5-2.5-.7-3.8-.8-.8,0-1.5,0-2.3,0-.5,0-1,0-1.4,0-.7,0-1.3-.3-1.8-.8s-.2-.1-.2-.2c-.3.2-.6.3-.9.4-.4.2-.8.2-1.3.2-.5,0-1,.2-1.5.2-.8,0-1.6,0-2.4,0s-1.3,0-1.9.2c-.9.2-1.8.2-2.7.6-.7.3-1.2.6-1.8,1.1-.5.5-.9,1-1.2,1.7.1,0,.3.2.4.2.5.2.9.3,1.4.5.9.3,1.9.5,2.8.7.6.1,1.1.3,1.7.4.7.1,1.4.2,2.1.3.3,0,.7,0,1,.2.9.2,1.7.7,2.4,1.3h0ZM139.3,47.4c-.1,0-.2,0-.3,0-.3.2-.6.3-.8.5-.6.4-1.3.8-1.9,1.1-.6.3-1.2.5-1.8.8-.7.4-1.4.5-2.1.8-.6.2-1.1.2-1.7.3-1,.2-2,.4-2.9.8-.7.3-1.3.7-1.8,1.3,0,0-.2.2-.3.3-.1-.1-.2-.2-.3-.3-.2-.3-.5-.6-.8-.8-.2-.1-.5-.3-.7-.5-.5-.4-1.2-.5-1.8-.6-.8-.1-1.7-.2-2.5-.2-.9,0-1.8-.2-2.7-.4-1.4-.4-2.7-1.1-3.9-2-.3-.2-.6-.5-1-.7,0,.3.1.7.2.9,1.1.4,1.7,1.1,1.7,2.3.2,0,.4,0,.5,0,.3,0,.6,0,.8.1.7.3,1.1.8,1.2,1.6,0,0,0,.1,0,.2,1.5-.6,2.9,0,3.3,1.8.4-.3.8-.7,1.3-.8.5,0,1-.1,1.4.3.4.3.7.7,1.1,1.1.2-.8.8-1.3,1.6-1.6.5,0,1,0,1.5.3.5.2.7.7,1,1.2.2-.3.5-.6.7-.8.4-.3.8-.5,1.2-.3.5.2.9.4,1.4.6.3-.5.5-1.2,1.2-1.3.6-.2,1.3,0,1.9.2.3-.4.2-1,.5-1.4.4-.4.7-.7,1.2-.8.5-.2,1,0,1.5,0v-.4c0-.2,0-.5,0-.7.2-.7.7-1.1,1.4-1.4.1,0,.2-.1.4-.2-.1-.5-.3-.9,0-1.3h0ZM121.8,61c.2.2.2.2.3.3,0,.5,0,1,.1,1.5,0,.9.1,1.8.2,2.7s0,.9,0,1.4c1.1.6,2.2.8,3.4.6,1-.1,1.9-.4,2.7-.9.2-1.9.3-3.8.5-5.7,0,0-.1,0-.2,0-2.2,0-4.3,0-6.5,0-.2,0-.3,0-.5.1h0ZM122.6,68.9c0,.4,0,.8,0,1.2,0,.6.1,1.2.2,1.9,0,.7,0,1.4,0,2.1,0,.1,0,.2,0,.3,1.8-.6,3.5-1.2,5.1-2,.1-1.3.2-2.5.3-3.7-.1,0-.2,0-.2,0-.5.2-1.1.5-1.6.5-.4,0-.7.2-1.1.2-.8,0-1.5-.2-2.3-.4-.2,0-.3,0-.5-.1ZM127.2,82.1c.1-1.4.2-2.8.3-4.2-.4.2-.8.3-1.1.5-.9.4-1.9.3-2.8,0-.2,0-.3-.1-.5-.2,0,1.2.2,4.9.3,5.3,1.2-.4,2.4-.8,3.7-1.3ZM136.6,59.4c0,.2,0,.3.1.4.2.4.4.7.7,1.1.7,1,1.7,1.7,2.9,2,.5.1,1,.2,1.5.1.4,0,.8-.1,1.1-.2.5-.1.9-.4,1.3-.7,0,0-.1-.1-.2-.1-.3,0-.6,0-1,0-.5,0-1,0-1.4,0s-.3,0-.3-.2c.5,0,1,0,1.5,0,.5,0,1,0,1.5.1-.2-.6-.6-.9-1-1.2-.8-.6-1.7-.9-2.8-.9-.6,0-1.2,0-1.8,0-.7,0-1.4,0-2.1-.3ZM101.8,77.5c1.4.4,2.8.3,4-.5,1.6-1.1,2.2-2.8,2.1-4.3,0,0,0,0-.1,0-.9.7-1.9,1-3,1.3-.5.1-1,.4-1.5.7-.6.4-1.1,1-1.5,1.6-.2.3-.2.7-.4,1,1-.4,1.9-.8,2.8-1.2,0,.3,0,.3-.2.3-.8.2-1.6.5-2.3,1h0ZM103.3,67h0c1.3.9,2.6,1.2,4.1.6,1.6-.6,2.7-1.8,3.2-3.5,0,0,0,0-.1,0-.9.3-1.9.5-2.9.5-.3,0-.6,0-.9,0-.4,0-.9.2-1.3.3-.8.3-1.4.9-1.9,1.6,0,.1-.1.3-.2.4.6,0,1-.2,1.5-.2.5,0,1-.2,1.5,0-.2.3-.6.1-.9.2-.3,0-.7,0-1,0-.3,0-.6.1-.9.2h0ZM144.1,53.1s0,0,0,0c0,0,0,0,0,0,.2,1,0,1.9-.2,2.9-.2.8-.4,1.6-.2,2.5.2,1,.7,1.8,1.4,2.5.1-1,.2-2,.3-3.1.1.1.2.2.2.2-.4,1.4-.4,2.4-.2,2.8.2-.2.4-.4.5-.6.6-.9.9-1.9.9-2.9,0-.3-.1-.6-.2-.9,0-.5-.3-1-.5-1.4-.4-.9-1.2-1.6-2.1-2.1h0ZM141.6,68.3c0,0,0,0,0,.1.1,1,.5,1.8,1.2,2.6.6.6,1.2,1.2,2,1.4.8.3,1.7.3,2.5.1.4,0,.8-.2,1.2-.5-.3,0-.5-.2-.8-.2-.6-.1-1.2-.2-1.8-.3,0,0-.1,0-.2-.1,0,0,0,0,0,0,1,0,1.9.3,2.9.7,0-.1,0-.2,0-.2-.3-.6-.6-1.1-1.1-1.5-.9-.8-1.9-1-3-1.1-1,0-1.9-.3-2.8-.8h0ZM104.6,61.1c0-.8,0-1.6-.2-2.4,0-.2,0-.3,0-.5,0,0,0,0,.1,0,0,0,0,.2.1.3.2.8.2,1.5.2,2.3,0,.1,0,.3,0,.4,0,0,0,0,.1,0,.3-.4.7-.8.9-1.3.5-.9.6-2,.4-3-.2-1.1-.4-2.2-.3-3.3v-.4c-1.6,1-2.6,2.4-2.7,4.2-.1,1.5.4,2.7,1.5,3.7h0ZM142.3,77.6c-.7,1.6.4,3.9,1.4,4.8,1.1.9,2.2,1.3,3.7,1.2-.1-.1-.1-.2-.2-.2-.5-.3-.9-.6-1.4-.9-.2-.2-.5-.3-.7-.5,0,0,0,0,0-.1,0,0,.1,0,.2-.1.8.6,1.6,1.1,2.4,1.7,0,0,0,0,0-.2,0-.7-.3-1.3-.6-1.9-.1-.2-.3-.5-.4-.7-.4-.4-.9-.8-1.4-1.1-.5-.3-1-.6-1.5-.9-.4-.3-.8-.6-1.2-.9,0,0-.1,0-.2,0h0ZM146.9,67c-.5,0-.9-.2-1.2-.2-.5,0-1,0-1.4,0,0,0-.1,0-.2-.1h0c1,0,2,0,3,.3-.7-1.2-1.6-2-2.9-2.3-.6-.1-1.3,0-2,0-.8,0-1.5-.2-2.2-.4,0,0-.2,0-.3,0,.2.9.6,1.7,1.2,2.3.7.7,1.5,1.2,2.5,1.4.2,0,.4.1.6.1s.6,0,.9,0c.7,0,1.4-.3,2.1-.8h0ZM148.3,66.1c1.7-1.2,2.3-2.8,2.2-4.8,0-1.3-.7-2.4-1.8-3.2,0,.1,0,.2,0,.2,0,.5-.1.9-.2,1.3-.2.6-.5,1.3-.7,1.9-.3.7-.5,1.3-.5,2,0,.8.2,1.6.6,2.3,0,.1.2.2.3.3.6-2.2.8-2.7,1.1-2.9-.1,1-.8,1.8-.8,2.8h0ZM107.8,77.4c-.3.3-.5.6-.8.8-.7.5-1.4.9-2.2,1.3-1.3.7-2,1.7-2.3,3.1,0,.2,0,.5,0,.7.8-.5,1.4-1,2.1-1.5.2-.1.3-.1.5,0-.9.6-1.7,1-2.4,1.7.2,0,.3,0,.4,0,.6,0,1.2-.1,1.8-.3,1.2-.4,2.1-1.3,2.6-2.4.1-.2.2-.5.3-.8,0-.3.2-.7.2-1.1,0-.4,0-.7,0-1.1,0-.2,0-.3-.1-.5h0ZM108.7,61.6c0,.3-.2.2-.3.2-.7,0-1.5,0-2.2,0-.1,0-.2,0-.4.1,2.9,2.2,6.7.2,7.6-2.5-.1,0-.2,0-.3,0-.6,0-1.3.2-1.9.2-.5,0-1.1,0-1.6,0-1.1,0-2,.3-2.8.9-.4.3-.7.7-1.1,1.2,1.1-.1,2.1-.2,3.1-.2h0ZM142.1,72.7c0,.1,0,.2,0,.3,0,.3,0,.7.1,1,.1.7.5,1.3.9,1.9,1.1,1.5,2.6,2.1,4.4,1.9.2,0,.5-.1.8-.2-.7-.5-1.5-.7-2.2-1-.1,0-.3-.1-.4-.2,0,0,0,0,0-.1,0,0,.2,0,.3,0,.7.3,1.4.7,2.2,1,.1,0,.2,0,.3.1,0-.5-.2-.9-.4-1.2-.4-.7-.9-1.2-1.5-1.6-.4-.2-.9-.4-1.3-.5-.9-.2-1.9-.6-2.6-1.2,0,0-.2,0-.4-.2h0ZM101.6,72.2c1.3.7,2.7.7,4.1,0,1.6-.7,2.5-2.1,2.8-3.9,0,0-.1,0-.2,0-.9.4-1.9.7-2.9.8-.5,0-1,.2-1.5.3-.8.2-1.4.8-1.9,1.5-.2.3-.4.5-.4.9.9-.2,1.9-.5,2.8-.7,0,.1,0,.2,0,.3-.9.1-1.9.2-2.7.7h0ZM100.9,63.4c0,0,.1,0,.2,0,.2.4.4.9.5,1.4.2.5.3,1,.4,1.5,0,0,.1-.1.2-.2.1-.2.2-.5.4-.7.4-.7.3-1.5.2-2.2-.1-.8-.5-1.6-.8-2.3-.3-.8-.7-1.5-.6-2.4,0,0,0-.1,0-.2-1.3,1.1-1.9,2.5-1.8,4.1,0,1.6.8,2.9,2.2,3.9,0-1.1-.5-1.9-.8-2.8h0ZM100.1,71.7c0-.2.1-.4.2-.5.3-1,.3-2.1-.2-3-.2-.4-.4-.8-.7-1.1-.6-.9-1.3-1.8-1.6-2.9,0,0,0,0,0,0,0,0-.2.1-.2.2,0,.1-.2.2-.3.3-.9,1.5-.8,3,0,4.5.5.9,1.3,1.7,2.2,2.2,0,0,.2,0,.3,0,0,0,0,0,0,0,0-.2-.1-.4-.2-.5-.3-.5-.6-1-.9-1.5,0,0-.1-.2-.2-.3,0,0,0,0,.1,0,.4.3.6.8.8,1.3.3.4.5.9.8,1.4h0ZM100.4,77.4c.2-1.3-.3-2.3-1.2-3.2-.4-.4-.9-.7-1.4-1.1-.7-.5-1.3-.9-1.8-1.6,0-.1-.2-.2-.4-.4-.1.5-.2,1-.3,1.4,0,.7,0,1.3.4,2,.5,1.1,1.4,1.9,2.4,2.5.4.2.9.4,1.4.4.2,0,.4,0,.6,0,0-.2-.1-.3-.2-.4-.5-.4-1.1-.8-1.6-1.3-.1,0-.3-.2-.3-.5.9.7,1.7,1.3,2.4,2h0ZM154.8,78.5c-.2.1-.3.2-.4.3-.3.3-.7.6-1.1.7-.2,0-.4.2-.7.3-.3.1-.6.3-.9.4-.8.3-1.6.8-2.2,1.5-.5.5-.7,1.2-.8,1.9.1,0,.2,0,.2,0,.6-.3,1.2-.7,1.8-1,.2,0,.4-.2.5-.2,0,0,.1,0,.2,0-.9.5-1.8.8-2.6,1.4.1,0,.2,0,.2,0,.4,0,.7,0,1,0,.3,0,.6-.2.8-.2.6,0,1.1-.3,1.6-.6.9-.6,1.5-1.3,1.9-2.3.2-.7.3-1.4.3-2.2h0ZM149.9,71.6c0-.2.1-.2.2-.3.4-.7.8-1.4,1.2-2.2,0-.1.1-.3.4-.2-.5.8-1.1,1.6-1.4,2.5.1,0,.1,0,.2,0,1.1-.5,1.9-1.4,2.5-2.4.4-.7.4-1.4.5-2.2,0-1-.4-1.9-1-2.7,0,0-.1,0-.2-.1,0,.2-.1.4-.2.6-.4.8-.9,1.7-1.4,2.4-.4.5-.7,1-.9,1.6-.3,1-.2,2,.2,3h0ZM101.4,83.6c0-.1,0-.2,0-.3-.2-1-.7-1.8-1.5-2.3-.6-.4-1.2-.7-1.8-.9-.9-.3-1.7-.7-2.4-1.3,0,0-.2,0-.2,0,0,0,0,0,0,.1,0,.9,0,1.8.6,2.6.6.9,1.3,1.6,2.3,2,.9.4,1.9.5,2.9.3-.3-.2-.6-.4-.9-.6-.4-.2-.9-.4-1.4-.6,0,0-.1-.1-.2-.2,0,0,.1,0,.2-.1.9.5,1.7.9,2.7,1.4h0ZM105.8,89.3c1.5-.4,2.7-1.2,3.3-2.6.6-1.4.6-2.8,0-4.2-.6,1.1-1.4,1.8-2.3,2.6-.7.6-1.2,1.3-1.5,2.2-.2.6-.1,1.2,0,1.8.1,0,.2,0,.3-.2.5-.5,1-1.1,1.5-1.6,0,0,.2-.1.3-.2,0,0,0,0,0,0-.2.4-.6.6-.9,1-.3.3-.6.7-1,1.1.2,0,.3,0,.3,0h0ZM154.5,71.2c-.1,0-.2.1-.2.2-.6.8-1.4,1.4-2.3,1.9-.6.4-1.2.8-1.6,1.4-.6.8-.8,1.6-.7,2.6.4-.4.8-.8,1.2-1.1.4-.3.8-.7,1.3-.8,0,.1-.1.3-.2.3-.4.3-.9.7-1.4,1-.2.2-.4.4-.6.6,0,0,0,0,0,0,1.6-.1,2.9-.9,3.9-2.1.9-1.2,1.1-2.6.6-4.2h0ZM144.7,89.1h.1c0-.5,0-.9,0-1.3,0-.2,0-.5-.1-.8-.3-1-1.1-1.8-1.9-2.4-.6-.5-1.1-1-1.5-1.6-.1-.2-.2-.3-.4-.6-.4,1.1-.7,2.1-.4,3.2.2.7.4,1.3.9,1.9.8.9,1.7,1.4,2.8,1.8,0,0,.2,0,.3,0-.5-.8-1.2-1.4-1.9-2,0,0,0,0,0-.1,0,0,0,0,.1,0,.7.6,1.4,1.3,1.9,2.1h0ZM110.9,86.3c0,.3,0,.5-.2.6-.3.9-.7,1.7-1.2,2.5-.4.7-.7,1.3-.7,2.2,0,.6.1,1.1.3,1.6,0,.2.1.4.3.6.4-.8.8-1.7,1.1-2.5,0,0,.1,0,.2,0,0,0,0,0,.1,0-.2.4-.5.8-.7,1.2-.2.4-.4.8-.4,1.3,1.7-.8,2.5-2.2,2.5-4,0-1.3-.4-2.4-1.4-3.5h0ZM140.3,93.8c-.2-.7-.5-1.4-.9-2-.1-.2-.2-.3-.1-.6.4.3.5.8.7,1.2.2.4.4.9.6,1.4.6-.9.6-1.9.5-2.9,0-.2-.1-.5-.3-.7-.4-.7-.8-1.3-1.1-2-.3-.6-.5-1.2-.7-1.8-.6.5-.9,1.2-1.2,1.9-.3.8-.2,1.7,0,2.5.4,1.4,1.7,2.8,2.5,2.9h0ZM148.6,88.9s0,0,0,.1c-.9.2-1.8.5-2.6.7,0,0,0,.1,0,.1.9.3,1.8.4,2.7.2.8-.2,1.4-.4,2.1-.9,1-.7,1.4-1.7,1.6-2.8,0-.1,0-.2,0-.4-.2,0-.3.2-.4.2-.7.3-1.5.5-2.3.7-.6.1-1.2.2-1.8.4-1,.4-1.8,1.2-2.2,2.3,1-.4,1.9-.7,2.9-.8h0ZM108.5,94.9c-.5,0-1,0-1.5,0-.4,0-.9.2-1.3,0,.4,0,.8-.1,1.2-.1.5,0,1,0,1.5,0s.2,0,.3,0c-.6-.7-1.2-1.1-2-1.3-.9-.2-1.7-.2-2.6,0-.8.1-1.6.3-2.4.1-.2,0-.3,0-.6,0,.2.3.2.5.4.8.3.5.7.9,1.2,1.2.6.4,1.2.6,2,.7.9,0,1.8-.1,2.6-.4.4-.2.9-.3,1.2-.8h0ZM104.2,89.6c-.2-.6-.4-1.1-.8-1.5-.7-.7-1.6-1-2.6-1.2-1.1-.2-2.1-.4-3.1-.9,0,0,0,0-.2,0,0,0,0,0,0,.1,0,.2.1.4.2.6.3,1.5,1.3,2.4,2.7,3,.5.2,1.1.3,1.6.4.7-.2,1.4,0,2.1-.4-.8-.3-1.5-.6-2.3-.6-.2,0-.3,0-.4-.3,1,.2,2,.4,2.9.8h0ZM144.3,95.1c-.9-.2-1.8-.3-2.8-.2,0,0,.1.1.1.1.4.3.9.5,1.3.7,1.2.4,2.3.5,3.5,0,.6-.3,1.2-.6,1.6-1.1.3-.3.5-.7.7-1.1-.1,0-.2,0-.3,0-.3,0-.7,0-1,0-.7,0-1.4-.2-2.1-.3-1.2-.2-2.4,0-3.4.7-.2.2-.5.4-.7.7,1,0,2,0,3,.1,0,0,0,.2,0,.3h0ZM121.3,57.7c.4,0,.8-.2,1.1-.2.3,0,.5-.2.7-.3.3-.2.6-.4.9-.5.8-.3,1.6-.4,2.4-.3.2,0,.3.1.4.1.7,0,1.3.3,1.9.6.3.1.6.3.9.3.6,0,1.3.1,1.8.5.3-.4.7-.4,1.1-.4.4,0,.8.2,1.2.3v-1.1c-.2,0-.5,0-.7,0-.6,0-1.2-.2-1.8-.2-.8,0-1.6-.1-2.4-.2-.8,0-1.5,0-2.2,0-1.3,0-2.6,0-3.8.1-.8,0-1.7,0-2.5,0h-.2c-.4,0-.9,0-1.3.1-.6,0-1.2,0-1.8.2,0,.8,0,.8,0,1,.3-.1.6-.2.9-.4.6,0,1.2,0,1.7.3.6.3,1.1.2,1.5,0h0ZM124.1,51.6s0,0,0,0c-.2-.2-.4-.3-.6-.5-.6-.6-1.3-1-2.1-1.3-.5-.2-1.1-.2-1.6-.3-.4,0-.8-.1-1.3-.2-.5,0-.9-.2-1.4-.3-.6-.1-1.1-.2-1.7-.3-.7-.2-1.3-.4-2-.6-.3,0-.6,0-.9-.2,0,0,0,0-.2,0,.5.5,1,.8,1.6,1.2.5.3,1,.6,1.5.8.5.2,1,.4,1.6.5.6.2,1.2.2,1.8.3.8.1,1.7.2,2.5.2.4,0,.8.1,1.2.2.5.2,1,.4,1.5.5ZM138.4,55.9c.3-.3.5,0,.7,0,.9.5,1.8,1.1,2.5,1.8,0,0,.1,0,.2,0,0-.1,0-.2,0-.3-.2-.5-.3-1.1-.6-1.5-.6-.8-1.4-1.2-2.4-1.4-.7-.1-1.4-.2-2.2-.3,0,.4,0,.8.1,1.1.2,1.5,1.2,2.3,2.6,2.7.3,0,.6.1,1,.2.4,0,.7,0,1.1,0h0c-.9-.8-1.8-1.5-2.8-2.3h0ZM124,92.2c.8,0,1.7-.2,2.4-.7.1-1.3.2-2.7.3-4.1-.5.1-1,.3-1.5.4-.5,0-1,0-1.5-.3-.1.3-.1.6,0,.9,0,.3,0,.7,0,1,0,.9.1,1.8.2,2.7h0ZM125.7,52.5h0c.2,0,.3-.1.4-.3.8-.7,1.8-1,2.8-1.3.4,0,.8-.1,1.1-.2.5-.1,1.1-.3,1.6-.4.7-.2,1.4-.2,2-.5,1.1-.4,2.1-1,3.1-1.5.2,0,.3-.2.5-.3,0,0,0,0,0,0-.1,0-.2,0-.3,0-.7.2-1.3.4-2,.6-.8.2-1.6.2-2.4.3-.9,0-1.7.2-2.6.5-1,.3-2,.6-2.8,1.3s-.4.3-.6.5c-.4.4-.7.9-1,1.4ZM124.1,95c0,.5,0,.9.1,1.3,0,.7,0,1.3,0,2v.2c0,.7.1,1.3.2,2,0,.5,0,1.1,0,1.6,0,0,0,.1,0,.1h.9c0-.2,0-.4.1-.6,0-.8.1-1.6.2-2.5,0-.4,0-.8,0-1.2,0-.5,0-1.1.2-1.6,0-.3,0-.6,0-.9,0,0,0-.2,0-.3-.7.1-1.3.2-1.9-.2h0ZM125,103.2c-.8,0-1.2.3-1.5.8-.3.6-.3,1.5.5,2.1.5.4,1.1.4,1.7.2.8-.2,1.3-1.3,1.1-2-.3-.7-.8-1.2-1.7-1.2h0ZM128.4,67.1c-1,.3-2,.7-3,.8-1,0-2-.2-3.1-.6,0,.2,0,.4,0,.6,0,.2,0,.3,0,.5,2,1,4,.8,5.9-.2,0-.4,0-.7,0-1.1h0ZM122.6,82v-1.1c0,0,0-.2,0-.3,0-.2,0-.3,0-.4,0-.1,0-.3,0-.5,0-.8,0-1.5,0-2.3,0,0,0-.2,0-.3-.2.2-.3.2-.5.4-.7.8-1.2,1.6-1.2,2.7,0,.8.8,1.5,1.5,1.6.2,0,.3,0,.4.1h0ZM122.9,86.2c0,0-.2,0-.2,0-.4.4-.9.8-1.2,1.3-.3.6-.4,1.3,0,1.9.4.8,1,1.3,1.7,1.7,0,0,0-.2,0-.2,0-.7,0-1.4-.1-2.2,0-.8,0-1.5,0-2.3v-.3h0ZM125.1,51.8s0,0,.1,0c0-.5,0-1.1,0-1.6,0-.7,0-1.3-.3-2,0-.2,0-.4,0-.6,0-.7,0-1.4.2-2.1-.1,0-.2,0-.3,0-.6.7-1,1.5-1.1,2.4-.2,1.4.3,2.6,1.2,3.6,0,0,.1.1.2.2ZM111.7,40.1s0,0-.1,0c0,.1,0,.3,0,.4.1.8,0,1.6,0,2.4,0,.3-.1.6-.2.8,0,.4-.1.8-.2,1.2,0,.4,0,.8,0,1.3.6,0,1.4-1.5,1.5-2.5.2-1.4-.2-2.6-1.1-3.7h0ZM125.9,35c0,.2,0,.3,0,.3,0,.3.1.5.1.8,0,1.1-.2,2.2-.3,3.3,0,.6,0,1.3,0,1.9,2-1.5,1.9-4.6.2-6.3ZM139.6,46.2s0,0,.1,0c0-.4-.1-.9-.1-1.3,0-.8-.3-1.7-.4-2.5,0-.5,0-1,0-1.5s.2-.6,0-.9c-1.1,1.3-1.5,2.8-1,4.3.2.8.6,1.5,1.3,1.9h0ZM127.1,91.1c.7-.2,1.7-1.1,1.8-2.1.1-1.1-.5-1.9-1.4-2.6-.1,1.6-.3,3.1-.4,4.7h0ZM123.1,77.8c.3.1.5.2.8.3.5.1,1,.3,1.5.3.5,0,1-.2,1.5-.4,1-.5.9-.2.9-1.4,0,0,0,0,0,0,0,0-.2,0-.3.1-.5.2-1,.5-1.6.6-.4,0-.7.1-1.1,0-.3,0-.6-.1-.9-.2-.2,0-.4-.1-.7,0,0,.3,0,.6,0,.8ZM128.3,77.6c0,0,0,.1,0,.2,0,.8-.1,1.5-.2,2.3,0,.6,0,1.2-.1,1.7,0,0,0,.1,0,.2.2,0,.4,0,.6-.1,0,0,0,0,.1-.1.3-.3.7-.6.8-1.1.1-.5,0-.9-.2-1.3-.2-.6-.6-1.1-1-1.6h0ZM123.9,55.8c.4.2.8,0,1.1.1.4,0,.8,0,1.2,0h1.2c0-.9-.6-1.5-1.7-1.8-.6-.1-1.4.6-1.8,1.7h0ZM125.8,51.4c0,0,0-.1,0-.2.3-.6.5-1.2.6-1.9,0-.7-.2-1.4-.5-2.1-.2-.5-.4-1-.4-1.5,0,0,0-.1,0-.2-.2.2-.2.5-.3.7-.2.7,0,1.4,0,2.1.1,1,.3,2,.5,3.1h0ZM125.4,35.1c-.3,1.2-.5,2-.8,2.5-.4,1.2-.2,2.3.4,3.3,0-.1.1-.2.1-.3,0-.7.1-1.3.2-2,.1-.7.3-1.4.2-2.1,0-.2,0-.5,0-.7,0-.2,0-.5-.1-.7h0ZM110.8,45.9v-.4c0-.7.1-1.3.3-2,.2-.8.2-1.6.2-2.5s0-.4,0-.6c0,0,0-.2-.2-.3,0,.1,0,.2,0,.2-.1.6-.2,1.2-.6,1.8-.3.5-.4,1-.4,1.5s.3,1.4.6,2c0,0,0,0,.2.2h0ZM123.5,85.7c.4.4.9.5,1.4.6.6,0,1-.2,1.5-.4.4-.2.5-.3.5-.7v-.7h-.4c-.2,0-.3,0-.5.1-.3,0-.6,0-.9.2-.5.2-1,.5-1.6.8h0ZM140,40h0c0,.2,0,.3-.1.4-.2.7-.2,1.4-.1,2.1,0,.2,0,.5.1.7.1.7.2,1.5.4,2.2,0,0,0,.2.1.3,0-.1.2-.2.2-.3.1-.4.3-.9.4-1.3,0-.4,0-.8,0-1.2,0-.3-.3-.7-.4-1-.2-.5-.5-1-.4-1.6,0,0,0-.2,0-.2h0ZM119.9,55.2c1.1.4,2.2.6,3.4.7-.7-1.7-2.2-1.9-3.4-.7ZM119.4,55s0,0,0,0c0-.2-.1-.5-.2-.7-.2-.4-.4-.7-.8-.9-.4-.2-.8-.2-1.2-.1-.3,0-.6.1-.9.2,0,0,0,0,0,.1,1,.6,2,1.1,3.1,1.5h0ZM127.8,75.1c-1.3.5-2.5,1-3.8,1.5.6.4,1.1.3,1.7.2.7-.1,1.4-.4,2-.9,0-.3,0-.5.1-.8ZM123.6,86.3s0,0,0,.1c0,.2,0,.5.1.7,0,0,.1.2.2.2.9.4,1.8.4,2.7-.2,0,0,.2-.2.2-.3,0-.2,0-.4,0-.6-.4.2-.8.3-1.3.4-.6,0-1.3,0-1.9-.4ZM134.6,53.7c.8-.2,2.3-1.4,2.5-2-1.7-.3-2.5.7-2.5,2ZM130.9,55.3c-.4-.4-.8-.6-1.3-.7-.2,0-.5,0-.7,0-.5.2-.9.6-1.1,1.3,1-.2,2-.4,3-.5ZM134.1,54.1c-1.3-.7-2.2-.6-2.7,1.1,1-.3,1.9-.6,2.7-1.1ZM116,53.4c.3-1.5-1.1-2.2-2.2-1.9.7.7,1.4,1.3,2.2,1.9ZM124.1,93.6c.8.5,1.5.4,2.2-.2v-.6c-.7.2-1.4.4-2.2.6,0,.1,0,.2,0,.3ZM124,94.3c0,.2.2.4.3.5.2.1.6.3.8.2.3,0,.7-.2,1-.3,0-.2,0-.4,0-.6-.7.2-1.3.7-2,0,0,0-.1,0-.2.2ZM118.1,59.5c.1.1.3.3.4.4.6,0,.7-.3.7-1-.2-.2-.6-.3-.8-.2-.3.1-.3.4-.3.8h0ZM130.4,59.6c0-.2,0-.5-.1-.6-.1-.1-.4-.2-.6-.3-.2.3-.3.5-.4.7.2.5.4.6.7.6.1,0,.2,0,.3,0,0,0,.1-.2.2-.3h0ZM126.6,58.9c-.4-.2-.7-.2-.9,0,0,0,0,.2-.1.3.2.7.4.8,1.1.5.2-.3.2-.6,0-.8h0ZM133.1,58.9c-.2,0-.5,0-.7,0-.1.2-.2.4-.4.6.1.2.3.4.4.5.8,0,1-.3.7-1.1h0ZM122.6,59.9c.3-.2.3-.4.3-.7,0-.2-.2-.4-.4-.4-.3,0-.6.1-.7.5,0,.2.2.4.2.6h.6ZM113.5,51.1c0-1-.6-1.9-1.4-1.9.4.6.8,1.3,1.4,1.9ZM139,49.3c-.7,0-1.5,1.1-1.2,1.8.5-.5.9-1.2,1.2-1.8ZM134.6,65.6c-.5.2-.6.5-.5,1,.1.1.3.3.5.5.2-.1.5-.2.6-.3.1-.2.1-.4.1-.7,0-.3-.4-.5-.8-.5h0ZM114.8,66.5c.3.4.5.5.9.4.4-.2.5-.6.4-.9,0-.3-.4-.5-.8-.4-.5.2-.6.5-.5,1h0ZM127.7,57.7c.3.1.5.2.6.3.2-.1.3-.2.5-.3,0,0,0,0,0,0,0,0-1.1,0-1.1,0Z"/>
        <path class="cls-4" d="M86.5,91.5c.6-1.5,1.2-2.9,1.8-4.4.1,0,.2,0,.3.2.6.6,1,1.3,1.4,2,.6,1.1,1,2.3,1.4,3.4.3.8.7,1.5,1,2.3.2.5.5,1,.8,1.4.4.7,1,1.1,1.8,1.4,1.1.4,2.2.7,3.3,1.1.7.2,1.3.5,1.8.9.4.3.6.8.7,1.2.2,1-.2,1.9-.7,2.7-.6.9-1.4,1.6-2.3,2.2-.4.3-.9.6-1.4.9.4.1.9.3,1.3.4.3,0,.7.2,1.1.2,0,0,0,0,.2,0,.6,0,1.2,0,1.8,0,.7,0,1.3.1,2,.2.4,0,.8,0,1.2,0,.5,0,.9.1,1.4.2.5,0,1.1.2,1.6.3.6.1,1.2.3,1.7.5.8.3,1.6.5,2.4.8.6.2,1.1.5,1.6.8.6.4,1.2.8,1.8,1.2.6.4,1.1.9,1.7,1.3,1,.7,2,1.4,3.2,1.9.6.2,1.1.4,1.6.7.7.3,1.4.4,2.1.5.9.1,1.9.1,2.8,0,.6,0,1.2,0,1.8-.4.4,0,.7-.2,1.1-.3.2,0,.3-.2.5-.2.4-.2.8-.3,1.2-.5,1.2-.6,2.4-1.3,3.4-2.1.7-.6,1.4-1.2,2.2-1.7,1.4-.9,3-1.6,4.6-2.1.8-.2,1.5-.4,2.3-.6.1,0,.2,0,.4,0,.2,0,.4,0,.5,0,.3,0,.6-.1,1-.2.4,0,.9-.1,1.3-.2.4,0,.9,0,1.3,0,.9,0,1.8,0,2.7-.2.3,0,.6,0,.9,0,.1,0,.3,0,.4,0l1.6-.4s0,0,0,0c-.2-.2-.5-.3-.7-.4-.9-.5-1.7-1.2-2.4-2-.2-.2-.4-.5-.6-.8-.5-.7-.7-1.6-.6-2.4,0-.4.2-.8.6-1.2.5-.5,1.2-.9,1.9-1.1.4-.1.8-.2,1.2-.3.7-.2,1.4-.4,2.1-.7.4-.2.8-.4,1.2-.6.5-.3.8-.8,1-1.2.9-1.3,1.4-2.8,1.9-4.3.5-1.3,1-2.6,1.8-3.7.3-.4.6-.7,1-1.2.2.6.4,1,.6,1.5.3.8.7,1.7,1,2.5,0,.2.1.4.2.5,0,0,.2.2.3.2.5,0,1,0,1.5,0,.9,0,1.7.1,2.6.2.3,0,.6,0,.9,0,.1,0,.2,0,.3,0-.2.3-.4.6-.7.8-.2.2-.4.4-.7.6-.4.4-.8.9-1.1,1.3-.6.8-1.2,1.7-1.6,2.7-.5,1-.9,2.1-1.4,3.2-.3.6-.6,1.2-1,1.7-.6.8-1.4,1.4-2.2,1.9-.1,0-.3.2-.5.3,0,0,.1.1.2.2.7.4,1.4,1,1.8,1.8.6,1,.6,2,0,3-.4.6-.8,1.1-1.1,1.7,0,.1-.1.3-.2.4-.1,0-.2.1-.3.2-.9,1.1-1.9,2-3,2.8-.9.6-1.9,1.1-2.9,1.4-.5.2-1,.3-1.5.4-.3,0-.6.2-.9.2-.1,0-.3,0-.4,0-.6,0-1.2,0-1.8,0-.6,0-1.1.2-1.6.3-.3,0-.6,0-.9.1-.4,0-.8.2-1.1.2-.5.1-1,.2-1.5.4-.5.2-1.1.3-1.6.5-.6.2-1.1.4-1.6.6-.4.2-.8.4-1.2.6-.7.3-1.4.6-2,.9-1,.5-2,1-3,1.5-.9.5-1.9.9-2.9,1.3-.9.4-1.8.9-2.7,1.2-.9.4-1.8.7-2.7.9-1,.3-2,.3-3,.2-.9,0-1.8-.4-2.7-.8-.7-.3-1.5-.6-2.2-.9-.4-.2-.9-.4-1.3-.6-.2,0-.4-.2-.7-.3-.2,0-.4-.2-.6-.3-.8-.4-1.7-.8-2.6-1.2-.6-.3-1.1-.6-1.6-.8-.9-.4-1.8-.8-2.7-1.2-1-.4-1.9-.8-2.9-1.2-.8-.3-1.5-.5-2.3-.7-1.2-.3-2.4-.5-3.6-.7-.4,0-.8,0-1.2,0-.6,0-1.2-.2-1.8-.2-.9,0-1.8-.4-2.6-.7-.8-.2-1.5-.6-2.1-1-.7-.4-1.3-.9-1.9-1.4-.5-.5-.9-1-1.4-1.6-.6-.7-1.1-1.5-1.5-2.4-.2-.4-.4-.8-.6-1.2-.3-.8,0-1.5.5-2.1.4-.6.9-1,1.5-1.4,0,0,.2-.2.3-.2-.8-.3-1.4-.8-2-1.4s-.9-1-1.2-1.6c-.8-1.4-1.2-2.9-2-4.3-.3-.7-.7-1.3-1.1-2-.5-.7-1-1.3-1.5-1.9-.4-.4-.8-.8-1.2-1.2.2,0,.3,0,.4,0,.9,0,1.8,0,2.6-.2.7,0,1.4-.2,2.1-.2.2,0,.4,0,.5,0h0ZM160.5,93.4s0,0,0,0c0,0,0,0,0,0,0,.4.2.8.5,1,.6.5,1.3.9,1.9,1.4.3.2.7.3,1.2.2-.1-.1-.3-.2-.4-.3-.8-.6-1.6-1.2-2.5-1.7-.2-.2-.5-.3-.7-.4h0ZM152.8,115.8c.7-.2,1.2-.3,1.8-.5.6-.2,1.1-.5,1.6-.8,1-.5,1.8-1.2,2.6-1.9.4-.4.8-.9,1.2-1.3.6-.7,1.2-1.5,1.6-2.3.3-.6.4-1.3.1-1.9-.3-.6-.7-1.2-1.3-1.6-.7-.6-1.5-1-2.3-1.5-.7-.4-1.4-.8-2.1-1.1-.1,0-.3-.1-.5-.2.3.7.3,1.3.2,1.9,0,.4-.2.8-.4,1.1-.3.4-.6.8-1.1,1.1-.3.2-.6.3-.9.5-.7.4-1.4.5-2.2.6-.8.1-1.6.2-2.4.2-.8,0-1.7,0-2.5.2-.5,0-.9.1-1.4.2-.2,0-.4,0-.6,0-.6.1-1.1.2-1.7.4-.6.1-1.1.3-1.7.4-.5.1-.9.4-1.4.5-1.1.3-2,.8-2.9,1.4-.8.5-1.5,1.1-2.2,1.7-.6.5-1.3,1-2,1.4-.5.3-1.1.6-1.6.9-.6.3-1.1.5-1.8.7-.5.2-1,.3-1.6.4-.4,0-.9.2-1.3.2-.6,0-1.3,0-1.9,0-.6,0-1.1,0-1.7-.2-.8-.2-1.6-.4-2.4-.7-.3,0-.5-.2-.8-.3-.7-.4-1.5-.8-2.2-1.2-.9-.6-1.8-1.2-2.7-2-.3-.3-.7-.6-1.1-.8-.5-.3-1-.6-1.5-.8-.6-.3-1.3-.6-1.9-.9-.9-.3-1.9-.6-2.9-.8-1-.2-1.9-.4-2.9-.5-.4,0-.7,0-1.1,0-.7-.2-1.4,0-2.1-.2-.6,0-1.2,0-1.7,0-.9,0-1.9-.3-2.7-.6-1-.4-1.9-1-2.3-2.1-.2-.6-.4-1.2-.1-1.9,0-.2,0-.5.1-.8-.2.1-.4.2-.6.3-.9.5-1.8,1-2.7,1.5-.6.3-1.1.7-1.6,1.1-.3.2-.5.5-.8.8-.1.1-.2.3-.3.4-.2.4-.4.8-.2,1.2.2.4.4.9.6,1.3.5,1.1,1.3,2.1,2.1,3,.7.8,1.6,1.5,2.5,2,.7.4,1.5.8,2.3,1.1,1.4.5,2.9.7,4.4.8.4,0,.8,0,1.2.1.4,0,.7.1,1.1.2.6.1,1.3.2,1.9.4.9.3,1.8.6,2.8.9.8.3,1.7.6,2.5,1,.7.3,1.4.7,2.1,1,1,.4,1.9.9,2.9,1.3.4.2.7.4,1.1.6,1,.4,1.9.9,2.9,1.3.6.3,1.2.6,1.8.8.7.3,1.4.6,2.1.8.6.2,1.3.3,1.9.4.2,0,.5,0,.7,0,.7,0,1.4-.2,2.1-.4.2,0,.5-.2.7-.3,1.1-.3,2.1-.7,3.1-1.2,1.1-.5,2.2-1.1,3.3-1.6.8-.4,1.6-.7,2.3-1.1.6-.3,1.2-.5,1.7-.8.6-.3,1.2-.6,1.8-.9.5-.2,1.1-.5,1.6-.7.5-.2.9-.3,1.4-.5.5-.2,1-.3,1.5-.5.2,0,.4-.1.7-.2.1,0,.2,0,.4,0,.5,0,.9-.2,1.4-.3.3,0,.7,0,1-.2.8-.3,1.5-.3,2.3-.4.4,0,.9,0,1.3,0,.4,0,.9-.2,1.2-.2h0ZM154.3,101.6c.4,0,.9.1,1.4.4.2.1.4.2.6.4.7.4,1.5.8,2.2,1.2.3.2.6.4.9.6,1.2-.5,2.5-1.5,3.1-2.6.4-.7.7-1.4,1.1-2.2.1-.3.2-.6.4-.9.3-.7.6-1.3.9-2.1-1.2-.2-2.4-.3-3.5-.4-.2-.3-.3-.7-.5-1s-.3-.7-.5-1c-.2-.3-.4-.7-.5-1q-.4-.8-.6-.9c-.1.3-.2.6-.3.9-.5,1.2-1.1,2.4-1.7,3.5-.2.3-.4.7-.8,1-.6.5-1.3.8-1.9,1-.8.3-1.7.5-2.5.7-.7.2-1.2.5-1.8.8-.1,0-.2.2-.4.4-.6.9-.4,1.9.2,2.6.6,0,1.2-.2,1.8-.4.7-.3,1.4-.6,2.2-.9.1,0,.3-.1.4-.2h0ZM88.6,96c-.6,0-1.2.2-1.8.2-.6,0-1.2,0-1.8.3,0,.2.2.3.2.4.3.7.6,1.3.9,2,.3.7.6,1.4,1,2.1.3.6.7,1.2,1.2,1.7.5.5,1.1.9,1.7,1.3.3.2.5.2.8,0,.5-.4,1.1-.7,1.7-1,.7-.4,1.3-.8,2-1.1.2,0,.4-.2.6-.2.7,0,1.2.3,1.8.5.7.3,1.3.6,1.9.9.4.2.8.2,1.2.1.5-.6.5-1.3.4-2,0-.3-.2-.6-.4-.8-.4-.4-.9-.7-1.5-.8-.8-.3-1.6-.5-2.4-.7-.7-.2-1.4-.4-2.1-.8-.5-.3-.9-.6-1.2-1.1-.4-.7-.8-1.3-1.1-2-.3-.8-.6-1.5-.9-2.3,0-.1-.1-.3-.2-.4h-.1c-.7,1.2-1.3,2.6-2,3.8h0ZM95.2,102.1c-.9,1.8-.8,3.5.9,4.4,1.4-.6,2.6-1.5,3.7-2.8-.1,0-.2,0-.3,0-.4-.1-.9-.2-1.3-.4-.8-.3-1.6-.7-2.4-1.1-.2,0-.3,0-.5-.1ZM154.8,102.1c-.1,0-.2,0-.3,0-.6.2-1.2.5-1.9.7-.7.3-1.4.7-2.2.8,0,0,0,0-.1,0,1,1.2,2.2,2.1,3.6,2.7.6-.3,1-.7,1.3-1.2.2-.5.3-1.1.1-1.6-.2-.5-.2-1-.5-1.5h0ZM84.1,94.6c2-1.4,3.9-2.8,5.9-4.2-.1-.2-.2-.3-.3-.4-2,1.4-4,2.8-6,4.2,0,.3.1.4.4.4h0ZM166.4,94.3c-2.1-1.5-4.1-2.9-6.2-4.3,0,.2-.1.3-.2.5,2,1.4,3.9,2.8,5.9,4.2.1-.1.2-.2.4-.4h0ZM84.5,95.4c2-1.4,3.9-2.8,5.9-4.2,0-.2-.1-.3-.2-.5-2,1.4-4,2.8-6,4.2.1.2.2.3.3.4ZM165.8,95c-.1,0-.2-.2-.3-.2-.7-.5-1.3-.9-2-1.4-1.1-.8-2.2-1.5-3.2-2.3-.2-.1-.3-.3-.6-.2,0,.1,0,.2-.1.4,2,1.4,3.9,2.8,5.9,4.2,0-.2.2-.3.2-.5h0ZM165.4,95.7c-.1,0-.2-.2-.3-.2-.7-.5-1.4-1-2.1-1.4-.6-.4-1.3-.9-1.9-1.4-.4-.3-.8-.6-1.2-.8,0,0-.2,0-.3,0,.2.6.6,1.1,1.1,1.4.2.1.5.3.7.5,1.1.8,2.2,1.6,3.3,2.3.1,0,.3,0,.4.2,0-.1.1-.2.2-.4h0ZM90.3,91.8s0,0,0,0c-1.9,1.3-3.7,2.6-5.6,4,0,.2.1.2.2.4.1,0,.3,0,.4-.1.6-.4,1.1-.8,1.7-1.2.9-.6,1.8-1.2,2.7-1.9.2-.2.4-.4.6-.6,0-.1.1-.3.2-.5h0ZM89.5,93.5s0,0,0,0c-1.1.8-2.3,1.6-3.4,2.4,0,0,.1.1.2.1.3,0,.7,0,1-.3.2-.2.5-.3.8-.5.4-.3.8-.6,1.2-.8.3-.2.4-.5.4-.8h0ZM86.1,92.2c-.5,0-.9,0-1.3.3-.5.4-1,.7-1.6,1.1.1.1.2.2.3.4,1-.5,1.7-1.2,2.6-1.8ZM164,92.2c.9.6,1.7,1.2,2.6,1.8.1-.2.2-.3.2-.4,0,0,0,0,0-.1-.4-.3-.9-.6-1.3-.9-.4-.3-.9-.5-1.4-.3ZM162.6,90.5c-.6-.4-1.2-1-2-1.4,0,.2-.1.3-.2.4.8.7,2.1,1.6,2.4,1.6,0-.2-.2-.4-.3-.7h0ZM89.4,89.2c-.5.4-1,.8-1.5,1-.4.2-.6.6-.7,1,.9-.4,1.6-1.1,2.4-1.6,0-.2-.2-.3-.2-.5ZM82.9,93.3c.5-.3.9-.7,1.4-1,0,0,0,0,0,0h-.8c-.3.2-.6.4-.9.7.2.2.2.3.4.4ZM167,93.2c.2-.1.3-.2.5-.3-.5-.4-1-.9-1.7-.6.5.3.9.6,1.3.9ZM89,88.5c-.7.2-1,.7-1.2,1.3.6-.2.9-.6,1.4-.9,0-.2-.1-.3-.2-.4ZM160.8,88.8c.5.3.9.7,1.4,1,0-.7-.4-1.1-1.1-1.3,0,0-.2.2-.3.3h0ZM88.4,95.7c.1-.2.2-.4.4-.7,0,0,0,0,0,0-.3.2-.6.4-1,.7h.7ZM162.2,95.7c-.3-.3-.6-.5-.9-.7.3.7.4.7.9.7ZM82.7,92.4h-.7c0,.1.1.2.2.3.2-.1.3-.2.5-.3Z"/>
        <path class="cls-3" d="M113.5,54.1c.2.4,0,.8,0,1.2-.2,1-.8,1.8-1.8,2.3-.6.2-1.1.4-1.8.4s-.7,0-1.1,0c1-.8,1.9-1.5,2.9-2.2,0-.3-.2-.3-.4-.2-.7.5-1.3.9-2,1.4-.2.2-.5.4-.7.5,0,0-.1,0-.3,0,0-.3.1-.7.2-.9.4-1,1.1-1.8,2.1-2.1.5-.2,1.1-.4,1.7-.4s.8,0,1.2-.2c0,0,0,0,0,0h0Z"/>
        <path class="cls-4" d="M125,112.1c-.1-.6,0-1.2,0-1.8,0-.6,0-1.2,0-1.8.1,0,.3-.2.4-.2.5,0,1.1,0,1.5,0,.4.2.7.5.8.9,0,.4.2.8,0,1.2,0,.1,0,.3,0,.5-.1.2-.2.4-.4.7-.3.4-.8.4-1.2.5-.3,0-.6,0-1,0ZM125.5,109.1c0,.8,0,1.6.1,2.4.4,0,.8-.1,1.1-.2.4-.8.3-1.5,0-2.3h-1.2Z"/>
        <path class="cls-4" d="M114.3,105.3c.8.4,1.4.8,2.2,1.2,0,.1-.1.3-.2.5-.6-.1-1-.6-1.6-.8,0,.2-.2.4-.3.7.5.3.9.6,1.5.9-.1.2-.2.3-.3.5-.5-.2-.9-.5-1.4-.8-.1.3-.2.5-.4.8.5.4,1.1.6,1.6.9,0,.2-.1.3-.2.5-.8-.3-1.5-.8-2.2-1.2.5-1.1,1-2.2,1.5-3.3Z"/>
        <path class="cls-4" d="M119.8,108.8c-.2,0-.4-.1-.6-.2,0-.2-.1-.3-.2-.6-.2,0-.4-.2-.7-.2-.1.1-.4.2-.3.5.4.3.8.6,1.3,1,0,.2,0,.5,0,.8,0,.7-.6,1.1-1.3,1-.2,0-.4-.1-.6-.2-.6-.3-.7-.8-.8-1.5.2,0,.4,0,.6,0,0,.4.2.7.5.9.7,0,.8,0,.8-.6-.2-.1-.4-.2-.6-.4-.3-.2-.7-.4-.8-.9-.2-.5.2-1.3.9-1.3.3,0,.7,0,.9.2.3.2.5.5.5.8,0,.1,0,.3,0,.5h0Z"/>
        <path class="cls-4" d="M136.3,104.7c.9,0,1.2.5,1,1.3,0,0,.1,0,.2,0,.6.2,1,1.1.6,1.6-.2.3-.4.5-.8.6-.6.2-1-.2-1.1-.7,0-.1,0-.3,0-.4s0-.3,0-.4c-.4,0-.6-.4-.7-.8,0-.3,0-.6.2-.8.2-.2.4-.3.6-.5h0ZM137.4,107.7c0-.1.2-.3.3-.5,0-.2-.2-.4-.2-.6h-.6c-.3.5-.2.6.2,1h.4ZM136.3,106.2c.1,0,.3,0,.5-.1v-.6c-.2,0-.3-.1-.5-.2-.3.4-.3.5,0,.8h0Z"/>
        <path class="cls-4" d="M132.4,110.8c-.2,0-.3-.2-.4-.2,0,0-.1-.2-.2-.3.3-.3.4-.3.8,0,.5-.1.6-.4.4-1,0,0,0,0-.1,0-.5.6-1.1.4-1.5-.2-.3-.5-.3-1,0-1.5.5-.8,1.3-.7,1.8,0,.4.6.6,1.4.5,2.1,0,.6-.6,1.1-1.2,1.1h0ZM132.5,108.9c.3-.5.3-.8-.1-1.2h-.4c-.3.3-.2.6,0,.9,0,.2.3.4.6.3Z"/>
        <path class="cls-4" d="M135.2,106.2c.1.2.2.4.3.6,0,.7-.3,1.4-.4,2.1.4-.1.7-.4,1.1-.5,0,.2.1.3.2.5-.6.3-1.3.7-1.9,1.1-.2-.3-.2-.6-.1-.8.1-.5.4-1,.5-1.6,0-.3.1-.6-.2-1-.2,0-.4,0-.6.1v.6c-.2,0-.4.1-.6.2-.1-.6,0-1.1.5-1.4.3-.2.8-.2,1.3,0h0Z"/>
        <path class="cls-4" d="M122,108.8c-.4,0-.7,0-.9-.3,0-.2,0-.3,0-.4.8,0,1.7.2,2.6.3,0,.2,0,.4,0,.6-.3,0-.6,0-.9,0-.1,1-.3,2-.4,3-.2,0-.3,0-.5,0,0-.4,0-.7,0-1.1,0-.7.2-1.4.2-2.1Z"/>
        <path class="cls-4" d="M130.5,111.4c0-.5-.2-.9-.2-1.3,0-.4-.1-.8-.2-1.3-.3.2-.4.5-.7.5,0-.2,0-.3-.1-.5.5-.2.6-.7.9-1.2.1,0,.2,0,.4,0,.2,1.2.4,2.3.6,3.5-.2,0-.3.2-.6.3h0Z"/>
        <path class="cls-3" d="M101.1,70.3c0,.4,0,.8-.3,1.2,0-.4.1-.8.2-1.2,0,0,0,0,0,0h0Z"/>
        <path class="cls-3" d="M149,70.3c0,.4.1.8.2,1.1,0,0,0,0-.1,0,0-.4-.1-.7-.2-1.1,0,0,0,0,0,0Z"/>
        <path class="cls-3" d="M136.6,59.4c.8.3,1.4.4,2.1.3.6,0,1.2,0,1.8,0,1,0,2,.2,2.8.9.4.3.8.6,1,1.2-.5,0-1,0-1.5-.1-.5,0-1,0-1.5,0,0,.2.2.2.3.2.5,0,1,0,1.4,0,.3,0,.6,0,1,0,0,0,.1,0,.2.1-.4.3-.9.6-1.3.7-.4,0-.8.1-1.1.2-.5.1-1,0-1.5-.1-1.2-.3-2.2-1-2.9-2-.2-.3-.4-.7-.7-1.1,0,0,0-.2-.1-.4Z"/>
        <path class="cls-3" d="M101.8,77.5c.7-.5,1.5-.8,2.3-1,.2,0,.3,0,.2-.3-.9.4-1.8.8-2.8,1.2.1-.4.2-.7.4-1,.3-.7.8-1.2,1.5-1.6.5-.3,1-.5,1.5-.7,1.1-.3,2.1-.7,3-1.3,0,0,0,0,.1,0,0,1.5-.5,3.2-2.1,4.3-1.2.8-2.6,1-4,.5h0Z"/>
        <path class="cls-3" d="M103.3,67c.3,0,.6-.1.9-.2.3,0,.7,0,1,0,.3,0,.6,0,.9-.2-.5-.1-1,0-1.5,0-.5,0-1,.2-1.5.2,0-.2.1-.3.2-.4.5-.7,1.1-1.3,1.9-1.6.4-.2.9-.2,1.3-.3.3,0,.6,0,.9,0,1,0,2-.2,2.9-.5,0,0,0,0,.1,0-.4,1.8-1.5,2.9-3.2,3.5-1.4.5-2.8.3-4.1-.5h0c0-.1,0-.1,0-.1Z"/>
        <path class="cls-3" d="M144.1,53.2c.8.6,1.6,1.2,2.1,2.1.2.5.4.9.5,1.4,0,.3.1.6.2.9,0,1.1-.3,2-.9,2.9-.1.2-.3.4-.5.6-.2-.3-.2-1.3.2-2.8,0,0-.1,0-.2-.2-.1,1.1-.2,2-.3,3.1-.7-.7-1.2-1.5-1.4-2.5-.2-.8,0-1.7.2-2.5.2-1,.3-1.9.2-2.9h0c0-.1,0-.1,0-.1h0Z"/>
        <path class="cls-3" d="M141.6,68.3c.9.5,1.9.7,2.8.8,1.1.1,2.2.3,3,1.1.5.4.8,1,1.1,1.5,0,0,0,0,0,.2-.9-.3-1.9-.6-2.9-.7,0,0,0,0,0,0,0,0,.1.1.2.1.6.1,1.2.2,1.8.3.3,0,.5.2.8.2-.3.3-.8.4-1.2.5-.9.2-1.7.2-2.5-.1-.8-.3-1.4-.8-2-1.4-.7-.8-1.1-1.6-1.2-2.6,0,0,0,0,0-.1h0Z"/>
        <path class="cls-3" d="M104.6,61.1c-1.1-1-1.6-2.2-1.5-3.7.2-1.8,1.1-3.2,2.7-4.2v.4c0,1.1.2,2.2.3,3.3.2,1,.1,2.1-.4,3-.2.5-.6.9-.9,1.3,0,0,0,0-.1,0,0-.1,0-.3,0-.4,0-.8,0-1.5-.2-2.3,0,0,0-.2-.1-.3,0,0,0,0-.1,0,0,.2,0,.3,0,.5.1.8.3,1.6.2,2.4h0Z"/>
        <path class="cls-3" d="M142.3,77.6c0,0,.1,0,.2,0,.4.3.8.6,1.2.9.5.3,1,.6,1.5.9.5.3,1,.6,1.4,1.1.2.2.3.4.4.7.3.6.6,1.2.6,1.9s0,0,0,.2c-.8-.6-1.6-1.1-2.4-1.7,0,0-.1,0-.2.1,0,0,0,0,0,.1.2.2.5.3.7.5.5.3.9.6,1.4.9,0,0,.1.1.2.2-1.5.1-2.6-.3-3.7-1.2-1-.8-2.1-3.2-1.4-4.8h0Z"/>
        <path class="cls-3" d="M146.9,67c-.7.6-1.4.7-2.1.8-.3,0-.6,0-.9,0-.2,0-.4,0-.6-.1-1-.2-1.9-.7-2.5-1.4-.6-.6-1-1.4-1.2-2.3.1,0,.2,0,.3,0,.7.2,1.4.4,2.2.4.7,0,1.4,0,2,0,1.3.2,2.3,1,2.9,2.3-1-.2-2-.4-3-.4h0c0,.2.1.2.2.2.5,0,1,0,1.4,0,.4,0,.8.1,1.2.2h0Z"/>
        <path class="cls-3" d="M148.3,66.1c0-1,.7-1.8.8-2.8-.3.2-.5.7-1.1,2.9-.1-.1-.2-.2-.3-.3-.4-.7-.6-1.5-.6-2.3,0-.7.2-1.4.5-2,.3-.6.5-1.2.7-1.9.1-.4.3-.8.2-1.3,0,0,0-.1,0-.2,1.1.9,1.7,1.9,1.8,3.2.1,2-.5,3.6-2.2,4.8h0Z"/>
        <path class="cls-3" d="M107.8,77.4c0,.2,0,.4.1.5,0,.4,0,.7,0,1.1s0,.7-.2,1.1c0,.3-.2.5-.3.8-.6,1.1-1.4,2-2.6,2.4-.6.2-1.2.4-1.8.3,0,0-.2,0-.4,0,.7-.7,1.6-1.2,2.4-1.7-.2,0-.4,0-.5,0-.7.5-1.4,1-2.1,1.5,0-.2,0-.5,0-.7.3-1.4,1.1-2.4,2.3-3.1.8-.4,1.5-.9,2.2-1.3.3-.2.5-.5.8-.8h0Z"/>
        <path class="cls-3" d="M108.7,61.6c-1,0-2,0-3.1.2.4-.5.7-.8,1.1-1.2.8-.6,1.8-.9,2.8-.9.5,0,1.1,0,1.6,0,.6,0,1.3-.1,1.9-.2,0,0,.2,0,.3,0-.9,2.8-4.7,4.7-7.6,2.5.2,0,.3-.1.4-.1.7,0,1.5,0,2.2,0,.1,0,.3,0,.3-.2h0Z"/>
        <path class="cls-3" d="M142.1,72.7c.2,0,.3.1.4.2.8.6,1.7.9,2.6,1.2.5.1.9.3,1.3.5.7.4,1.2.9,1.5,1.6.2.4.4.7.4,1.2-.1,0-.2,0-.3-.1-.7-.3-1.4-.7-2.2-1,0,0-.2,0-.3,0,0,0,0,0,0,.1.1,0,.3.1.4.2.8.2,1.5.5,2.2,1-.3,0-.5.2-.8.2-1.8.2-3.3-.4-4.4-1.9-.4-.6-.7-1.2-.9-1.9,0-.3,0-.7-.1-1,0,0,0-.2,0-.3h0Z"/>
        <path class="cls-3" d="M101.6,72.2c.8-.4,1.8-.6,2.7-.7,0,0,0-.2,0-.3-.9.2-1.9.5-2.8.7,0-.3.2-.6.4-.9.5-.7,1.1-1.2,1.9-1.5.5-.2,1-.3,1.5-.3,1,0,2-.3,2.9-.8,0,0,0,0,.2,0-.3,1.8-1.1,3.1-2.8,3.9-1.3.6-2.7.6-4.1,0h0Z"/>
        <path class="cls-3" d="M100.9,63.4c.3.9.8,1.7.8,2.8-1.4-1-2.1-2.3-2.2-3.9s.5-3,1.8-4.1c0,.1,0,.2,0,.2,0,.8.3,1.6.6,2.4.3.8.7,1.5.8,2.3,0,.7.2,1.5-.2,2.2-.1.2-.2.5-.4.7,0,0,0,.1-.2.2-.2-.5-.3-1-.4-1.5-.1-.5-.3-.9-.5-1.3,0,0-.1,0-.2,0h0Z"/>
        <path class="cls-3" d="M100.1,71.7c-.3-.5-.5-1-.8-1.4-.3-.4-.4-1-.8-1.3,0,0,0,0-.1,0,0,.1,0,.2.2.3.3.5.6,1,.9,1.5,0,.2.1.4.2.5,0,0,0,0,0,0,0,0-.2,0-.3,0-.9-.6-1.7-1.3-2.2-2.2-.8-1.5-.8-3,0-4.5,0-.1.2-.2.3-.3,0,0,.2-.2.2-.2,0,0,0,0,0,0,.3,1.1.9,2,1.6,2.9.2.4.5.7.7,1.1.5,1,.6,2,.2,3,0,.2,0,.3-.2.5h0Z"/>
        <path class="cls-3" d="M100.4,77.4c-.7-.8-1.5-1.4-2.4-2,0,.3.1.4.3.5.5.4,1.1.8,1.6,1.3,0,0,.2.2.2.4-.2,0-.4,0-.6,0-.5,0-1-.2-1.4-.4-1.1-.6-1.9-1.4-2.4-2.5-.3-.6-.4-1.3-.4-2,0-.4.2-.9.3-1.4.2.2.3.3.4.4.5.7,1.2,1.1,1.8,1.6.5.3,1,.7,1.4,1.1.9.9,1.4,1.9,1.2,3.2h0Z"/>
        <path class="cls-3" d="M154.8,78.5c0,.8,0,1.5-.3,2.2-.4,1-1,1.8-1.9,2.3-.5.3-1,.6-1.6.6-.3,0-.6.2-.8.2-.3,0-.7,0-1,0s-.1,0-.2,0c.8-.6,1.7-.9,2.6-1.4,0,0-.2,0-.2,0-.2,0-.4.2-.5.2-.6.3-1.2.7-1.8,1,0,0-.1,0-.2,0,.1-.7.4-1.4.8-1.9.6-.7,1.4-1.1,2.2-1.5.3-.1.6-.3.9-.4.2,0,.4-.2.7-.3.4-.1.8-.4,1.1-.7.1,0,.2-.2.4-.3h0Z"/>
        <path class="cls-3" d="M149.9,71.6c-.4-1-.5-2-.2-3,.2-.6.6-1.1.9-1.6.5-.8,1-1.6,1.4-2.4,0-.2.1-.3.2-.6,0,0,.1,0,.2.1.6.8,1,1.6,1,2.7,0,.7-.1,1.5-.5,2.2-.6,1.1-1.4,1.9-2.5,2.4,0,0,0,0-.2,0,.4-.9,1-1.7,1.4-2.5-.3,0-.4,0-.4.2-.4.7-.8,1.4-1.2,2.2,0,0,0,.1-.2.3h0Z"/>
        <path class="cls-3" d="M101.4,83.6c-.9-.5-1.8-.9-2.7-1.4,0,0-.1,0-.2.1,0,0,.2.1.2.2.5.2.9.4,1.4.6.3.2.6.4.9.6-1,.2-1.9,0-2.9-.3-1-.4-1.8-1.1-2.3-2-.5-.8-.7-1.7-.6-2.6,0,0,0,0,0-.1,0,0,.2,0,.2,0,.7.6,1.6,1,2.4,1.3.6.2,1.2.5,1.8.9.8.6,1.3,1.3,1.5,2.3,0,0,0,.2,0,.3h0Z"/>
        <path class="cls-3" d="M105.8,89.2s-.1,0-.3,0c.3-.4.7-.7,1-1.1s.8-.5.9-1c0,0,0,0,0,0,0,0-.2.1-.3.2-.5.5-1,1.1-1.5,1.6,0,0-.2.1-.3.2,0-.6,0-1.2,0-1.8.2-.9.8-1.6,1.5-2.2.9-.7,1.7-1.4,2.3-2.6.7,1.5.7,2.9,0,4.2-.6,1.4-1.8,2.2-3.3,2.6h0Z"/>
        <path class="cls-3" d="M154.5,71.2c.5,1.5.3,2.9-.6,4.2-1,1.3-2.3,2-3.9,2.1,0,0,0,0,0,0,.2-.2.4-.4.6-.6.4-.3.9-.7,1.4-1,.1,0,.2-.2.2-.3-.5.2-.9.5-1.3.8-.4.3-.8.7-1.2,1.1,0-1,.2-1.8.7-2.6.4-.6,1-1,1.6-1.4.8-.6,1.6-1.2,2.3-1.9,0,0,.1,0,.2-.2h0Z"/>
        <path class="cls-3" d="M144.7,89.1c-.6-.7-1.2-1.4-1.9-2.1,0,0-.1,0-.1,0,0,0,0,0,0,.1.7.6,1.4,1.2,1.9,2-.1,0-.2,0-.3,0-1.1-.3-2.1-.8-2.8-1.8-.5-.6-.7-1.2-.9-1.9-.3-1.1,0-2.1.4-3.2.2.2.3.4.4.6.4.6.9,1.1,1.5,1.6.8.7,1.6,1.4,1.9,2.4,0,.2.1.5.1.8,0,.4,0,.8,0,1.2,0,0,0,0-.1,0h0Z"/>
        <path class="cls-3" d="M110.9,86.3c1,1,1.5,2.1,1.4,3.5,0,1.8-.9,3.2-2.5,4,0-.5.2-.9.4-1.3.2-.4.5-.8.7-1.2,0,0-.1,0-.1,0,0,0,0,0-.2,0-.4.8-.7,1.6-1.1,2.5-.2-.1-.3-.4-.3-.6-.2-.5-.3-1-.3-1.6,0-.8.3-1.5.7-2.2.5-.8.9-1.6,1.2-2.5,0-.2,0-.4.2-.6h0Z"/>
        <path class="cls-3" d="M140.3,93.8c-.9-.1-2.2-1.5-2.5-2.9-.2-.8-.3-1.7,0-2.5.3-.7.6-1.4,1.2-1.9.2.6.4,1.2.7,1.8.3.7.7,1.3,1.1,2,.1.2.2.5.3.7.1,1,.1,2-.5,2.9-.2-.5-.3-1-.6-1.4-.2-.4-.3-.9-.7-1.2,0,.2,0,.4.1.6.4.6.7,1.2.9,2h0Z"/>
        <path class="cls-3" d="M148.6,88.9c-1,.1-1.9.4-2.9.8.4-1.2,1.1-1.9,2.2-2.3.6-.2,1.2-.3,1.8-.4.8-.2,1.6-.3,2.3-.7.1,0,.3-.1.4-.2,0,.2,0,.3,0,.4-.2,1.1-.6,2.1-1.6,2.8-.6.4-1.3.8-2.1.9-.9.2-1.8.1-2.7-.2,0,0,0,0,0-.1.9-.2,1.8-.5,2.6-.7,0,0,0,0,0-.1h0Z"/>
        <path class="cls-3" d="M108.5,94.8c-.4.4-.8.6-1.2.8-.8.3-1.7.5-2.6.4-.7,0-1.4-.3-2-.7-.5-.3-.9-.7-1.2-1.2-.2-.2-.2-.5-.4-.8.2,0,.4,0,.6,0,.8.2,1.6,0,2.4-.1.9-.1,1.7-.2,2.6,0,.8.2,1.4.6,2,1.3-.2,0-.2,0-.3,0h-1.5c-.4,0-.8,0-1.2.1.4.2.9,0,1.3,0,.5,0,.9,0,1.5,0h0Z"/>
        <path class="cls-3" d="M104.2,89.6c-.9-.3-1.9-.6-2.9-.8.1.3.3.3.4.3.8,0,1.5.3,2.3.6-.6.5-1.3.2-2.1.4-.5-.1-1.1-.2-1.6-.4-1.4-.6-2.4-1.5-2.7-3,0-.2,0-.4-.2-.6,0,0,0,0,0-.1,0,0,.1,0,.2,0,.9.6,2,.7,3.1.9.9.2,1.8.5,2.6,1.2.4.4.7.9.8,1.5h0Z"/>
        <path class="cls-3" d="M144.3,95c0-.1,0-.2,0-.3-1,0-1.9,0-3-.1.2-.3.5-.5.7-.7,1-.8,2.2-.9,3.4-.7.7,0,1.4.2,2.1.3.3,0,.7,0,1,0,0,0,.2,0,.3,0-.1.4-.4.8-.7,1.1-.4.5-1,.9-1.6,1.1-1.2.5-2.4.4-3.5,0-.5-.2-.9-.4-1.3-.7,0,0,0,0-.1-.1.9,0,1.8,0,2.8.2h0Z"/>
        <path class="cls-3" d="M138.4,55.8c1,.8,1.9,1.5,2.8,2.2h0c-.4,0-.7,0-1.1,0-.3,0-.7,0-1-.2-1.4-.4-2.3-1.2-2.6-2.7,0-.3,0-.7-.1-1.1.8.1,1.5.2,2.2.3,1,.2,1.8.6,2.4,1.4.3.5.5,1,.6,1.5,0,0,0,.2,0,.3,0,0-.2,0-.2,0-.8-.7-1.6-1.3-2.5-1.8-.2-.1-.4-.3-.7,0h0Z"/>
        <path class="cls-2" d="M125.1,51.8c0,0-.2-.1-.2-.2-.9-1-1.4-2.2-1.2-3.6.1-.9.5-1.7,1.1-2.4,0,0,.1,0,.3,0-.2.7-.3,1.4-.2,2.1,0,.2,0,.4,0,.6.2.7.2,1.3.3,2,0,.5,0,1.1,0,1.6,0,0,0,0-.1,0Z"/>
        <path class="cls-2" d="M111.7,40c.9,1.1,1.2,2.3,1.1,3.7-.1,1-1,2.4-1.5,2.5,0-.4,0-.8,0-1.3,0-.4,0-.8.2-1.2,0-.3.1-.6.2-.8.1-.8.2-1.6,0-2.4,0-.1,0-.3,0-.4,0,0,0,0,.1,0h0Z"/>
        <path class="cls-2" d="M125.9,34.9c1.7,1.7,1.8,4.8-.2,6.3,0-.7,0-1.3,0-1.9.2-1.1.4-2.2.3-3.3,0-.3,0-.5-.1-.8,0,0,0-.2,0-.3Z"/>
        <path class="cls-2" d="M139.6,46.2c-.8-.4-1.1-1.2-1.3-1.9-.5-1.6,0-3,1-4.3.1.4,0,.7,0,.9,0,.5,0,1,0,1.5.1.8.4,1.6.4,2.5s0,.9.1,1.3c0,0,0,0-.1,0h0Z"/>
        <path class="cls-2" d="M125.8,51.3c-.2-1.1-.4-2.1-.5-3.1,0-.7-.2-1.4,0-2.1,0-.2.1-.5.3-.7,0,0,0,.1,0,.2,0,.6.1,1.1.4,1.5.3.6.6,1.3.5,2.1,0,.7-.3,1.3-.6,1.9,0,0,0,.1,0,.2h0Z"/>
        <path class="cls-2" d="M125.4,35.1c0,.2,0,.4.1.7,0,.2,0,.5,0,.7,0,.7-.1,1.4-.2,2.1-.1.7-.2,1.3-.2,2,0,.1,0,.2-.1.3-.6-1-.8-2.1-.4-3.3.3-.4.6-1.3.8-2.5h0Z"/>
        <path class="cls-2" d="M110.8,45.8c-.1,0-.2-.1-.2-.2-.3-.7-.6-1.3-.6-2s.1-1.1.4-1.5c.3-.5.4-1.2.6-1.8,0,0,0,0,0-.2,0,.1.2.2.2.3,0,.2,0,.4,0,.6,0,.8,0,1.6-.2,2.5-.2.6-.3,1.3-.3,2v.4h0Z"/>
        <path class="cls-2" d="M140,40c0,0,0,.2,0,.2,0,.6.2,1.1.4,1.6.1.3.3.7.4,1,0,.4.1.8,0,1.2,0,.5-.2.9-.4,1.3,0,0-.1.1-.2.3,0-.1-.1-.2-.1-.3-.1-.7-.2-1.5-.4-2.2,0-.2,0-.5-.1-.7,0-.7-.1-1.4.1-2.1,0-.1,0-.3.1-.4h0,0Z"/>
        <path class="cls-6" d="M118.1,59.5c0-.4,0-.6.3-.8.2-.1.6,0,.8.2,0,.7,0,.9-.7,1-.1-.1-.3-.3-.4-.4h0Z"/>
        <path class="cls-6" d="M130.4,59.6c0,0-.1.2-.2.3,0,0-.2,0-.3,0-.4,0-.5-.1-.7-.6.1-.2.3-.4.4-.7.3,0,.5.1.6.3.1.1,0,.4.1.6h0Z"/>
        <path class="cls-6" d="M126.6,58.9c.2.3.2.6,0,.8-.7.3-.8.2-1.1-.5,0-.1,0-.2.1-.3.2-.2.6-.2.9,0h0Z"/>
        <path class="cls-6" d="M133.2,58.8c.3.8.1,1.2-.7,1.1-.1-.1-.2-.3-.4-.5.1-.2.2-.4.4-.6.2,0,.5,0,.7,0h0Z"/>
        <path class="cls-6" d="M122.6,59.9h-.6c0-.2-.2-.4-.2-.6.2-.4.4-.6.7-.5.2,0,.4.2.4.4,0,.3,0,.5-.3.7h0Z"/>
        <path class="cls-3" d="M123.7,57.6h0c-.2.1-.3,0-.4,0h0s.4,0,.4,0Z"/>
        <path class="cls-3" d="M124.8,57.6h0s0,0,0,0c0,0,0,0,0,0Z"/>
        <polygon class="cls-3" points="124.1 57.6 124 57.6 124.1 57.6 124.1 57.6"/>
        <path class="cls-6" d="M152.8,115.8c-.3,0-.7.2-1.2.2-.4,0-.9,0-1.3,0-.8,0-1.6,0-2.3.4-.3.1-.7.1-1,.2-.5,0-.9.2-1.4.3-.1,0-.2,0-.4,0-.2,0-.4.1-.7.2-.5.2-1,.3-1.5.5-.5.2-.9.3-1.4.5-.5.2-1.1.5-1.6.7-.6.3-1.2.6-1.8.9-.6.3-1.2.5-1.7.8-.8.4-1.6.7-2.3,1.1-1.1.5-2.2,1.1-3.3,1.6-1,.5-2,.9-3.1,1.2-.2,0-.5.2-.7.3-.7.1-1.4.3-2.1.4-.2,0-.5,0-.7,0-.7-.1-1.3-.2-1.9-.4-.7-.3-1.4-.5-2.1-.8-.6-.3-1.2-.6-1.8-.8-1-.4-1.9-.9-2.9-1.3-.4-.2-.7-.4-1.1-.6-1-.4-1.9-.9-2.9-1.3-.7-.3-1.4-.7-2.1-1-.8-.3-1.6-.7-2.5-1-.9-.3-1.8-.6-2.8-.9-.6-.2-1.3-.3-1.9-.4-.4,0-.7-.2-1.1-.2-.4,0-.8,0-1.2-.1-1.5-.1-2.9-.3-4.4-.8-.8-.3-1.6-.6-2.3-1.1-.9-.6-1.8-1.2-2.5-2-.8-.9-1.5-1.9-2.1-3-.2-.4-.4-.9-.6-1.3-.2-.4,0-.9.2-1.2,0-.2.2-.3.3-.4.2-.3.5-.6.8-.8.5-.4,1.1-.8,1.6-1.1.9-.5,1.8-1,2.7-1.5.2,0,.4-.2.6-.3,0,.3,0,.6-.1.8-.2.7-.1,1.2.1,1.9.4,1.1,1.3,1.7,2.3,2.1.9.3,1.8.5,2.7.6.6,0,1.2,0,1.7,0,.7.1,1.4,0,2.1.2.3.1.7,0,1.1,0,1,0,2,.3,2.9.5,1,.2,1.9.5,2.9.8.7.2,1.3.6,1.9.9.5.3,1,.5,1.5.8.4.2.8.6,1.1.8.8.7,1.7,1.4,2.7,2,.7.4,1.4.8,2.2,1.2.3.1.5.2.8.3.8.2,1.6.5,2.4.7.5.1,1.1.1,1.7.2.6,0,1.3,0,1.9,0,.4,0,.9-.1,1.3-.2.5-.1,1.1-.2,1.6-.4.6-.2,1.2-.5,1.8-.7.6-.3,1.1-.6,1.6-.9.7-.4,1.3-.9,2-1.4.7-.6,1.4-1.2,2.2-1.7.9-.6,1.9-1.1,2.9-1.4.5-.1.9-.4,1.4-.5.6-.2,1.1-.3,1.7-.4.6-.1,1.1-.3,1.7-.4.2,0,.4,0,.6,0,.5,0,.9-.1,1.4-.2.8-.1,1.7-.2,2.5-.2s1.6,0,2.4-.2c.7-.1,1.5-.2,2.2-.6.3-.2.6-.3.9-.5.5-.2.8-.6,1.1-1.1.2-.3.3-.7.4-1.1,0-.6,0-1.2-.2-1.9.2,0,.3.1.5.2.7.4,1.4.7,2.1,1.1.8.5,1.6,1,2.3,1.5.5.4,1,.9,1.3,1.6.3.7.2,1.3-.1,1.9-.4.8-1,1.6-1.6,2.3-.4.4-.8.9-1.2,1.3-.8.8-1.6,1.4-2.6,1.9-.5.3-1.1.6-1.6.8-.5.2-1.1.3-1.8.5h0ZM93.8,111.4c.5.2,1,.5,1.5.7.5.2.9,0,1.3-.3.5-.6.8-1.2.7-2,0-.4-.2-.8-.6-.9-.6-.3-1.2-.6-1.7-1.1,0,0,0,0-.1,0-.4.5-.9,1-1.3,1.5,0,0,0,0,0,0,0-.8.5-1.6.4-2.4-.3-.4-.5-.8-.8-1.2-.9.7-1.8,1.4-2.7,2.2.1.2.3.3.4.5,0,0,.1,0,.2,0,.6-.5,1.1-.9,1.7-1.4,0,0,.2,0,.3-.2-.6.8-1.2,1.5-1.8,2.3.2.1.3.2.5.3.4-.5.8-1,1.3-1.5,0,0,0,0,0,0,0,.8-.3,1.6-.4,2.4.2.2.4.3.6.5.7-.8,1.3-1.5,1.9-2.2,0,0,0,0,0,0-.4.9-.8,1.8-1.3,2.8h0ZM106.6,114.5c.4-.6.4-1.4.7-2,0,0,0,0,0,0,0,.7,0,1.5,0,2.2.1,0,.2,0,.2,0,.4,0,.4,0,.6-.3.1-.2.2-.5.4-.7.2-.3.3-.5.5-.8,0,0,0,0,0,0-.2.6-.4,1.2-.6,1.9.2,0,.3.2.5.3.5-1.1.7-2.3,1.1-3.5-.4,0-.7-.1-1-.2-.4.7-.8,1.3-1.1,1.9h0c0-.8,0-1.6,0-2.3-.3,0-.6-.2-.9-.3-.3,1.1-.7,2.2-1,3.3.2,0,.4.2.5.3h0ZM102,110c-.2,1.2-.4,2.3-.4,3.5.2,0,.3,0,.6,0,.1-.7.2-1.4.3-2.2,0,.1.2.2.2.3.2.6.4,1.1.7,1.7.2.4.4.5.8.4.2-1.1.5-2.3.4-3.4-.2,0-.3,0-.6,0-.1.7-.2,1.4-.3,2.1,0,0,0,0,0,0-.3-.8-.6-1.6-.9-2.4h-.7ZM153.1,112.3c-.1-.7-.3-1.3-.4-1.9h.1c.6.5,1.1,1.1,1.6,1.7.2,0,.4-.2.6-.2-.2-1.1-.4-2.2-.6-3.4-.2,0-.4,0-.6.1.1.7.2,1.4.4,2.1,0,0,0,0,0,0-.6-.6-1.1-1.2-1.6-1.8-.2,0-.4,0-.6.2.2,1.2.4,2.3.7,3.5.2,0,.4-.1.6-.2h0ZM149.7,109.2c-.1,0-.2,0-.2.1-.5.2-.8.5-.9,1-.1.4-.1.8,0,1.2.2,1,1,1.6,2,1.3.5-.1.9-.4,1-.9.1-.4.1-.7.1-1.1,0-.8-.7-1.6-1.6-1.6h-.4,0ZM133.4,117.5c0,.4.2.8.4,1.2.5.6,1.1,1.1,1.9.6.6-.4,1.1-.9,1-1.7,0-.5-.2-.8-.5-1.2-.3-.4-.7-.6-1.2-.7-.9,0-1.7.8-1.7,1.8h0ZM112.6,116.8s0,0,0,0c.5.3.9.5,1.4.8,0,0,.2,0,.3,0,.4,0,.8-.2,1.1-.6.1-.2.2-.3.3-.4.4-.6.4-1.6-.1-2.1-.4-.4-.9-.6-1.3-.9-.3.2-1.7,2.8-1.7,3.1h0ZM111.2,113.8c0-.2.2-.4.2-.7.6,0,1.1.6,1.7.7,0-.2.2-.3.3-.5-.8-.4-1.5-.7-2.3-1.1-.2.4-.3.7-.5,1.1-.2.4-.3.7-.5,1.1-.1.4-.4.7-.4,1.1.8.4,1.5.7,2.2,1.1.1-.2.2-.4.1-.6-.5-.3-1-.5-1.6-.8.1-.3.2-.5.3-.7.6,0,1,.6,1.6.6,0,0,0-.2.1-.2,0,0,0-.2,0-.3-.5-.2-1-.5-1.5-.7h0ZM133.4,118c-.2-.5-.7-.6-1.2-.5-.6.2-1.1.8-1.1,1.4.1.2.2.3.3.5.1,0,.3.2.4.2.3,0,.7,0,1-.1.2,0,.5,0,.7-.1.2.5.2.6-.3.9-.4.2-.7,0-.9-.2-.2.1-.3.3-.6.4.2.2.4.4.6.5.5.2,1.3-.2,1.7-.6.1-.2.2-.4.2-.6,0-.5-.1-.9-.6-1.2-.5,0-1.1.1-1.8.2,0,0-.1-.1-.2-.2.2-.5.6-.7,1.2-.4.2,0,.3-.2.5-.3h0ZM129.5,119.5h.6c0,0,.2.1.2.2.1,0,.2,0,.3,0s.1,0,.2-.1c0-.3-.2-.5-.5-.6-.6-.2-1.3.1-1.7.6-.2.3-.2.6,0,1s.4.5.8.5c.3,0,.6,0,.9,0s.4,0,.5,0c0,.7-.2.9-1,.9,0,0-.1-.2-.2-.3-.3,0-.6,0-.7.3.4.7,1.1.9,1.8.5.3-.2.7-.3.7-.7.1-.5.1-1-.4-1.4h-1.8c0,0,0-.2,0-.3.1-.1.2-.2.3-.4h0ZM101.1,113.4c-.4-1.3-.7-2.4-1.1-3.6h-.7c-.5,1.2-1,2.2-1.5,3.3.2.3.5.1.7,0,.1-.2.2-.4.3-.6.4,0,.8,0,1.3.1,0,.3.2.5.3.8,0,0,.7,0,.7,0ZM144.8,113.8c-.8-1-1.6-1.9-2.4-2.8-.2,0-.4.2-.6.3v3.8c.2-.1.4-.2.6-.3v-.8c.4-.2.8-.5,1.3-.4.2.2.3.3.5.5.2,0,.4-.2.6-.3h0ZM121.9,122.6c0-1.3.2-2.6.2-3.8-.2-.1-.5-.2-.7-.3-.9.9-1.7,1.8-2.6,2.6.4.4.6.4.9,0s.2-.1.3-.2c.4.2.7.3,1.1.5v.8c.2.1.4.2.6.4h0ZM126.7,119.7c-.2,1.2-.7,2.4-.8,3.6.2,0,.4,0,.7,0,0-.2.1-.5.2-.8.4,0,.9,0,1.3-.1.2.3.3.5.4.7.2,0,.4,0,.6-.2-.6-1.1-1.1-2.2-1.6-3.3-.3,0-.5,0-.7.1h0ZM138,116.1c0-.1-.2-.2-.2-.3-.1-.2-.3-.5-.4-.7-.2-.4.2-1.1.8-1,.1,0,.3,0,.5,0,.1-.2.4-.2.4-.6,0,0-.1,0-.2,0-.9-.4-2.1.3-2.1,1.3,0,.6.2,1,.5,1.4.2.3.6.6.9.7.3.1.6,0,.8-.1.5-.2.9-.6.9-1.2,0-.2.1-.5-.1-.7-.1,0-.3.2-.5.2,0,.9,0,1-.8,1.2-.1,0-.3-.1-.4-.2h0ZM120.1,118.9c0-.4,0-.7,0-1-.2-1-1.8-1.3-2.4-.6,0,0-.2.2-.2.3-.4.6-.7,1.3-.3,2.1.4.8,1.4,1.1,2.1.4,0-.3-.2-.4-.3-.6-.2.1-.4.2-.6.3-.4,0-.6-.3-.8-.5-.1-.5.1-.9.4-1.2.5-.7,1.1-.7,1.6,0v.5c.2,0,.4.2.7.3h0ZM143.8,111.1c.4.1.7-.1,1-.2.3.9.5,1.8.8,2.7.2,0,.4-.1.7-.2-.3-.9-.5-1.9-.8-2.8.3-.2.7-.1.9-.5,0-.2,0-.3-.1-.4-.9.2-1.7.6-2.5.8,0,.2,0,.3,0,.5h0ZM124.5,123.1c0-.2.1-.4.2-.6-.5-.1-1-.2-1.6-.3.1-.9.4-1.9.5-2.8-.2,0-.4-.1-.6-.2-.2,1.2-.4,2.3-.7,3.4,0,0,0,0,.1,0,.7.1,1.3.3,2.1.4ZM141.4,115.3c0-.2,0-.4-.1-.6-.2-.5-.5-1.1-.7-1.6-.2-.4-.4-.7-.5-1.1-.2.1-.4.2-.6.3.2.6.4,1.1.7,1.6s.3,1.1.8,1.6c.2,0,.3-.2.5-.3h0ZM148.2,113c-.1-1.2-.3-2.3-.4-3.5-.2,0-.5,0-.7.1.2,1.2.3,2.3.5,3.5.2,0,.4-.1.7-.2h0ZM117.2,115.7c-.6,1-1.2,2-1.9,3,.2.2.4.3.6.4.6-1,1.2-2,1.8-3-.2-.1-.3-.3-.6-.4h0ZM98.5,109.5c-.2-.2-.5-.2-.7-.1-.3,1.1-.6,2.2-.9,3.3.2,0,.4.1.6.2.3-1.1.6-2.2,1-3.4h0Z"/>
        <path class="cls-6" d="M154.3,101.6c-.2,0-.3.1-.4.2-.7.3-1.4.6-2.2.9-.6.2-1.1.5-1.8.4-.5-.8-.7-1.8-.2-2.6,0-.1.2-.3.4-.4.6-.4,1.1-.7,1.8-.8.9-.2,1.7-.4,2.5-.7.7-.2,1.4-.5,1.9-1,.3-.2.6-.6.8-1,.7-1.1,1.3-2.3,1.7-3.5.1-.3.2-.6.3-.9q.2.2.6.9c.2.3.4.7.5,1,.2.3.3.7.5,1,.2.3.3.7.5,1,1.2.2,2.4.3,3.5.4-.3.7-.6,1.4-.9,2.1-.1.3-.2.6-.4.9-.3.7-.6,1.5-1.1,2.2-.7,1.1-1.9,2.1-3.1,2.6-.3-.2-.6-.4-.9-.6-.7-.4-1.5-.8-2.2-1.2-.2-.1-.4-.2-.6-.4-.5-.3-.9-.4-1.4-.4h0Z"/>
        <path class="cls-6" d="M88.6,96c.7-1.2,1.3-2.6,2-3.8h.1c0,.1.1.3.2.4.3.8.7,1.5.9,2.3.3.7.7,1.3,1.1,2,.3.5.7.8,1.2,1.1.7.4,1.3.6,2.1.8.8.2,1.6.5,2.4.7.5.2,1.1.4,1.5.8.2.2.4.5.4.8,0,.7,0,1.4-.4,2-.4,0-.8,0-1.2-.1-.7-.3-1.3-.6-1.9-.9-.6-.2-1.2-.6-1.8-.5-.2,0-.4,0-.6.2-.7.4-1.3.8-2,1.1-.6.3-1.2.6-1.7,1-.3.2-.6.2-.8,0-.6-.3-1.2-.8-1.7-1.3-.5-.5-.9-1-1.2-1.7-.3-.7-.7-1.4-1-2.1-.3-.7-.6-1.3-.9-2,0-.1-.1-.2-.2-.4.6-.2,1.2-.3,1.8-.3.6,0,1.2-.1,1.8-.2h0Z"/>
        <path class="cls-6" d="M95.2,102.1c.2,0,.4,0,.5.1.8.3,1.6.7,2.4,1.1.4.2.9.3,1.3.4,0,0,.2,0,.3,0-1,1.2-2.2,2.2-3.7,2.8-1.7-.9-1.8-2.6-.9-4.4Z"/>
        <path class="cls-6" d="M154.8,102.1c.4.5.4,1,.5,1.5.2.6,0,1.1-.1,1.6-.2.6-.7,1-1.3,1.2-1.4-.6-2.6-1.5-3.6-2.7,0,0,0,0,.1,0,.8,0,1.5-.5,2.2-.8.6-.3,1.2-.5,1.9-.7,0,0,.2,0,.3,0h0Z"/>
        <path class="cls-6" d="M84.1,94.6c-.3,0-.4-.1-.4-.4,2-1.4,4-2.8,6-4.2.1.2.2.3.3.4-2,1.4-3.9,2.8-5.9,4.2h0Z"/>
        <path class="cls-6" d="M166.4,94.3c-.2.2-.3.3-.4.4-2-1.4-4-2.8-5.9-4.2,0-.2.1-.3.2-.5,2.1,1.4,4.1,2.9,6.2,4.3h0Z"/>
        <path class="cls-6" d="M84.5,95.4c-.1-.2-.2-.3-.3-.4,2-1.4,4-2.8,6-4.2,0,.2.1.3.2.5-2,1.4-3.9,2.8-5.9,4.2Z"/>
        <path class="cls-6" d="M165.8,95c0,.1-.1.3-.2.5-2-1.4-4-2.8-5.9-4.2,0-.1,0-.3.1-.4.2,0,.4,0,.6.2,1.1.8,2.2,1.5,3.2,2.3.7.5,1.3.9,2,1.4,0,0,.2.1.3.2h0Z"/>
        <path class="cls-6" d="M165.4,95.7c0,.1-.1.2-.2.4-.2,0-.3,0-.4-.2-1.1-.8-2.2-1.6-3.3-2.3-.2-.2-.5-.3-.7-.5-.5-.3-.9-.7-1.1-1.4.1,0,.2,0,.3,0,.4.3.8.5,1.2.8.6.4,1.3.9,1.9,1.4.7.5,1.4,1,2.1,1.4.1,0,.2.1.3.2h0Z"/>
        <path class="cls-6" d="M90.3,91.8c0,.2,0,.3-.2.5-.2.2-.3.4-.6.6-.9.6-1.8,1.2-2.7,1.9-.6.4-1.1.8-1.7,1.2,0,0-.2,0-.4.1,0-.1-.1-.2-.2-.4,1.9-1.3,3.7-2.6,5.6-4,0,0,0,0,0,0h0Z"/>
        <path class="cls-6" d="M160.5,93.4c.2.2.5.3.7.4.8.6,1.6,1.2,2.5,1.7.1,0,.3.2.4.3-.5.1-.8,0-1.2-.2-.6-.4-1.3-.9-1.9-1.4-.3-.2-.5-.6-.5-1h0Z"/>
        <path class="cls-6" d="M89.4,93.5c0,.3-.2.6-.4.8-.4.3-.8.6-1.2.8-.2.2-.5.3-.8.5-.3.2-.7.2-1,.3,0,0,0,0-.2-.1,1.2-.8,2.3-1.6,3.4-2.4,0,0,0,0,0,0h0Z"/>
        <path class="cls-6" d="M86,92.2c-.9.6-1.6,1.3-2.6,1.8-.1-.1-.2-.2-.3-.4.6-.4,1.1-.7,1.6-1.1.4-.3.8-.4,1.3-.3Z"/>
        <path class="cls-6" d="M164,92.2c.6-.1,1,0,1.4.3s.9.6,1.3.9c0,0,0,0,0,.1,0,.1-.1.2-.2.4-.9-.6-1.7-1.2-2.6-1.8Z"/>
        <path class="cls-6" d="M162.6,90.5c.1.2.2.4.3.7-.3,0-1.7-.9-2.4-1.6,0-.1.1-.3.2-.4.8.4,1.3.9,2,1.4h0Z"/>
        <path class="cls-6" d="M89.4,89.2c0,.2.2.3.2.5-.8.6-1.5,1.2-2.4,1.6,0-.5.2-.8.7-1,.5-.3.9-.7,1.5-1Z"/>
        <path class="cls-6" d="M82.9,93.3c-.1-.1-.2-.2-.4-.4.3-.2.7-.5.9-.7h.8s0,0,0,0c-.4.3-.9.6-1.4,1Z"/>
        <path class="cls-6" d="M167,93.2c-.4-.2-.8-.6-1.3-.9.8-.3,1.2.2,1.7.6-.1,0-.3.2-.5.3Z"/>
        <path class="cls-6" d="M89,88.5c0,.2.1.3.2.4-.5.3-.8.7-1.4.9.2-.7.5-1.1,1.2-1.3Z"/>
        <path class="cls-6" d="M160.8,88.8c.1-.2.2-.2.3-.3.7.3,1,.7,1.1,1.3-.5-.3-.9-.7-1.4-1h0Z"/>
        <path class="cls-6" d="M88.4,95.7h-.7c.4-.3.7-.5,1-.7,0,0,0,0,0,0-.1.2-.2.4-.4.7Z"/>
        <path class="cls-6" d="M162.2,95.7c-.6,0-.6,0-.9-.7.4.2.6.4.9.7Z"/>
        <path class="cls-6" d="M82.7,92.4c-.2.1-.3.2-.5.3,0-.1-.1-.2-.2-.3h.7Z"/>
        <path class="cls-6" d="M160.5,93.4s0,0,0,0c0,0,0,0,0,0h0Z"/>
        <path class="cls-3" d="M135.3,66.1c0,.2,0,.4-.1.6-.2,0-.3.2-.4.2-.3-.2-.5-.3-.5-.6,0-.2.2-.4.4-.5.3-.1.4.2.7.3h0Z"/>
        <path class="cls-3" d="M115.4,66.8c-.4-.2-.6-.5-.5-.7,0-.2.3-.4.6-.4.2,0,.4.2.5.4,0,.3,0,.5-.5.7Z"/>
        <path class="cls-2" d="M93.8,111.4c.5-1,.9-1.9,1.3-2.8,0,0,0,0,0,0-.6.7-1.3,1.4-1.9,2.2-.2-.2-.3-.3-.6-.5.2-.8.4-1.6.4-2.4,0,0,0,0,0,0-.4.5-.8,1-1.3,1.5-.2-.1-.3-.2-.5-.3.5-.8,1.2-1.5,1.8-2.3,0,0-.2,0-.3.2-.6.4-1.1.9-1.7,1.4,0,0,0,0-.2,0-.1-.2-.3-.3-.4-.5.9-.7,1.8-1.4,2.7-2.2.3.4.5.7.8,1.2,0,.8-.4,1.6-.4,2.4,0,0,0,0,0,0,.4-.5.9-1,1.3-1.5,0,0,.1,0,.1,0,.4.5,1.1.8,1.7,1.1.4.2.6.5.6.9,0,.8-.2,1.4-.7,2-.4.4-.8.5-1.3.3-.5-.2-1-.4-1.5-.7h0ZM96.1,111.3c.3-.5.6-1,.5-1.7-.3-.2-.6-.3-.9-.6-.3.7-.6,1.4-.9,2.1.4.5.9.5,1.4.2Z"/>
        <path class="cls-2" d="M106.6,114.5c-.2,0-.3-.2-.5-.3.3-1.1.7-2.2,1-3.3.3,0,.6.2.9.3,0,.8,0,1.5,0,2.3h0c.4-.6.7-1.2,1.1-1.8.3,0,.6.1,1,.2-.4,1.2-.6,2.4-1.1,3.5-.2-.1-.4-.2-.5-.3.2-.7.4-1.3.6-1.9,0,0,0,0,0,0-.2.3-.3.5-.5.8-.1.2-.3.4-.4.7-.2.4-.2.4-.6.3,0,0,0,0-.2,0,0-.7,0-1.5,0-2.2,0,0,0,0,0,0-.3.6-.3,1.3-.7,2h0Z"/>
        <path class="cls-2" d="M102,110h.7c.3.8.6,1.6.9,2.4,0,0,0,0,0,0,0-.7.2-1.4.3-2.1.2,0,.4,0,.6,0,0,1.2-.2,2.3-.4,3.4-.4.1-.7,0-.8-.4-.2-.6-.4-1.1-.7-1.7,0,0,0-.1-.2-.3-.1.8-.2,1.5-.3,2.2-.2,0-.4,0-.6,0,0-1.2.3-2.3.4-3.5h0Z"/>
        <path class="cls-2" d="M153.1,112.3c-.2,0-.4.1-.6.2-.2-1.2-.5-2.3-.7-3.5.2,0,.4,0,.6-.2.6.6,1.1,1.2,1.6,1.8,0,0,0,0,0,0-.1-.7-.2-1.3-.4-2.1.2,0,.4,0,.6-.1.2,1.2.4,2.2.6,3.4-.2,0-.4.2-.6.2-.6-.6-1.1-1.2-1.6-1.8h-.1c.1.7.3,1.3.4,2h0Z"/>
        <path class="cls-2" d="M149.7,109.2h.4c.9,0,1.6.8,1.6,1.6,0,.4,0,.7-.1,1.1-.2.5-.6.8-1,.9-1,.3-1.8-.3-2-1.3,0-.4-.1-.8,0-1.2.1-.5.4-.8.9-1,0,0,.1,0,.2-.1h0ZM149.9,112.2c.7,0,1.1-.3,1.1-1v-.4c0-.4-.1-.8-.5-1-.5,0-.9,0-1.1.4-.2.9,0,1.4.6,1.9h0Z"/>
        <path class="cls-2" d="M133.4,117.5c0-1,.8-1.8,1.7-1.8.5,0,.9.2,1.2.7.2.4.5.7.5,1.2,0,.8-.4,1.3-1,1.7-.8.4-1.4,0-1.9-.6-.3-.3-.5-.7-.4-1.2h0ZM136.2,117.4c-.1-.2-.3-.4-.4-.6-.3-.3-.9-.4-1.2-.2-.4.3-.5.8-.3,1.2.2.3.4.5.7.7.4.3.9.2,1.2-.3.2-.3.1-.5.1-.8h0Z"/>
        <path class="cls-2" d="M112.6,116.9c0-.3,1.4-2.9,1.7-3.1.4.3.9.6,1.3.9.6.5.5,1.5.1,2.1,0,.2-.2.3-.3.4-.3.4-.7.5-1.1.6,0,0-.2,0-.3,0-.5-.3-.9-.5-1.4-.8,0,0,0,0,0,0h0ZM113.4,116.6c.2.2.3.3.5.4.4.3.8,0,1-.2.2-.2.3-.5.4-.7.2-.3.1-.8-.1-1-.2-.2-.4-.3-.7-.4-.4.7-.7,1.3-1.1,2Z"/>
        <path class="cls-2" d="M111.2,113.8c.5.2,1,.5,1.5.7,0,0,0,.2,0,.3,0,0,0,.2-.1.2-.6,0-.9-.6-1.6-.6,0,.2-.2.4-.3.7.5.3,1.1.5,1.6.8,0,.2,0,.5-.1.6-.7-.3-1.4-.7-2.2-1.1,0-.4.3-.7.4-1.1.1-.4.3-.8.5-1.1.2-.4.3-.7.5-1.1.8.4,1.5.7,2.3,1.1-.1.2-.2.4-.3.5-.6-.1-1-.6-1.7-.7,0,.2-.1.4-.2.7h0Z"/>
        <path class="cls-2" d="M133.4,118.1c-.2.1-.4.2-.5.3-.5-.3-.9-.1-1.2.4,0,0,.1.2.2.2.6,0,1.3-.2,1.8-.2.5.3.7.7.6,1.2,0,.2-.1.4-.2.6-.4.5-1.2.9-1.7.6-.2,0-.4-.3-.6-.5.2-.2.4-.3.6-.4.3.2.6.4.9.2.5-.4.5-.4.3-.9-.2,0-.5,0-.7.1-.3,0-.7,0-1,.1-.1,0-.3-.1-.4-.2-.1-.2-.2-.3-.3-.5,0-.6.5-1.3,1.1-1.4.6-.2,1,0,1.2.5h0Z"/>
        <path class="cls-2" d="M129.5,119.5c-.1.1-.2.2-.3.4,0,.1,0,.2,0,.3h1.8c.6.4.6.9.4,1.4,0,.4-.4.5-.7.7-.7.4-1.4.2-1.8-.5.1-.2.4-.3.7-.3,0,0,.1.2.2.3.7,0,1-.2,1-.9-.2,0-.3,0-.5,0-.3,0-.6,0-.9,0-.4,0-.6-.2-.8-.5-.2-.3-.1-.7,0-1,.3-.5,1.1-.8,1.7-.6.3,0,.5.3.5.6,0,0-.1,0-.2.1s-.2,0-.3,0c0,0-.2-.1-.2-.2h-.6Z"/>
        <path class="cls-2" d="M101.1,113.4h-.7c0-.3-.2-.5-.3-.8-.4,0-.8,0-1.3-.1-.1.2-.2.4-.3.6-.2,0-.5.3-.7,0,.5-1.1,1-2.2,1.5-3.3h.7c.3,1.2.7,2.4,1.1,3.6ZM99.1,111.8c.3.2.5.1.8,0,0-.4,0-.8-.3-1.1-.1.3-.3.7-.4,1.1Z"/>
        <path class="cls-2" d="M144.8,113.8c-.2,0-.4.2-.6.3-.2-.2-.3-.3-.5-.5-.5,0-.9.2-1.3.4v.8c-.2,0-.4.2-.6.3v-3.8c.2,0,.4-.2.6-.3.9.9,1.7,1.8,2.4,2.8h0ZM142.4,112.1s0,0-.1,0c0,.4,0,.8,0,1.2.3-.1.5-.2.8-.4-.3-.3-.5-.6-.8-.9h0Z"/>
        <path class="cls-2" d="M122,122.7c-.2-.2-.4-.3-.6-.4v-.8c-.4-.2-.8-.3-1.1-.5,0,0-.2.2-.3.2-.4.4-.5.4-.9,0,.8-.9,1.7-1.8,2.6-2.6.2,0,.4.2.7.3,0,1.3-.2,2.5-.2,3.8h0ZM121.5,119.5s0,0,0,0c-.3.3-.5.6-.8.9.3.2.5.3.7.4.2-.4,0-.9.2-1.3h0Z"/>
        <path class="cls-2" d="M126.8,119.7c.3,0,.5,0,.7-.1.6,1.1,1.1,2.2,1.6,3.3-.2,0-.4,0-.6.2-.1-.2-.3-.4-.4-.7-.4,0-.8,0-1.3.1,0,.3-.1.5-.2.8-.2,0-.4,0-.7,0,.2-1.3.6-2.4.8-3.6h0ZM127.2,120.5c-.1.4-.2.8-.3,1.2.3.2.4.2.8,0-.2-.3-.3-.7-.5-1.1h0Z"/>
        <path class="cls-2" d="M138,116.1c.1,0,.2.1.4.2.8-.2.8-.2.8-1.2.2,0,.3-.2.5-.2.3.2.2.5.1.7,0,.6-.4,1-.9,1.2-.3.1-.6.2-.8.1-.4-.1-.7-.4-.9-.7-.3-.4-.5-.9-.5-1.4,0-1,1.2-1.7,2.1-1.3,0,0,.1,0,.2,0,0,.3-.2.4-.4.6-.2,0-.3,0-.5,0-.6-.1-.9.6-.8,1,0,.3.2.5.4.7,0,.1.2.2.2.3h0Z"/>
        <path class="cls-2" d="M120.1,118.9c-.3-.1-.5-.2-.7-.3v-.5c-.5-.7-1-.7-1.6,0-.2.3-.5.7-.4,1.2.2.3.4.5.8.5.2-.1.4-.2.6-.3,0,.2.4.3.3.6-.8.6-1.7.4-2.1-.4-.4-.8-.1-1.4.3-2.1,0-.1.2-.2.2-.3.7-.7,2.2-.4,2.4.6,0,.3,0,.6,0,1h0Z"/>
        <path class="cls-2" d="M143.8,111.1c0-.1,0-.3,0-.5.8-.2,1.6-.6,2.5-.8,0,.2,0,.3.1.4-.2.3-.6.2-.9.5.3.9.5,1.8.8,2.8-.2,0-.4.1-.7.2-.3-.9-.5-1.8-.8-2.7-.3,0-.6.3-1,.2h0Z"/>
        <path class="cls-2" d="M124.6,123.2c-.7-.1-1.4-.3-2.1-.4,0,0-.1,0-.1,0,.2-1.1.4-2.2.7-3.4.2,0,.4.1.6.2,0,1-.4,1.9-.5,2.8.6.1,1.1.2,1.6.3,0,.2-.1.4-.2.6Z"/>
        <path class="cls-2" d="M141.4,115.4c-.2.1-.3.2-.5.3-.4-.5-.5-1.1-.8-1.6-.3-.5-.5-1.1-.7-1.6.2,0,.4-.2.6-.3.2.4.4.7.5,1.1.2.5.5,1,.7,1.6,0,.2.1.4.1.6h0Z"/>
        <path class="cls-2" d="M148.2,113c-.2,0-.4,0-.7.2-.2-1.2-.3-2.3-.5-3.5.2,0,.4,0,.7-.1.1,1.2.3,2.3.4,3.5h0Z"/>
        <path class="cls-2" d="M117.2,115.7c.2.2.4.3.6.4-.6,1-1.2,1.9-1.8,3-.2,0-.3-.2-.6-.4.6-1,1.2-2,1.9-3h0Z"/>
        <path class="cls-2" d="M98.5,109.5c-.3,1.1-.6,2.3-1,3.4-.2,0-.4-.1-.6-.2.3-1.1.6-2.2.9-3.3.2,0,.5,0,.7.1h0Z"/>
        <path class="cls-6" d="M96.1,111.3c-.5.3-1,.2-1.4-.2.3-.7.6-1.3.9-2.1.4.2.7.4.9.6.1.7-.2,1.2-.5,1.7Z"/>
        <path class="cls-6" d="M149.9,112.2c-.7-.5-.8-1.1-.6-1.9.3-.4.7-.5,1.1-.4.4.2.5.6.5,1v.4c0,.7-.4,1-1.1,1h0Z"/>
        <path class="cls-6" d="M136.2,117.4c0,.3,0,.6-.1.8-.3.5-.8.6-1.2.3-.3-.2-.5-.4-.7-.7-.2-.4,0-1,.3-1.2.4-.2.9-.1,1.2.2.2.2.3.4.4.6h0Z"/>
        <path class="cls-6" d="M113.4,116.6c.4-.7.7-1.3,1.1-2,.2.2.5.3.7.4.2.2.3.7.1,1-.1.2-.3.5-.4.7-.2.3-.6.5-1,.2-.2-.1-.3-.2-.5-.4Z"/>
        <path class="cls-6" d="M99.1,111.8c.2-.4.3-.7.4-1.1.2.4.4.7.3,1.1-.3,0-.5.1-.8,0Z"/>
        <path class="cls-6" d="M142.4,112.1c.2.3.5.6.8.9-.3.1-.5.2-.8.4-.2-.4,0-.8,0-1.2,0,0,0,0,.1,0h0Z"/>
        <path class="cls-6" d="M121.5,119.5c-.2.4,0,.8-.2,1.3-.2-.1-.5-.3-.7-.4.3-.3.6-.6.8-.9,0,0,0,0,0,0h0Z"/>
        <path class="cls-6" d="M127.2,120.5c.2.4.4.8.5,1.1-.4.2-.5.2-.8,0,0-.4.2-.7.3-1.2h0Z"/>
      </g>
    </g>
    <g>
      <path class="cls-5" d="M37.8,145.1v8.3h-1.7v-8.3h1.7Z"/>
      <path class="cls-5" d="M46.5,153.3h-1.7l-3.8-5.7v5.7h-1.7v-8.3h1.7l3.8,5.7v-5.7h1.7v8.3Z"/>
      <path class="cls-5" d="M53.3,145.6c.7.3,1.2.8,1.5,1.4.4.6.5,1.4.5,2.2s-.2,1.6-.5,2.2-.9,1.1-1.5,1.4-1.4.5-2.3.5h-2.9v-8.3h2.9c.9,0,1.6.2,2.3.5h0ZM53,151.2c.5-.5.7-1.1.7-2s-.2-1.5-.7-2c-.5-.5-1.1-.7-2-.7h-1.2v5.4h1.2c.9,0,1.5-.2,2-.7h0Z"/>
      <path class="cls-5" d="M58.3,145.1v8.3h-1.7v-8.3h1.7Z"/>
      <path class="cls-5" d="M64.9,151.7h-3.3l-.5,1.6h-1.7l3-8.3h1.9l3,8.3h-1.8l-.5-1.6h0ZM64.5,150.4l-1.2-3.4-1.2,3.4h2.4Z"/>
      <path class="cls-5" d="M75.4,153.3h-1.7l-3.8-5.7v5.7h-1.7v-8.3h1.7l3.8,5.7v-5.7h1.7v8.3Z"/>
      <path class="cls-5" d="M88.9,145.1v8.3h-1.7v-5.4l-2.2,5.4h-1.2l-2.2-5.4v5.4h-1.7v-8.3h1.9l2.6,6.1,2.6-6.1h1.9,0Z"/>
      <path class="cls-5" d="M92.2,146.4v2.1h2.8v1.3h-2.8v2.2h3.1v1.4h-4.8v-8.3h4.8v1.4h-3.1Z"/>
      <path class="cls-5" d="M102,145.6c.7.3,1.2.8,1.5,1.4.4.6.5,1.4.5,2.2s-.2,1.6-.5,2.2-.9,1.1-1.5,1.4c-.7.3-1.4.5-2.3.5h-2.9v-8.3h2.9c.9,0,1.6.2,2.3.5h0ZM101.6,151.2c.5-.5.7-1.1.7-2s-.2-1.5-.7-2-1.1-.7-2-.7h-1.2v5.4h1.2c.9,0,1.5-.2,2-.7h0Z"/>
      <path class="cls-5" d="M106.9,145.1v8.3h-1.7v-8.3h1.7Z"/>
      <path class="cls-5" d="M108.7,147c.4-.6.9-1.1,1.5-1.5s1.3-.5,2.1-.5,1.7.2,2.4.7c.7.5,1.2,1.1,1.5,2h-1.9c-.2-.4-.5-.7-.8-.9-.3-.2-.7-.3-1.2-.3s-.9.1-1.3.3-.7.5-.9.9-.3.9-.3,1.4,0,1,.3,1.4c.2.4.5.7.9,1,.4.2.8.3,1.3.3s.8-.1,1.2-.3c.3-.2.6-.5.8-.9h1.9c-.3.8-.8,1.5-1.4,2-.7.5-1.5.7-2.4.7s-1.5-.2-2.1-.5c-.6-.4-1.1-.9-1.5-1.5-.4-.6-.6-1.4-.6-2.2s.2-1.5.6-2.2h0Z"/>
      <path class="cls-5" d="M122.7,151.7h-3.3l-.5,1.6h-1.7l3-8.3h1.9l3,8.3h-1.8l-.5-1.6h0ZM122.3,150.4l-1.2-3.4-1.2,3.4h2.4Z"/>
      <path class="cls-5" d="M127.8,152h2.7v1.3h-4.4v-8.3h1.7v6.9Z"/>
      <path class="cls-5" d="M139.4,151.7h-3.3l-.5,1.6h-1.7l3-8.3h1.9l3,8.3h-1.8l-.5-1.6h0ZM139,150.4l-1.2-3.4-1.2,3.4h2.4Z"/>
      <path class="cls-5" d="M144.1,153.1c-.5-.2-.8-.5-1.1-.9s-.4-.8-.4-1.3h1.8c0,.3.1.6.4.8.2.2.5.3.9.3s.7,0,.9-.3c.2-.2.3-.4.3-.7s0-.4-.2-.6c-.1-.2-.3-.3-.6-.4s-.5-.2-.9-.3c-.5-.2-1-.3-1.3-.5-.3-.1-.6-.4-.9-.7s-.4-.7-.4-1.2.1-.9.4-1.3.6-.6,1-.8.9-.3,1.5-.3c.9,0,1.5.2,2.1.6.5.4.8,1,.9,1.7h-1.8c0-.3-.1-.5-.4-.7-.2-.2-.5-.3-.9-.3s-.6,0-.8.2-.3.4-.3.7,0,.4.2.6c.1.1.3.3.5.4.2,0,.5.2.9.3.5.2,1,.3,1.3.5.3.2.6.4.9.7.2.3.4.7.4,1.2s-.1.9-.3,1.2c-.2.4-.6.7-1,.9-.4.2-1,.3-1.6.3s-1.1-.1-1.6-.3h0Z"/>
      <path class="cls-5" d="M151.4,153.1c-.5-.2-.8-.5-1.1-.9s-.4-.8-.4-1.3h1.8c0,.3.1.6.4.8.2.2.5.3.9.3s.7,0,.9-.3c.2-.2.3-.4.3-.7s0-.4-.2-.6c-.1-.2-.3-.3-.6-.4s-.5-.2-.9-.3c-.5-.2-1-.3-1.3-.5-.3-.1-.6-.4-.9-.7s-.4-.7-.4-1.2.1-.9.4-1.3.6-.6,1-.8.9-.3,1.5-.3c.9,0,1.5.2,2.1.6.5.4.8,1,.9,1.7h-1.8c0-.3-.1-.5-.4-.7-.2-.2-.5-.3-.9-.3s-.6,0-.8.2-.3.4-.3.7,0,.4.2.6c.1.1.3.3.5.4.2,0,.5.2.9.3.5.2,1,.3,1.3.5.3.2.6.4.9.7.2.3.4.7.4,1.2s-.1.9-.3,1.2c-.2.4-.6.7-1,.9-.4.2-1,.3-1.6.3s-1.1-.1-1.6-.3h0Z"/>
      <path class="cls-5" d="M159,152.8c-.6-.4-1.2-.9-1.5-1.5s-.6-1.4-.6-2.2.2-1.5.6-2.2.9-1.1,1.5-1.5,1.4-.5,2.1-.5,1.5.2,2.1.5c.6.4,1.1.9,1.5,1.5.4.6.6,1.4.6,2.2s-.2,1.5-.6,2.2-.9,1.1-1.5,1.5c-.6.4-1.4.5-2.1.5s-1.5-.2-2.1-.5h0ZM162.4,151.6c.4-.2.7-.6.9-1,.2-.4.3-.9.3-1.5s-.1-1-.3-1.4-.5-.7-.9-.9-.8-.3-1.3-.3-.9.1-1.3.3-.7.5-.9.9-.3.9-.3,1.4.1,1,.3,1.5c.2.4.5.7.9,1s.8.3,1.3.3.9-.1,1.3-.3Z"/>
      <path class="cls-5" d="M166.7,147c.4-.6.9-1.1,1.5-1.5s1.4-.5,2.1-.5,1.7.2,2.4.7c.7.5,1.2,1.1,1.5,2h-1.9c-.2-.4-.5-.7-.8-.9s-.7-.3-1.2-.3-.9.1-1.3.3-.7.5-.9.9-.3.9-.3,1.4.1,1,.3,1.4c.2.4.5.7.9,1,.4.2.8.3,1.3.3s.9-.1,1.2-.3.6-.5.8-.9h1.9c-.3.8-.8,1.5-1.4,2s-1.5.7-2.4.7-1.5-.2-2.1-.5c-.6-.4-1.1-.9-1.5-1.5-.4-.6-.6-1.4-.6-2.2s.2-1.5.6-2.2h0Z"/>
      <path class="cls-5" d="M177.3,145.1v8.3h-1.7v-8.3h1.7Z"/>
      <path class="cls-5" d="M184,151.7h-3.3l-.5,1.6h-1.7l3-8.3h1.9l3,8.3h-1.8l-.5-1.6h0ZM183.5,150.4l-1.2-3.4-1.2,3.4h2.4Z"/>
      <path class="cls-5" d="M193,145.1v1.3h-2.2v6.9h-1.7v-6.9h-2.2v-1.3h6.1Z"/>
      <path class="cls-5" d="M195.9,145.1v8.3h-1.7v-8.3h1.7Z"/>
      <path class="cls-5" d="M199.2,152.8c-.6-.4-1.2-.9-1.5-1.5s-.6-1.4-.6-2.2.2-1.5.6-2.2.9-1.1,1.5-1.5,1.4-.5,2.1-.5,1.5.2,2.1.5c.6.4,1.1.9,1.5,1.5.4.6.6,1.4.6,2.2s-.2,1.5-.6,2.2-.9,1.1-1.5,1.5c-.6.4-1.4.5-2.1.5s-1.5-.2-2.1-.5h0ZM202.7,151.6c.4-.2.7-.6.9-1,.2-.4.3-.9.3-1.5s-.1-1-.3-1.4-.5-.7-.9-.9-.8-.3-1.3-.3-.9.1-1.3.3-.7.5-.9.9-.3.9-.3,1.4.1,1,.3,1.5c.2.4.5.7.9,1s.8.3,1.3.3.9-.1,1.3-.3Z"/>
      <path class="cls-5" d="M213.9,153.3h-1.7l-3.8-5.7v5.7h-1.7v-8.3h1.7l3.8,5.7v-5.7h1.7v8.3Z"/>
    </g>
  </g>
</svg>